STARTFONT 2.1
FONT -memleek-leggie-bold-i-normal--24----c-120-iso10646-1
SIZE 24 75 75
FONTBOUNDINGBOX 12 24 0 -4
STARTPROPERTIES 17
AVERAGE_WIDTH 120
CAP_HEIGHT 14
CHARSET_ENCODING "1"
CHARSET_REGISTRY "ISO10646"
COMMENT "Please visit https://memleek.org/leggie"
COPYRIGHT "2012-2018 W. Kerr. Licensed under CC BY 4.0"
DEFAULT_CHAR 65535
FAMILY_NAME "leggie"
FONT "leggie"
FONT_ASCENT 20
FONT_DESCENT 4
FOUNDRY "memleek"
PIXEL_SIZE 24
SETWIDTH_NAME "Normal"
SLANT "I"
SPACING "C"
WEIGHT_NAME "Bold"
X_HEIGHT 10
ENDPROPERTIES
CHARS 554
STARTCHAR SPACE
ENCODING 32
SWIDTH 480 0
DWIDTH 12 0
BBX 12 24 0 -4
BITMAP
0000
0000
0000
0000
0000
0000
0000
0000
0000
0000
0000
0000
0000
0000
0000
0000
0000
0000
0000
0000
0000
0000
0000
0000
ENDCHAR
STARTCHAR EXCLAMATION MARK
ENCODING 33
SWIDTH 480 0
DWIDTH 12 0
BBX 12 24 0 -4
BITMAP
0000
0000
0000
0000
0000
0000
0380
0380
0380
0380
0380
0700
0700
0700
0700
0000
0000
0E00
0E00
0E00
0000
0000
0000
0000
ENDCHAR
STARTCHAR QUOTATION MARK
ENCODING 34
SWIDTH 480 0
DWIDTH 12 0
BBX 12 24 0 -4
BITMAP
0000
0000
0000
0000
0E70
0E70
0E70
1CE0
1CE0
1CE0
0000
0000
0000
0000
0000
0000
0000
0000
0000
0000
0000
0000
0000
0000
ENDCHAR
STARTCHAR NUMBER SIGN
ENCODING 35
SWIDTH 480 0
DWIDTH 12 0
BBX 12 24 0 -4
BITMAP
0000
0000
0000
0000
0000
0000
0EE0
0EE0
0EE0
0EE0
3FF0
3FF0
1DC0
1DC0
7FE0
7FE0
3B80
3B80
3B80
3B80
0000
0000
0000
0000
ENDCHAR
STARTCHAR DOLLAR SIGN
ENCODING 36
SWIDTH 480 0
DWIDTH 12 0
BBX 12 24 0 -4
BITMAP
0000
0000
0000
01C0
01C0
01C0
0FF0
1FF0
3800
3800
7000
7000
3FC0
1FE0
0070
0070
00E0
00E0
FFC0
FF80
1C00
1C00
1C00
0000
ENDCHAR
STARTCHAR PERCENT SIGN
ENCODING 37
SWIDTH 480 0
DWIDTH 12 0
BBX 12 24 0 -4
BITMAP
0000
0000
0000
0000
0000
0000
0E00
1F00
3BB0
3BF0
1FE0
0FC0
0780
0F00
1F80
3FC0
7EE0
6EE0
07C0
0380
0000
0000
0000
0000
ENDCHAR
STARTCHAR AMPERSAND
ENCODING 38
SWIDTH 480 0
DWIDTH 12 0
BBX 12 24 0 -4
BITMAP
0000
0000
0000
0000
0000
0000
0F80
1FC0
38E0
70E0
70E0
71C0
3F80
3E00
70E0
E1C0
E380
E700
7F80
3DC0
0000
0000
0000
0000
ENDCHAR
STARTCHAR APOSTROPHE
ENCODING 39
SWIDTH 480 0
DWIDTH 12 0
BBX 12 24 0 -4
BITMAP
0000
0000
0000
0000
0380
0380
0380
0700
0700
0700
0000
0000
0000
0000
0000
0000
0000
0000
0000
0000
0000
0000
0000
0000
ENDCHAR
STARTCHAR LEFT PARENTHESIS
ENCODING 40
SWIDTH 480 0
DWIDTH 12 0
BBX 12 24 0 -4
BITMAP
0000
0000
00E0
01C0
0380
0380
0380
0380
0700
0700
0700
0700
0700
0E00
0E00
0E00
0E00
0E00
1C00
1C00
1C00
1C00
0E00
0700
ENDCHAR
STARTCHAR RIGHT PARENTHESIS
ENCODING 41
SWIDTH 480 0
DWIDTH 12 0
BBX 12 24 0 -4
BITMAP
0000
0000
0E00
0700
0380
0380
0380
0380
0700
0700
0700
0700
0700
0E00
0E00
0E00
0E00
0E00
1C00
1C00
1C00
1C00
3800
7000
ENDCHAR
STARTCHAR ASTERISK
ENCODING 42
SWIDTH 480 0
DWIDTH 12 0
BBX 12 24 0 -4
BITMAP
0000
0000
0000
0000
0000
0000
0000
0000
1C70
0EE0
07C0
0380
7FF0
7FF0
0E00
1F00
3B80
71C0
0000
0000
0000
0000
0000
0000
ENDCHAR
STARTCHAR PLUS SIGN
ENCODING 43
SWIDTH 480 0
DWIDTH 12 0
BBX 12 24 0 -4
BITMAP
0000
0000
0000
0000
0000
0000
0000
0000
0380
0380
0380
0700
7FF0
7FF0
0700
0E00
0E00
0E00
0000
0000
0000
0000
0000
0000
ENDCHAR
STARTCHAR COMMA
ENCODING 44
SWIDTH 480 0
DWIDTH 12 0
BBX 12 24 0 -4
BITMAP
0000
0000
0000
0000
0000
0000
0000
0000
0000
0000
0000
0000
0000
0000
0000
0000
0000
0000
0700
0E00
1C00
3800
0000
0000
ENDCHAR
STARTCHAR HYPHEN-MINUS
ENCODING 45
SWIDTH 480 0
DWIDTH 12 0
BBX 12 24 0 -4
BITMAP
0000
0000
0000
0000
0000
0000
0000
0000
0000
0000
0000
3FF0
7FE0
FFC0
0000
0000
0000
0000
0000
0000
0000
0000
0000
0000
ENDCHAR
STARTCHAR FULL STOP
ENCODING 46
SWIDTH 480 0
DWIDTH 12 0
BBX 12 24 0 -4
BITMAP
0000
0000
0000
0000
0000
0000
0000
0000
0000
0000
0000
0000
0000
0000
0000
0000
0000
0E00
0E00
0E00
0000
0000
0000
0000
ENDCHAR
STARTCHAR SOLIDUS
ENCODING 47
SWIDTH 480 0
DWIDTH 12 0
BBX 12 24 0 -4
BITMAP
0000
0000
0000
0000
0030
0030
0070
0070
00E0
01C0
01C0
0380
0700
0700
0E00
0E00
1C00
3800
3800
7000
E000
E000
0000
0000
ENDCHAR
STARTCHAR DIGIT ZERO
ENCODING 48
SWIDTH 480 0
DWIDTH 12 0
BBX 12 24 0 -4
BITMAP
0000
0000
0000
0000
0000
0000
0FC0
1FE0
3870
3870
70F0
71F0
73E0
76E0
ECE0
F8E0
F1C0
E1C0
7F80
3F00
0000
0000
0000
0000
ENDCHAR
STARTCHAR DIGIT ONE
ENCODING 49
SWIDTH 480 0
DWIDTH 12 0
BBX 12 24 0 -4
BITMAP
0000
0000
0000
0000
0000
0000
0060
00E0
01E0
03E0
07E0
0FC0
01C0
01C0
01C0
0380
0380
0380
0380
0380
0000
0000
0000
0000
ENDCHAR
STARTCHAR DIGIT TWO
ENCODING 50
SWIDTH 480 0
DWIDTH 12 0
BBX 12 24 0 -4
BITMAP
0000
0000
0000
0000
0000
0000
3FC0
3FE0
0070
0070
0070
0070
00E0
01C0
0780
1F00
3C00
7000
FFE0
FFE0
0000
0000
0000
0000
ENDCHAR
STARTCHAR DIGIT THREE
ENCODING 51
SWIDTH 480 0
DWIDTH 12 0
BBX 12 24 0 -4
BITMAP
0000
0000
0000
0000
0000
0000
3FC0
3FE0
0070
0070
00E0
00E0
0FC0
0FC0
00E0
00E0
01C0
01C0
FF80
FF00
0000
0000
0000
0000
ENDCHAR
STARTCHAR DIGIT FOUR
ENCODING 52
SWIDTH 480 0
DWIDTH 12 0
BBX 12 24 0 -4
BITMAP
0000
0000
0000
0000
0000
0000
00F0
01F0
03F0
0770
0E70
1CE0
38E0
70E0
FFE0
FFE0
01C0
01C0
01C0
01C0
0000
0000
0000
0000
ENDCHAR
STARTCHAR DIGIT FIVE
ENCODING 53
SWIDTH 480 0
DWIDTH 12 0
BBX 12 24 0 -4
BITMAP
0000
0000
0000
0000
0000
0000
3FF0
3FF0
3800
7000
7FE0
7FF0
0070
0070
0070
0070
00E0
00E0
FFC0
FF80
0000
0000
0000
0000
ENDCHAR
STARTCHAR DIGIT SIX
ENCODING 54
SWIDTH 480 0
DWIDTH 12 0
BBX 12 24 0 -4
BITMAP
0000
0000
0000
0000
0000
0000
0FE0
1FE0
3800
3800
7FC0
7FE0
7070
7070
7070
E070
E0E0
E0E0
7FC0
3F80
0000
0000
0000
0000
ENDCHAR
STARTCHAR DIGIT SEVEN
ENCODING 55
SWIDTH 480 0
DWIDTH 12 0
BBX 12 24 0 -4
BITMAP
0000
0000
0000
0000
0000
0000
7FF0
7FF0
0070
0070
00E0
01C0
1F80
07E0
0E00
1C00
1C00
1C00
1C00
1C00
0000
0000
0000
0000
ENDCHAR
STARTCHAR DIGIT EIGHT
ENCODING 56
SWIDTH 480 0
DWIDTH 12 0
BBX 12 24 0 -4
BITMAP
0000
0000
0000
0000
0000
0000
0FC0
1FE0
3870
7070
7070
70E0
3FC0
3FC0
70E0
E0E0
E0E0
E1C0
7F80
3F00
0000
0000
0000
0000
ENDCHAR
STARTCHAR DIGIT NINE
ENCODING 57
SWIDTH 480 0
DWIDTH 12 0
BBX 12 24 0 -4
BITMAP
0000
0000
0000
0000
0000
0000
1FC0
3FE0
7070
7070
E070
E0E0
E0E0
E0E0
7FE0
3FE0
01C0
01C0
7F80
7F00
0000
0000
0000
0000
ENDCHAR
STARTCHAR COLON
ENCODING 58
SWIDTH 480 0
DWIDTH 12 0
BBX 12 24 0 -4
BITMAP
0000
0000
0000
0000
0000
0000
0000
0000
0000
0000
0380
0380
0380
0000
0000
0000
0000
0E00
0E00
0E00
0000
0000
0000
0000
ENDCHAR
STARTCHAR SEMICOLON
ENCODING 59
SWIDTH 480 0
DWIDTH 12 0
BBX 12 24 0 -4
BITMAP
0000
0000
0000
0000
0000
0000
0000
0000
0000
0000
0380
0380
0380
0000
0000
0000
0000
0000
0700
0E00
1C00
3800
0000
0000
ENDCHAR
STARTCHAR LESS-THAN SIGN
ENCODING 60
SWIDTH 480 0
DWIDTH 12 0
BBX 12 24 0 -4
BITMAP
0000
0000
0000
0000
0070
00E0
01C0
0380
0700
0E00
1C00
3800
7000
E000
E000
7000
3800
1C00
0E00
0700
0380
01C0
0000
0000
ENDCHAR
STARTCHAR EQUALS SIGN
ENCODING 61
SWIDTH 480 0
DWIDTH 12 0
BBX 12 24 0 -4
BITMAP
0000
0000
0000
0000
0000
0000
0000
0000
0000
0FF0
1FE0
3FC0
0000
0000
3FE0
7FC0
FF80
0000
0000
0000
0000
0000
0000
0000
ENDCHAR
STARTCHAR GREATER-THAN SIGN
ENCODING 62
SWIDTH 480 0
DWIDTH 12 0
BBX 12 24 0 -4
BITMAP
0000
0000
0000
0000
3800
1C00
0E00
0700
0380
01C0
00E0
0070
0070
00E0
01C0
0380
0700
0E00
1C00
3800
7000
E000
0000
0000
ENDCHAR
STARTCHAR QUESTION MARK
ENCODING 63
SWIDTH 480 0
DWIDTH 12 0
BBX 12 24 0 -4
BITMAP
0000
0000
0000
0000
0000
0000
7FC0
7FE0
0070
0070
0070
00E0
03C0
0780
0E00
0000
0000
1C00
1C00
1C00
0000
0000
0000
0000
ENDCHAR
STARTCHAR COMMERCIAL AT
ENCODING 64
SWIDTH 480 0
DWIDTH 12 0
BBX 12 24 0 -4
BITMAP
0000
0000
0000
0000
0000
0000
07C0
0FE0
1C70
3870
73F0
77F0
7E70
7E70
7E70
EEE0
EFC0
E780
E000
7000
3F80
1F80
0000
0000
ENDCHAR
STARTCHAR LATIN CAPITAL LETTER A
ENCODING 65
SWIDTH 480 0
DWIDTH 12 0
BBX 12 24 0 -4
BITMAP
0000
0000
0000
0000
0000
0000
0FC0
1FE0
3870
3870
7070
70E0
70E0
70E0
7FE0
FFE0
E1C0
E1C0
E1C0
E1C0
0000
0000
0000
0000
ENDCHAR
STARTCHAR LATIN CAPITAL LETTER B
ENCODING 66
SWIDTH 480 0
DWIDTH 12 0
BBX 12 24 0 -4
BITMAP
0000
0000
0000
0000
0000
0000
3FC0
3FE0
3870
3870
70E0
70E0
7FC0
7FC0
70E0
E0E0
E1C0
E1C0
FF80
FF00
0000
0000
0000
0000
ENDCHAR
STARTCHAR LATIN CAPITAL LETTER C
ENCODING 67
SWIDTH 480 0
DWIDTH 12 0
BBX 12 24 0 -4
BITMAP
0000
0000
0000
0000
0000
0000
0FF0
1FF0
3800
3800
7000
7000
7000
7000
7000
E000
E000
E000
7FE0
3FE0
0000
0000
0000
0000
ENDCHAR
STARTCHAR LATIN CAPITAL LETTER D
ENCODING 68
SWIDTH 480 0
DWIDTH 12 0
BBX 12 24 0 -4
BITMAP
0000
0000
0000
0000
0000
0000
3FC0
3FE0
3870
3870
7070
70E0
70E0
70E0
70E0
E0E0
E1C0
E1C0
FF80
FF00
0000
0000
0000
0000
ENDCHAR
STARTCHAR LATIN CAPITAL LETTER E
ENCODING 69
SWIDTH 480 0
DWIDTH 12 0
BBX 12 24 0 -4
BITMAP
0000
0000
0000
0000
0000
0000
3FF0
3FF0
3800
3800
7000
7000
7F00
7F00
7000
E000
E000
E000
FFE0
FFE0
0000
0000
0000
0000
ENDCHAR
STARTCHAR LATIN CAPITAL LETTER F
ENCODING 70
SWIDTH 480 0
DWIDTH 12 0
BBX 12 24 0 -4
BITMAP
0000
0000
0000
0000
0000
0000
3FF0
3FF0
3800
3800
7000
7000
7F00
7F00
7000
E000
E000
E000
E000
E000
0000
0000
0000
0000
ENDCHAR
STARTCHAR LATIN CAPITAL LETTER G
ENCODING 71
SWIDTH 480 0
DWIDTH 12 0
BBX 12 24 0 -4
BITMAP
0000
0000
0000
0000
0000
0000
0FF0
1FF0
3800
3800
7000
7000
71F0
71F0
7070
E070
E0E0
E0E0
7FE0
3FE0
0000
0000
0000
0000
ENDCHAR
STARTCHAR LATIN CAPITAL LETTER H
ENCODING 72
SWIDTH 480 0
DWIDTH 12 0
BBX 12 24 0 -4
BITMAP
0000
0000
0000
0000
0000
0000
3870
3870
3870
3870
7070
70E0
7FE0
7FE0
70E0
E0E0
E1C0
E1C0
E1C0
E1C0
0000
0000
0000
0000
ENDCHAR
STARTCHAR LATIN CAPITAL LETTER I
ENCODING 73
SWIDTH 480 0
DWIDTH 12 0
BBX 12 24 0 -4
BITMAP
0000
0000
0000
0000
0000
0000
07E0
07E0
0380
0380
0380
0700
0700
0700
0700
0E00
0E00
0E00
3F00
3F00
0000
0000
0000
0000
ENDCHAR
STARTCHAR LATIN CAPITAL LETTER J
ENCODING 74
SWIDTH 480 0
DWIDTH 12 0
BBX 12 24 0 -4
BITMAP
0000
0000
0000
0000
0000
0000
0070
0070
0070
0070
0070
00E0
00E0
00E0
00E0
00E0
01C0
E1C0
7F80
3F00
0000
0000
0000
0000
ENDCHAR
STARTCHAR LATIN CAPITAL LETTER K
ENCODING 75
SWIDTH 480 0
DWIDTH 12 0
BBX 12 24 0 -4
BITMAP
0000
0000
0000
0000
0000
0000
3830
3870
38E0
39C0
7380
7700
7E00
7C00
7C00
7E00
E700
E380
E1C0
E0E0
0000
0000
0000
0000
ENDCHAR
STARTCHAR LATIN CAPITAL LETTER L
ENCODING 76
SWIDTH 480 0
DWIDTH 12 0
BBX 12 24 0 -4
BITMAP
0000
0000
0000
0000
0000
0000
3800
3800
3800
3800
7000
7000
7000
7000
7000
E000
E000
E000
FFE0
FFE0
0000
0000
0000
0000
ENDCHAR
STARTCHAR LATIN CAPITAL LETTER M
ENCODING 77
SWIDTH 480 0
DWIDTH 12 0
BBX 12 24 0 -4
BITMAP
0000
0000
0000
0000
0000
0000
3030
3870
3CF0
3FF0
77F0
73E0
70E0
70E0
70E0
E0E0
E1C0
E1C0
E1C0
E1C0
0000
0000
0000
0000
ENDCHAR
STARTCHAR LATIN CAPITAL LETTER N
ENCODING 78
SWIDTH 480 0
DWIDTH 12 0
BBX 12 24 0 -4
BITMAP
0000
0000
0000
0000
0000
0000
3870
3870
3870
3870
7C70
7EE0
77E0
73E0
71E0
E0E0
E1C0
E1C0
E1C0
E1C0
0000
0000
0000
0000
ENDCHAR
STARTCHAR LATIN CAPITAL LETTER O
ENCODING 79
SWIDTH 480 0
DWIDTH 12 0
BBX 12 24 0 -4
BITMAP
0000
0000
0000
0000
0000
0000
0FC0
1FE0
3870
3870
7070
7070
70E0
70E0
E0E0
E0E0
E1C0
E1C0
7F80
3F00
0000
0000
0000
0000
ENDCHAR
STARTCHAR LATIN CAPITAL LETTER P
ENCODING 80
SWIDTH 480 0
DWIDTH 12 0
BBX 12 24 0 -4
BITMAP
0000
0000
0000
0000
0000
0000
3FC0
3FE0
3870
3870
7070
70E0
70E0
70E0
7FC0
FF80
E000
E000
E000
E000
0000
0000
0000
0000
ENDCHAR
STARTCHAR LATIN CAPITAL LETTER Q
ENCODING 81
SWIDTH 480 0
DWIDTH 12 0
BBX 12 24 0 -4
BITMAP
0000
0000
0000
0000
0000
0000
0FC0
1FE0
3870
3870
7070
7070
70E0
70E0
EEE0
E760
E380
E1C0
7EE0
3F70
0000
0000
0000
0000
ENDCHAR
STARTCHAR LATIN CAPITAL LETTER R
ENCODING 82
SWIDTH 480 0
DWIDTH 12 0
BBX 12 24 0 -4
BITMAP
0000
0000
0000
0000
0000
0000
3FC0
3FE0
3870
3870
7070
70E0
70E0
70E0
7FC0
FF80
E700
E380
E1C0
E0E0
0000
0000
0000
0000
ENDCHAR
STARTCHAR LATIN CAPITAL LETTER S
ENCODING 83
SWIDTH 480 0
DWIDTH 12 0
BBX 12 24 0 -4
BITMAP
0000
0000
0000
0000
0000
0000
0FF0
1FF0
3800
3800
7000
7000
3FC0
1FE0
0070
0070
00E0
00E0
FFC0
FF80
0000
0000
0000
0000
ENDCHAR
STARTCHAR LATIN CAPITAL LETTER T
ENCODING 84
SWIDTH 480 0
DWIDTH 12 0
BBX 12 24 0 -4
BITMAP
0000
0000
0000
0000
0000
0000
7FF0
7FF0
0700
0700
0700
0E00
0E00
0E00
0E00
1C00
1C00
1C00
1C00
1C00
0000
0000
0000
0000
ENDCHAR
STARTCHAR LATIN CAPITAL LETTER U
ENCODING 85
SWIDTH 480 0
DWIDTH 12 0
BBX 12 24 0 -4
BITMAP
0000
0000
0000
0000
0000
0000
3870
3870
3870
3870
7070
70E0
70E0
70E0
70E0
E0E0
E1C0
E1C0
7F80
3F00
0000
0000
0000
0000
ENDCHAR
STARTCHAR LATIN CAPITAL LETTER V
ENCODING 86
SWIDTH 480 0
DWIDTH 12 0
BBX 12 24 0 -4
BITMAP
0000
0000
0000
0000
0000
0000
7070
7070
7070
70E0
70E0
70E0
39C0
39C0
39C0
3B80
3B80
3B80
1F00
0E00
0000
0000
0000
0000
ENDCHAR
STARTCHAR LATIN CAPITAL LETTER W
ENCODING 87
SWIDTH 480 0
DWIDTH 12 0
BBX 12 24 0 -4
BITMAP
0000
0000
0000
0000
0000
0000
3870
3870
3870
3870
7070
70E0
70E0
70E0
7CE0
FEE0
FFC0
F3C0
E1C0
C0C0
0000
0000
0000
0000
ENDCHAR
STARTCHAR LATIN CAPITAL LETTER X
ENCODING 88
SWIDTH 480 0
DWIDTH 12 0
BBX 12 24 0 -4
BITMAP
0000
0000
0000
0000
0000
0000
3870
3870
3870
1CE0
0FC0
0780
0700
0F00
1F00
3B80
71C0
E0E0
E0E0
E0E0
0000
0000
0000
0000
ENDCHAR
STARTCHAR LATIN CAPITAL LETTER Y
ENCODING 89
SWIDTH 480 0
DWIDTH 12 0
BBX 12 24 0 -4
BITMAP
0000
0000
0000
0000
0000
0000
E070
E070
E070
E0E0
71C0
3B80
1F00
1E00
1C00
1C00
1C00
3800
3800
3800
0000
0000
0000
0000
ENDCHAR
STARTCHAR LATIN CAPITAL LETTER Z
ENCODING 90
SWIDTH 480 0
DWIDTH 12 0
BBX 12 24 0 -4
BITMAP
0000
0000
0000
0000
0000
0000
3FF0
3FF0
0070
0070
00E0
01C0
0780
1E00
3800
7000
E000
E000
FFC0
FFC0
0000
0000
0000
0000
ENDCHAR
STARTCHAR LEFT SQUARE BRACKET
ENCODING 91
SWIDTH 480 0
DWIDTH 12 0
BBX 12 24 0 -4
BITMAP
0000
0000
03E0
03E0
0380
0380
0380
0380
0700
0700
0700
0700
0700
0E00
0E00
0E00
0E00
0E00
1C00
1C00
1C00
1C00
1F00
1F00
ENDCHAR
STARTCHAR REVERSE SOLIDUS
ENCODING 92
SWIDTH 480 0
DWIDTH 12 0
BBX 12 24 0 -4
BITMAP
0000
0000
0000
0000
3800
3800
3800
1C00
1C00
1C00
0E00
0E00
0E00
0700
0700
0700
0380
0380
0380
01C0
01C0
01C0
0000
0000
ENDCHAR
STARTCHAR RIGHT SQUARE BRACKET
ENCODING 93
SWIDTH 480 0
DWIDTH 12 0
BBX 12 24 0 -4
BITMAP
0000
0000
0F80
0F80
0380
0380
0380
0380
0700
0700
0700
0700
0700
0E00
0E00
0E00
0E00
0E00
1C00
1C00
1C00
1C00
7C00
7C00
ENDCHAR
STARTCHAR CIRCUMFLEX ACCENT
ENCODING 94
SWIDTH 480 0
DWIDTH 12 0
BBX 12 24 0 -4
BITMAP
0000
0000
0000
0000
0380
07C0
0FC0
1CE0
38E0
0000
0000
0000
0000
0000
0000
0000
0000
0000
0000
0000
0000
0000
0000
0000
ENDCHAR
STARTCHAR LOW LINE
ENCODING 95
SWIDTH 480 0
DWIDTH 12 0
BBX 12 24 0 -4
BITMAP
0000
0000
0000
0000
0000
0000
0000
0000
0000
0000
0000
0000
0000
0000
0000
0000
0000
0000
0000
0000
3FF0
7FE0
FFC0
0000
ENDCHAR
STARTCHAR GRAVE ACCENT
ENCODING 96
SWIDTH 480 0
DWIDTH 12 0
BBX 12 24 0 -4
BITMAP
0000
0000
0000
0000
0E00
0E00
0700
0700
0380
0000
0000
0000
0000
0000
0000
0000
0000
0000
0000
0000
0000
0000
0000
0000
ENDCHAR
STARTCHAR LATIN SMALL LETTER A
ENCODING 97
SWIDTH 480 0
DWIDTH 12 0
BBX 12 24 0 -4
BITMAP
0000
0000
0000
0000
0000
0000
0000
0000
0000
0000
1FF0
3FF0
7070
7070
E070
E070
E0E0
E0E0
7FE0
3FE0
0000
0000
0000
0000
ENDCHAR
STARTCHAR LATIN SMALL LETTER B
ENCODING 98
SWIDTH 480 0
DWIDTH 12 0
BBX 12 24 0 -4
BITMAP
0000
0000
0000
0000
3800
3800
3800
3800
7000
7000
7FC0
7FE0
7070
7070
E070
E070
E0E0
E0E0
FFC0
FF80
0000
0000
0000
0000
ENDCHAR
STARTCHAR LATIN SMALL LETTER C
ENCODING 99
SWIDTH 480 0
DWIDTH 12 0
BBX 12 24 0 -4
BITMAP
0000
0000
0000
0000
0000
0000
0000
0000
0000
0000
1FF0
3FF0
7000
7000
E000
E000
E000
E000
7FE0
3FE0
0000
0000
0000
0000
ENDCHAR
STARTCHAR LATIN SMALL LETTER D
ENCODING 100
SWIDTH 480 0
DWIDTH 12 0
BBX 12 24 0 -4
BITMAP
0000
0000
0000
0000
0070
0070
0070
0070
0070
0070
1FF0
3FE0
70E0
70E0
E0E0
E0E0
E1C0
E1C0
7FC0
3FC0
0000
0000
0000
0000
ENDCHAR
STARTCHAR LATIN SMALL LETTER E
ENCODING 101
SWIDTH 480 0
DWIDTH 12 0
BBX 12 24 0 -4
BITMAP
0000
0000
0000
0000
0000
0000
0000
0000
0000
0000
1FC0
3FE0
7070
7070
FFE0
FFC0
E000
E000
7F80
3F80
0000
0000
0000
0000
ENDCHAR
STARTCHAR LATIN SMALL LETTER F
ENCODING 102
SWIDTH 480 0
DWIDTH 12 0
BBX 12 24 0 -4
BITMAP
0000
0000
0000
0000
00F0
01F0
0380
0380
0700
0700
0700
3FE0
3FE0
0700
0E00
0E00
0E00
0E00
0E00
0E00
1C00
1C00
F800
F000
ENDCHAR
STARTCHAR LATIN SMALL LETTER G
ENCODING 103
SWIDTH 480 0
DWIDTH 12 0
BBX 12 24 0 -4
BITMAP
0000
0000
0000
0000
0000
0000
0000
0000
0000
0000
1FE0
3FF0
7070
7070
E070
E070
E0E0
E0E0
7FE0
3FE0
00E0
01C0
3FC0
3F00
ENDCHAR
STARTCHAR LATIN SMALL LETTER H
ENCODING 104
SWIDTH 480 0
DWIDTH 12 0
BBX 12 24 0 -4
BITMAP
0000
0000
0000
0000
3800
3800
3800
3800
7000
7000
7FC0
7FE0
7070
7070
E070
E070
E0E0
E0E0
E0E0
E0E0
0000
0000
0000
0000
ENDCHAR
STARTCHAR LATIN SMALL LETTER I
ENCODING 105
SWIDTH 480 0
DWIDTH 12 0
BBX 12 24 0 -4
BITMAP
0000
0000
0000
0000
0000
0380
0380
0380
0000
0000
0700
0700
0700
0700
0E00
0E00
0E00
0E00
0E00
0700
0000
0000
0000
0000
ENDCHAR
STARTCHAR LATIN SMALL LETTER J
ENCODING 106
SWIDTH 480 0
DWIDTH 12 0
BBX 12 24 0 -4
BITMAP
0000
0000
0000
0000
0000
01C0
01C0
01C0
0000
0000
0380
0380
0380
0380
0380
0700
0700
0700
0700
0700
0E00
0E00
1C00
3800
ENDCHAR
STARTCHAR LATIN SMALL LETTER K
ENCODING 107
SWIDTH 480 0
DWIDTH 12 0
BBX 12 24 0 -4
BITMAP
0000
0000
0000
0000
1C00
1C00
1C00
1C00
3800
3800
38E0
39C0
3B80
3F00
7E00
7C00
7E00
7700
7380
71C0
0000
0000
0000
0000
ENDCHAR
STARTCHAR LATIN SMALL LETTER L
ENCODING 108
SWIDTH 480 0
DWIDTH 12 0
BBX 12 24 0 -4
BITMAP
0000
0000
0000
0000
0E00
0E00
0E00
0E00
0E00
1C00
1C00
1C00
1C00
1C00
1C00
3800
3800
3800
1F80
0F80
0000
0000
0000
0000
ENDCHAR
STARTCHAR LATIN SMALL LETTER M
ENCODING 109
SWIDTH 480 0
DWIDTH 12 0
BBX 12 24 0 -4
BITMAP
0000
0000
0000
0000
0000
0000
0000
0000
0000
0000
7DC0
7FE0
7770
7770
E770
EE70
EEE0
EEE0
E0E0
E0E0
0000
0000
0000
0000
ENDCHAR
STARTCHAR LATIN SMALL LETTER N
ENCODING 110
SWIDTH 480 0
DWIDTH 12 0
BBX 12 24 0 -4
BITMAP
0000
0000
0000
0000
0000
0000
0000
0000
0000
0000
7FC0
7FE0
7070
7070
E070
E070
E0E0
E0E0
E0E0
E0E0
0000
0000
0000
0000
ENDCHAR
STARTCHAR LATIN SMALL LETTER O
ENCODING 111
SWIDTH 480 0
DWIDTH 12 0
BBX 12 24 0 -4
BITMAP
0000
0000
0000
0000
0000
0000
0000
0000
0000
0000
1FC0
3FE0
7070
7070
E070
E070
E0E0
E0E0
7FC0
3F80
0000
0000
0000
0000
ENDCHAR
STARTCHAR LATIN SMALL LETTER P
ENCODING 112
SWIDTH 480 0
DWIDTH 12 0
BBX 12 24 0 -4
BITMAP
0000
0000
0000
0000
0000
0000
0000
0000
0000
0000
3FC0
3FE0
3870
3870
7070
7070
70E0
70E0
7FC0
FF80
E000
E000
E000
E000
ENDCHAR
STARTCHAR LATIN SMALL LETTER Q
ENCODING 113
SWIDTH 480 0
DWIDTH 12 0
BBX 12 24 0 -4
BITMAP
0000
0000
0000
0000
0000
0000
0000
0000
0000
0000
1FF0
3FF0
7070
7070
E070
E070
E0E0
E0E0
7FE0
3FE0
00E0
00E0
01C0
01C0
ENDCHAR
STARTCHAR LATIN SMALL LETTER R
ENCODING 114
SWIDTH 480 0
DWIDTH 12 0
BBX 12 24 0 -4
BITMAP
0000
0000
0000
0000
0000
0000
0000
0000
0000
0000
77F0
7FF0
7C00
7000
E000
E000
E000
E000
E000
E000
0000
0000
0000
0000
ENDCHAR
STARTCHAR LATIN SMALL LETTER S
ENCODING 115
SWIDTH 480 0
DWIDTH 12 0
BBX 12 24 0 -4
BITMAP
0000
0000
0000
0000
0000
0000
0000
0000
0000
0000
1FF0
3FF0
7000
7000
3F80
1FC0
00E0
00E0
FFC0
FF80
0000
0000
0000
0000
ENDCHAR
STARTCHAR LATIN SMALL LETTER T
ENCODING 116
SWIDTH 480 0
DWIDTH 12 0
BBX 12 24 0 -4
BITMAP
0000
0000
0000
0000
0700
0700
0700
0700
0E00
0E00
3F80
3F80
0E00
0E00
1C00
1C00
1C00
1C00
0FC0
07C0
0000
0000
0000
0000
ENDCHAR
STARTCHAR LATIN SMALL LETTER U
ENCODING 117
SWIDTH 480 0
DWIDTH 12 0
BBX 12 24 0 -4
BITMAP
0000
0000
0000
0000
0000
0000
0000
0000
0000
0000
7070
7070
7070
7070
E070
E070
E0E0
E0E0
7FE0
3FE0
0000
0000
0000
0000
ENDCHAR
STARTCHAR LATIN SMALL LETTER V
ENCODING 118
SWIDTH 480 0
DWIDTH 12 0
BBX 12 24 0 -4
BITMAP
0000
0000
0000
0000
0000
0000
0000
0000
0000
0000
7070
7070
7070
70E0
70E0
39C0
3B80
3F00
3E00
1C00
0000
0000
0000
0000
ENDCHAR
STARTCHAR LATIN SMALL LETTER W
ENCODING 119
SWIDTH 480 0
DWIDTH 12 0
BBX 12 24 0 -4
BITMAP
0000
0000
0000
0000
0000
0000
0000
0000
0000
0000
7070
7070
7070
7470
EE70
FF70
FBE0
F1E0
E0E0
C060
0000
0000
0000
0000
ENDCHAR
STARTCHAR LATIN SMALL LETTER X
ENCODING 120
SWIDTH 480 0
DWIDTH 12 0
BBX 12 24 0 -4
BITMAP
0000
0000
0000
0000
0000
0000
0000
0000
0000
0000
7070
38E0
1DC0
0F80
0700
0E00
1F00
3B80
71C0
E0E0
0000
0000
0000
0000
ENDCHAR
STARTCHAR LATIN SMALL LETTER Y
ENCODING 121
SWIDTH 480 0
DWIDTH 12 0
BBX 12 24 0 -4
BITMAP
0000
0000
0000
0000
0000
0000
0000
0000
0000
0000
7070
7070
7070
7070
E070
E070
E0E0
E0E0
7FE0
3FE0
00E0
01C0
3FC0
3F00
ENDCHAR
STARTCHAR LATIN SMALL LETTER Z
ENCODING 122
SWIDTH 480 0
DWIDTH 12 0
BBX 12 24 0 -4
BITMAP
0000
0000
0000
0000
0000
0000
0000
0000
0000
0000
7FF0
7FF0
00E0
03C0
0780
1E00
3C00
7000
FFE0
FFE0
0000
0000
0000
0000
ENDCHAR
STARTCHAR LEFT CURLY BRACKET
ENCODING 123
SWIDTH 480 0
DWIDTH 12 0
BBX 12 24 0 -4
BITMAP
0000
0000
00E0
01C0
0380
0380
0380
0380
0700
0700
0700
0E00
3C00
3C00
0E00
0E00
0E00
0E00
1C00
1C00
1C00
1C00
0E00
0700
ENDCHAR
STARTCHAR VERTICAL LINE
ENCODING 124
SWIDTH 480 0
DWIDTH 12 0
BBX 12 24 0 -4
BITMAP
0380
0380
0380
0380
0380
0380
0380
0380
0700
0700
0700
0700
0700
0700
0700
0700
0E00
0E00
0E00
0E00
0E00
0E00
0E00
0E00
ENDCHAR
STARTCHAR RIGHT CURLY BRACKET
ENCODING 125
SWIDTH 480 0
DWIDTH 12 0
BBX 12 24 0 -4
BITMAP
0000
0000
0E00
0700
0380
0380
0380
0700
0700
0700
0700
0700
03C0
03C0
0700
0E00
0E00
0E00
1C00
1C00
1C00
1C00
3800
7000
ENDCHAR
STARTCHAR TILDE
ENCODING 126
SWIDTH 480 0
DWIDTH 12 0
BBX 12 24 0 -4
BITMAP
0000
0000
0000
0000
0000
0000
0000
0000
0000
0000
0000
0000
1EE0
3F70
77E0
3BC0
0000
0000
0000
0000
0000
0000
0000
0000
ENDCHAR
STARTCHAR NO-BREAK SPACE
ENCODING 160
SWIDTH 480 0
DWIDTH 12 0
BBX 12 24 0 -4
BITMAP
0000
0000
0000
0000
0000
0000
0000
0000
0000
0000
0000
0000
0000
0000
0000
0000
0000
0000
0000
0000
0000
0000
0000
0000
ENDCHAR
STARTCHAR INVERTED EXCLAMATION MARK
ENCODING 161
SWIDTH 480 0
DWIDTH 12 0
BBX 12 24 0 -4
BITMAP
0000
0000
0000
0000
0000
0000
0000
0000
0000
0000
0380
0380
0380
0000
0000
0700
0700
0700
0700
0E00
0E00
0E00
0E00
0E00
ENDCHAR
STARTCHAR CENT SIGN
ENCODING 162
SWIDTH 480 0
DWIDTH 12 0
BBX 12 24 0 -4
BITMAP
0000
0000
0000
0000
0000
0000
0000
01C0
01C0
01C0
1FF0
3FF0
7000
7000
E000
E000
E000
E000
7FE0
3FE0
0E00
0E00
0E00
0000
ENDCHAR
STARTCHAR POUND SIGN
ENCODING 163
SWIDTH 480 0
DWIDTH 12 0
BBX 12 24 0 -4
BITMAP
0000
0000
0000
0000
0000
0000
03F0
07F0
0E00
0E00
1C00
1C00
7F00
7F00
1C00
3800
3800
3800
FFE0
FFE0
0000
0000
0000
0000
ENDCHAR
STARTCHAR CURRENCY SIGN
ENCODING 164
SWIDTH 480 0
DWIDTH 12 0
BBX 12 24 0 -4
BITMAP
0000
0000
0000
0000
0000
0000
0000
0000
7070
38E0
3FE0
1FC0
39C0
39C0
3F80
7FC0
71C0
E0E0
0000
0000
0000
0000
0000
0000
ENDCHAR
STARTCHAR YEN SIGN
ENCODING 165
SWIDTH 480 0
DWIDTH 12 0
BBX 12 24 0 -4
BITMAP
0000
0000
0000
0000
0000
0000
E070
E070
E070
E0E0
71C0
3B80
1F00
1E00
FF80
1C00
FF80
3800
3800
3800
0000
0000
0000
0000
ENDCHAR
STARTCHAR BROKEN BAR
ENCODING 166
SWIDTH 480 0
DWIDTH 12 0
BBX 12 24 0 -4
BITMAP
0380
0380
0380
0380
0380
0380
0380
0380
0380
0380
0000
0000
0000
0000
0E00
0E00
0E00
0E00
0E00
0E00
0E00
0E00
0E00
0E00
ENDCHAR
STARTCHAR SECTION SIGN
ENCODING 167
SWIDTH 480 0
DWIDTH 12 0
BBX 12 24 0 -4
BITMAP
0000
0000
07F0
0FF0
1C00
1C00
3800
3800
1FC0
1FE0
3870
3870
7070
7070
70E0
70E0
3FC0
1FC0
00E0
00E0
01C0
01C0
FF80
FF00
ENDCHAR
STARTCHAR DIAERESIS
ENCODING 168
SWIDTH 480 0
DWIDTH 12 0
BBX 12 24 0 -4
BITMAP
0000
0E70
0E70
0E70
0000
0000
0000
0000
0000
0000
0000
0000
0000
0000
0000
0000
0000
0000
0000
0000
0000
0000
0000
0000
ENDCHAR
STARTCHAR COPYRIGHT SIGN
ENCODING 169
SWIDTH 480 0
DWIDTH 12 0
BBX 12 24 0 -4
BITMAP
0000
0000
0000
0000
0000
0F80
1FC0
38E0
7070
77F0
7FF0
7C70
FC70
F870
F8E0
FFE0
EFE0
E0E0
71C0
3F80
1F00
0000
0000
0000
ENDCHAR
STARTCHAR FEMININE ORDINAL INDICATOR
ENCODING 170
SWIDTH 480 0
DWIDTH 12 0
BBX 12 24 0 -4
BITMAP
0000
0000
0000
0000
1FF0
3FF0
7070
7070
E070
E070
E0E0
E0E0
7FE0
3FE0
0000
0000
0000
0000
0000
0000
0000
0000
0000
0000
ENDCHAR
STARTCHAR LEFT-POINTING DOUBLE ANGLE QUOTATION MARK
ENCODING 171
SWIDTH 480 0
DWIDTH 12 0
BBX 12 24 0 -4
BITMAP
0000
0000
0000
0000
0000
0000
0000
0000
0770
0EE0
1DC0
3B80
7700
EE00
EE00
7700
3B80
1DC0
0000
0000
0000
0000
0000
0000
ENDCHAR
STARTCHAR NOT SIGN
ENCODING 172
SWIDTH 480 0
DWIDTH 12 0
BBX 12 24 0 -4
BITMAP
0000
0000
0000
0000
0000
0000
0000
0000
0000
0000
0000
0000
3FF0
7FE0
01C0
0380
0700
0000
0000
0000
0000
0000
0000
0000
ENDCHAR
STARTCHAR SOFT HYPHEN
ENCODING 173
SWIDTH 480 0
DWIDTH 12 0
BBX 12 24 0 -4
BITMAP
0000
0000
0000
0000
0000
0000
0000
0000
0000
0000
0000
0000
0FC0
1F80
3F00
0000
0000
0000
0000
0000
0000
0000
0000
0000
ENDCHAR
STARTCHAR REGISTERED SIGN
ENCODING 174
SWIDTH 480 0
DWIDTH 12 0
BBX 12 24 0 -4
BITMAP
0000
0F80
1FC0
38E0
7070
7E70
7F70
7BF0
FBF0
FF70
FEE0
F7E0
F3E0
E0E0
71C0
3F80
1F00
0000
0000
0000
0000
0000
0000
0000
ENDCHAR
STARTCHAR MACRON
ENCODING 175
SWIDTH 480 0
DWIDTH 12 0
BBX 12 24 0 -4
BITMAP
0000
0000
0000
1FF0
3FE0
7FC0
0000
0000
0000
0000
0000
0000
0000
0000
0000
0000
0000
0000
0000
0000
0000
0000
0000
0000
ENDCHAR
STARTCHAR DEGREE SIGN
ENCODING 176
SWIDTH 480 0
DWIDTH 12 0
BBX 12 24 0 -4
BITMAP
0000
0000
0000
0000
0000
0000
0780
0FC0
1DC0
1DC0
1F80
0F00
0000
0000
0000
0000
0000
0000
0000
0000
0000
0000
0000
0000
ENDCHAR
STARTCHAR PLUS-MINUS SIGN
ENCODING 177
SWIDTH 480 0
DWIDTH 12 0
BBX 12 24 0 -4
BITMAP
0000
0000
0000
0000
0000
0000
0380
0380
0380
0700
7FF0
7FF0
0700
0E00
0E00
0E00
0000
3FE0
7FC0
FF80
0000
0000
0000
0000
ENDCHAR
STARTCHAR SUPERSCRIPT TWO
ENCODING 178
SWIDTH 480 0
DWIDTH 12 0
BBX 12 24 0 -4
BITMAP
3FC0
3FE0
0070
0070
0070
0070
00E0
01C0
0780
1F00
3C00
7000
FFE0
FFE0
0000
0000
0000
0000
0000
0000
0000
0000
0000
0000
ENDCHAR
STARTCHAR SUPERSCRIPT THREE
ENCODING 179
SWIDTH 480 0
DWIDTH 12 0
BBX 12 24 0 -4
BITMAP
3FC0
3FE0
0070
0070
00E0
00E0
0FC0
0FC0
00E0
00E0
01C0
01C0
FF80
FF00
0000
0000
0000
0000
0000
0000
0000
0000
0000
0000
ENDCHAR
STARTCHAR ACUTE ACCENT
ENCODING 180
SWIDTH 480 0
DWIDTH 12 0
BBX 12 24 0 -4
BITMAP
0000
0000
0000
0000
00E0
01C0
0780
0E00
1C00
0000
0000
0000
0000
0000
0000
0000
0000
0000
0000
0000
0000
0000
0000
0000
ENDCHAR
STARTCHAR MICRO SIGN
ENCODING 181
SWIDTH 480 0
DWIDTH 12 0
BBX 12 24 0 -4
BITMAP
0000
0000
0000
0000
0000
0000
0000
0000
0000
0000
3870
3870
3870
3870
7070
7070
70E0
70E0
7FC0
7F80
E000
E000
E000
E000
ENDCHAR
STARTCHAR PILCROW SIGN
ENCODING 182
SWIDTH 480 0
DWIDTH 12 0
BBX 12 24 0 -4
BITMAP
0000
0000
0000
0000
1FF0
3FF0
7F70
7F70
FF70
FE70
FEE0
FEE0
7EE0
3EE0
0EE0
1CE0
1DC0
1DC0
1DC0
1DC0
0000
0000
0000
0000
ENDCHAR
STARTCHAR MIDDLE DOT
ENCODING 183
SWIDTH 480 0
DWIDTH 12 0
BBX 12 24 0 -4
BITMAP
0000
0000
0000
0000
0000
0000
0000
0000
0000
0000
0000
0E00
0E00
0E00
0000
0000
0000
0000
0000
0000
0000
0000
0000
0000
ENDCHAR
STARTCHAR CEDILLA
ENCODING 184
SWIDTH 480 0
DWIDTH 12 0
BBX 12 24 0 -4
BITMAP
0000
0000
0000
0000
0000
0000
0000
0000
0000
0000
0000
0000
0000
0000
0000
0000
0000
0000
0000
0400
0700
0380
3F80
1F00
ENDCHAR
STARTCHAR SUPERSCRIPT ONE
ENCODING 185
SWIDTH 480 0
DWIDTH 12 0
BBX 12 24 0 -4
BITMAP
0060
00E0
01E0
03E0
07E0
0FC0
01C0
01C0
01C0
0380
0380
0380
0380
0380
0000
0000
0000
0000
0000
0000
0000
0000
0000
0000
ENDCHAR
STARTCHAR MASCULINE ORDINAL INDICATOR
ENCODING 186
SWIDTH 480 0
DWIDTH 12 0
BBX 12 24 0 -4
BITMAP
0000
0000
0000
0000
1FC0
3FE0
7070
7070
E070
E070
E0E0
E0E0
7FC0
3F80
0000
0000
0000
0000
0000
0000
0000
0000
0000
0000
ENDCHAR
STARTCHAR RIGHT-POINTING DOUBLE ANGLE QUOTATION MARK
ENCODING 187
SWIDTH 480 0
DWIDTH 12 0
BBX 12 24 0 -4
BITMAP
0000
0000
0000
0000
0000
0000
0000
0000
3B80
1DC0
0EE0
0770
0770
0EE0
1DC0
3B80
7700
EE00
0000
0000
0000
0000
0000
0000
ENDCHAR
STARTCHAR VULGAR FRACTION ONE QUARTER
ENCODING 188
SWIDTH 480 0
DWIDTH 12 0
BBX 12 24 0 -4
BITMAP
0600
0E00
1E00
3E00
7E00
FC00
1C00
1C00
1C00
3800
3870
38F0
39F0
3BB0
0730
0E70
1C70
3870
7FF0
FFF0
00E0
00E0
00E0
00E0
ENDCHAR
STARTCHAR VULGAR FRACTION ONE HALF
ENCODING 189
SWIDTH 480 0
DWIDTH 12 0
BBX 12 24 0 -4
BITMAP
0600
0E00
1E00
3E00
7E00
FC00
1C00
1C00
1C00
3800
3FE0
3FF0
3870
3870
0070
0070
0070
00E0
01E0
07C0
0F00
1C00
3FE0
3FE0
ENDCHAR
STARTCHAR VULGAR FRACTION THREE QUARTERS
ENCODING 190
SWIDTH 480 0
DWIDTH 12 0
BBX 12 24 0 -4
BITMAP
FF00
FF80
01C0
01C0
0380
0380
3F00
3F00
0380
0380
0730
0770
FEF0
FDF0
03F0
0770
0E70
1C70
3FF0
3FF0
00E0
00E0
00E0
00E0
ENDCHAR
STARTCHAR INVERTED QUESTION MARK
ENCODING 191
SWIDTH 480 0
DWIDTH 12 0
BBX 12 24 0 -4
BITMAP
0000
0000
0000
0000
0000
0000
0000
0000
0000
0000
0380
0380
0380
0000
0000
0700
0E00
1C00
3800
7000
7000
7000
3FF0
1FF0
ENDCHAR
STARTCHAR LATIN CAPITAL LETTER A WITH GRAVE
ENCODING 192
SWIDTH 480 0
DWIDTH 12 0
BBX 12 24 0 -4
BITMAP
1C00
0E00
0700
0380
0000
0000
0FC0
1FE0
3870
3870
7070
70E0
70E0
70E0
7FE0
FFE0
E1C0
E1C0
E1C0
E1C0
0000
0000
0000
0000
ENDCHAR
STARTCHAR LATIN CAPITAL LETTER A WITH ACUTE
ENCODING 193
SWIDTH 480 0
DWIDTH 12 0
BBX 12 24 0 -4
BITMAP
0070
00E0
01C0
0380
0000
0000
0FC0
1FE0
3870
3870
7070
70E0
70E0
70E0
7FE0
FFE0
E1C0
E1C0
E1C0
E1C0
0000
0000
0000
0000
ENDCHAR
STARTCHAR LATIN CAPITAL LETTER A WITH CIRCUMFLEX
ENCODING 194
SWIDTH 480 0
DWIDTH 12 0
BBX 12 24 0 -4
BITMAP
0380
07C0
0EE0
1C70
0000
0000
0FC0
1FE0
3870
3870
7070
70E0
70E0
70E0
7FE0
FFE0
E1C0
E1C0
E1C0
E1C0
0000
0000
0000
0000
ENDCHAR
STARTCHAR LATIN CAPITAL LETTER A WITH TILDE
ENCODING 195
SWIDTH 480 0
DWIDTH 12 0
BBX 12 24 0 -4
BITMAP
0E70
1F70
3BE0
39C0
0000
0000
0FC0
1FE0
3870
3870
7070
70E0
70E0
70E0
7FE0
FFE0
E1C0
E1C0
E1C0
E1C0
0000
0000
0000
0000
ENDCHAR
STARTCHAR LATIN CAPITAL LETTER A WITH DIAERESIS
ENCODING 196
SWIDTH 480 0
DWIDTH 12 0
BBX 12 24 0 -4
BITMAP
0000
0E70
0E70
0E70
0000
0000
0FC0
1FE0
3870
3870
7070
70E0
70E0
70E0
7FE0
FFE0
E1C0
E1C0
E1C0
E1C0
0000
0000
0000
0000
ENDCHAR
STARTCHAR LATIN CAPITAL LETTER A WITH RING ABOVE
ENCODING 197
SWIDTH 480 0
DWIDTH 12 0
BBX 12 24 0 -4
BITMAP
01C0
03E0
0770
03E0
01C0
0000
0FC0
1FE0
3870
3870
7070
70E0
70E0
70E0
7FE0
FFE0
E1C0
E1C0
E1C0
E1C0
0000
0000
0000
0000
ENDCHAR
STARTCHAR LATIN CAPITAL LETTER AE
ENCODING 198
SWIDTH 480 0
DWIDTH 12 0
BBX 12 24 0 -4
BITMAP
0000
0000
0000
0000
0000
0000
0FF0
1FF0
39C0
39C0
71C0
7380
73F0
73F0
7F80
FF00
E700
E700
E7F0
E7F0
0000
0000
0000
0000
ENDCHAR
STARTCHAR LATIN CAPITAL LETTER C WITH CEDILLA
ENCODING 199
SWIDTH 480 0
DWIDTH 12 0
BBX 12 24 0 -4
BITMAP
0000
0000
0000
0000
0000
0000
0FF0
1FF0
3800
3800
7000
7000
7000
7000
7000
E000
E000
E000
7FE0
3FE0
0700
0380
3F80
1F00
ENDCHAR
STARTCHAR LATIN CAPITAL LETTER E WITH GRAVE
ENCODING 200
SWIDTH 480 0
DWIDTH 12 0
BBX 12 24 0 -4
BITMAP
1C00
0E00
0700
0380
0000
0000
3FF0
3FF0
3800
3800
7000
7000
7F00
7F00
7000
E000
E000
E000
FFE0
FFE0
0000
0000
0000
0000
ENDCHAR
STARTCHAR LATIN CAPITAL LETTER E WITH ACUTE
ENCODING 201
SWIDTH 480 0
DWIDTH 12 0
BBX 12 24 0 -4
BITMAP
0070
00E0
01C0
0380
0000
0000
3FF0
3FF0
3800
3800
7000
7000
7F00
7F00
7000
E000
E000
E000
FFE0
FFE0
0000
0000
0000
0000
ENDCHAR
STARTCHAR LATIN CAPITAL LETTER E WITH CIRCUMFLEX
ENCODING 202
SWIDTH 480 0
DWIDTH 12 0
BBX 12 24 0 -4
BITMAP
0380
07C0
0EE0
1C70
0000
0000
3FF0
3FF0
3800
3800
7000
7000
7F00
7F00
7000
E000
E000
E000
FFE0
FFE0
0000
0000
0000
0000
ENDCHAR
STARTCHAR LATIN CAPITAL LETTER E WITH DIAERESIS
ENCODING 203
SWIDTH 480 0
DWIDTH 12 0
BBX 12 24 0 -4
BITMAP
0000
0E70
0E70
0E70
0000
0000
3FF0
3FF0
3800
3800
7000
7000
7F00
7F00
7000
E000
E000
E000
FFE0
FFE0
0000
0000
0000
0000
ENDCHAR
STARTCHAR LATIN CAPITAL LETTER I WITH GRAVE
ENCODING 204
SWIDTH 480 0
DWIDTH 12 0
BBX 12 24 0 -4
BITMAP
0E00
0700
0380
01C0
0000
0000
07E0
07E0
0380
0380
0380
0700
0700
0700
0700
0E00
0E00
0E00
3F00
3F00
0000
0000
0000
0000
ENDCHAR
STARTCHAR LATIN CAPITAL LETTER I WITH ACUTE
ENCODING 205
SWIDTH 480 0
DWIDTH 12 0
BBX 12 24 0 -4
BITMAP
0070
00E0
01C0
0380
0000
0000
07E0
07E0
0380
0380
0380
0700
0700
0700
0700
0E00
0E00
0E00
3F00
3F00
0000
0000
0000
0000
ENDCHAR
STARTCHAR LATIN CAPITAL LETTER I WITH CIRCUMFLEX
ENCODING 206
SWIDTH 480 0
DWIDTH 12 0
BBX 12 24 0 -4
BITMAP
0380
07C0
0EE0
1C70
0000
0000
07E0
07E0
0380
0380
0380
0700
0700
0700
0700
0E00
0E00
0E00
3F00
3F00
0000
0000
0000
0000
ENDCHAR
STARTCHAR LATIN CAPITAL LETTER I WITH DIAERESIS
ENCODING 207
SWIDTH 480 0
DWIDTH 12 0
BBX 12 24 0 -4
BITMAP
0000
0E70
0E70
0E70
0000
0000
07E0
07E0
0380
0380
0380
0700
0700
0700
0700
0E00
0E00
0E00
3F00
3F00
0000
0000
0000
0000
ENDCHAR
STARTCHAR LATIN CAPITAL LETTER ETH
ENCODING 208
SWIDTH 480 0
DWIDTH 12 0
BBX 12 24 0 -4
BITMAP
0000
0000
0000
0000
0000
0000
3FC0
3FE0
3870
3870
7070
70E0
FEE0
FEE0
70E0
E0E0
E1C0
E1C0
FF80
FF00
0000
0000
0000
0000
ENDCHAR
STARTCHAR LATIN CAPITAL LETTER N WITH TILDE
ENCODING 209
SWIDTH 480 0
DWIDTH 12 0
BBX 12 24 0 -4
BITMAP
0E70
1F70
3BE0
39C0
0000
0000
3870
3870
3870
3870
7C70
7EE0
77E0
73E0
71E0
E0E0
E1C0
E1C0
E1C0
E1C0
0000
0000
0000
0000
ENDCHAR
STARTCHAR LATIN CAPITAL LETTER O WITH GRAVE
ENCODING 210
SWIDTH 480 0
DWIDTH 12 0
BBX 12 24 0 -4
BITMAP
1C00
0E00
0700
0380
0000
0000
0FC0
1FE0
3870
3870
7070
7070
70E0
70E0
E0E0
E0E0
E1C0
E1C0
7F80
3F00
0000
0000
0000
0000
ENDCHAR
STARTCHAR LATIN CAPITAL LETTER O WITH ACUTE
ENCODING 211
SWIDTH 480 0
DWIDTH 12 0
BBX 12 24 0 -4
BITMAP
0070
00E0
01C0
0380
0000
0000
0FC0
1FE0
3870
3870
7070
7070
70E0
70E0
E0E0
E0E0
E1C0
E1C0
7F80
3F00
0000
0000
0000
0000
ENDCHAR
STARTCHAR LATIN CAPITAL LETTER O WITH CIRCUMFLEX
ENCODING 212
SWIDTH 480 0
DWIDTH 12 0
BBX 12 24 0 -4
BITMAP
0380
07C0
0EE0
1C70
0000
0000
0FC0
1FE0
3870
3870
7070
7070
70E0
70E0
E0E0
E0E0
E1C0
E1C0
7F80
3F00
0000
0000
0000
0000
ENDCHAR
STARTCHAR LATIN CAPITAL LETTER O WITH TILDE
ENCODING 213
SWIDTH 480 0
DWIDTH 12 0
BBX 12 24 0 -4
BITMAP
0E70
1F70
3BE0
39C0
0000
0000
0FC0
1FE0
3870
3870
7070
7070
70E0
70E0
E0E0
E0E0
E1C0
E1C0
7F80
3F00
0000
0000
0000
0000
ENDCHAR
STARTCHAR LATIN CAPITAL LETTER O WITH DIAERESIS
ENCODING 214
SWIDTH 480 0
DWIDTH 12 0
BBX 12 24 0 -4
BITMAP
0000
0E70
0E70
0E70
0000
0000
0FC0
1FE0
3870
3870
7070
7070
70E0
70E0
E0E0
E0E0
E1C0
E1C0
7F80
3F00
0000
0000
0000
0000
ENDCHAR
STARTCHAR MULTIPLICATION SIGN
ENCODING 215
SWIDTH 480 0
DWIDTH 12 0
BBX 12 24 0 -4
BITMAP
0000
0000
0000
0000
0000
0000
0000
0000
3060
78F0
3DE0
1FC0
0F80
1F00
3F80
7BC0
F1E0
60C0
0000
0000
0000
0000
0000
0000
ENDCHAR
STARTCHAR LATIN CAPITAL LETTER O WITH STROKE
ENCODING 216
SWIDTH 480 0
DWIDTH 12 0
BBX 12 24 0 -4
BITMAP
0000
0000
0000
0000
0000
0000
0FF0
1FF0
3870
38F0
73F0
7370
76E0
76E0
ECE0
FCE0
F1C0
E1C0
FF80
FF00
0000
0000
0000
0000
ENDCHAR
STARTCHAR LATIN CAPITAL LETTER U WITH GRAVE
ENCODING 217
SWIDTH 480 0
DWIDTH 12 0
BBX 12 24 0 -4
BITMAP
1C00
0E00
0700
0380
0000
0000
3870
3870
3870
3870
7070
70E0
70E0
70E0
70E0
E0E0
E1C0
E1C0
7F80
3F00
0000
0000
0000
0000
ENDCHAR
STARTCHAR LATIN CAPITAL LETTER U WITH ACUTE
ENCODING 218
SWIDTH 480 0
DWIDTH 12 0
BBX 12 24 0 -4
BITMAP
0070
00E0
01C0
0380
0000
0000
3870
3870
3870
3870
7070
70E0
70E0
70E0
70E0
E0E0
E1C0
E1C0
7F80
3F00
0000
0000
0000
0000
ENDCHAR
STARTCHAR LATIN CAPITAL LETTER U WITH CIRCUMFLEX
ENCODING 219
SWIDTH 480 0
DWIDTH 12 0
BBX 12 24 0 -4
BITMAP
0380
07C0
0EE0
1C70
0000
0000
3870
3870
3870
3870
7070
70E0
70E0
70E0
70E0
E0E0
E1C0
E1C0
7F80
3F00
0000
0000
0000
0000
ENDCHAR
STARTCHAR LATIN CAPITAL LETTER U WITH DIAERESIS
ENCODING 220
SWIDTH 480 0
DWIDTH 12 0
BBX 12 24 0 -4
BITMAP
0000
0E70
0E70
0E70
0000
0000
3870
3870
3870
3870
7070
70E0
70E0
70E0
70E0
E0E0
E1C0
E1C0
7F80
3F00
0000
0000
0000
0000
ENDCHAR
STARTCHAR LATIN CAPITAL LETTER Y WITH ACUTE
ENCODING 221
SWIDTH 480 0
DWIDTH 12 0
BBX 12 24 0 -4
BITMAP
0070
00E0
01C0
0380
0000
0000
7030
7030
7030
7070
38E0
1DC0
0F80
0F00
0E00
0E00
0E00
1C00
1C00
1C00
0000
0000
0000
0000
ENDCHAR
STARTCHAR LATIN CAPITAL LETTER THORN
ENCODING 222
SWIDTH 480 0
DWIDTH 12 0
BBX 12 24 0 -4
BITMAP
0000
0000
0000
0000
0000
0000
3800
3800
3FC0
3FE0
7070
7070
7070
70E0
70E0
E0E0
FFC0
FF80
E000
E000
0000
0000
0000
0000
ENDCHAR
STARTCHAR LATIN SMALL LETTER SHARP S
ENCODING 223
SWIDTH 480 0
DWIDTH 12 0
BBX 12 24 0 -4
BITMAP
0000
0000
0000
0000
0F00
1F80
39C0
39C0
71C0
71C0
7380
7700
7700
7380
E1C0
E0E0
E0E0
E8E0
EFC0
E780
0000
0000
0000
0000
ENDCHAR
STARTCHAR LATIN SMALL LETTER A WITH GRAVE
ENCODING 224
SWIDTH 480 0
DWIDTH 12 0
BBX 12 24 0 -4
BITMAP
0000
0000
0000
0000
1C00
0E00
0700
0380
0000
0000
1FF0
3FF0
7070
7070
E070
E070
E0E0
E0E0
7FE0
3FE0
0000
0000
0000
0000
ENDCHAR
STARTCHAR LATIN SMALL LETTER A WITH ACUTE
ENCODING 225
SWIDTH 480 0
DWIDTH 12 0
BBX 12 24 0 -4
BITMAP
0000
0000
0000
0000
0070
00E0
01C0
0380
0000
0000
1FF0
3FF0
7070
7070
E070
E070
E0E0
E0E0
7FE0
3FE0
0000
0000
0000
0000
ENDCHAR
STARTCHAR LATIN SMALL LETTER A WITH CIRCUMFLEX
ENCODING 226
SWIDTH 480 0
DWIDTH 12 0
BBX 12 24 0 -4
BITMAP
0000
0000
0000
0100
0380
07C0
0EE0
1C70
0000
0000
1FF0
3FF0
7070
7070
E070
E070
E0E0
E0E0
7FE0
3FE0
0000
0000
0000
0000
ENDCHAR
STARTCHAR LATIN SMALL LETTER A WITH TILDE
ENCODING 227
SWIDTH 480 0
DWIDTH 12 0
BBX 12 24 0 -4
BITMAP
0000
0000
0000
0000
0E70
1F70
3BE0
39C0
0000
0000
1FF0
3FF0
7070
7070
E070
E070
E0E0
E0E0
7FE0
3FE0
0000
0000
0000
0000
ENDCHAR
STARTCHAR LATIN SMALL LETTER A WITH DIAERESIS
ENCODING 228
SWIDTH 480 0
DWIDTH 12 0
BBX 12 24 0 -4
BITMAP
0000
0000
0000
0000
0000
1CE0
1CE0
1CE0
0000
0000
1FF0
3FF0
7070
7070
E070
E070
E0E0
E0E0
7FE0
3FE0
0000
0000
0000
0000
ENDCHAR
STARTCHAR LATIN SMALL LETTER A WITH RING ABOVE
ENCODING 229
SWIDTH 480 0
DWIDTH 12 0
BBX 12 24 0 -4
BITMAP
0000
0000
0380
07C0
0EE0
0EE0
07C0
0380
0000
0000
1FF0
3FF0
7070
7070
E070
E070
E0E0
E0E0
7FE0
3FE0
0000
0000
0000
0000
ENDCHAR
STARTCHAR LATIN SMALL LETTER AE
ENCODING 230
SWIDTH 480 0
DWIDTH 12 0
BBX 12 24 0 -4
BITMAP
0000
0000
0000
0000
0000
0000
0000
0000
0000
0000
1FE0
3FF0
7730
7730
E7F0
EFE0
EE00
EE00
7FE0
3FE0
0000
0000
0000
0000
ENDCHAR
STARTCHAR LATIN SMALL LETTER C WITH CEDILLA
ENCODING 231
SWIDTH 480 0
DWIDTH 12 0
BBX 12 24 0 -4
BITMAP
0000
0000
0000
0000
0000
0000
0000
0000
0000
0000
1FF0
3FF0
7000
7000
E000
E000
E000
E000
7FE0
3FE0
0700
0380
3F80
1F00
ENDCHAR
STARTCHAR LATIN SMALL LETTER E WITH GRAVE
ENCODING 232
SWIDTH 480 0
DWIDTH 12 0
BBX 12 24 0 -4
BITMAP
0000
0000
0000
0000
1C00
0E00
0700
0380
0000
0000
1FC0
3FE0
7070
7070
FFE0
FFC0
E000
E000
7F80
3F80
0000
0000
0000
0000
ENDCHAR
STARTCHAR LATIN SMALL LETTER E WITH ACUTE
ENCODING 233
SWIDTH 480 0
DWIDTH 12 0
BBX 12 24 0 -4
BITMAP
0000
0000
0000
0000
0070
00E0
01C0
0380
0000
0000
1FC0
3FE0
7070
7070
FFE0
FFC0
E000
E000
7F80
3F80
0000
0000
0000
0000
ENDCHAR
STARTCHAR LATIN SMALL LETTER E WITH CIRCUMFLEX
ENCODING 234
SWIDTH 480 0
DWIDTH 12 0
BBX 12 24 0 -4
BITMAP
0000
0000
0000
0100
0380
07C0
0EE0
1C70
0000
0000
1FC0
3FE0
7070
7070
FFE0
FFC0
E000
E000
7F80
3F80
0000
0000
0000
0000
ENDCHAR
STARTCHAR LATIN SMALL LETTER E WITH DIAERESIS
ENCODING 235
SWIDTH 480 0
DWIDTH 12 0
BBX 12 24 0 -4
BITMAP
0000
0000
0000
0000
0000
1CE0
1CE0
1CE0
0000
0000
1FC0
3FE0
7070
7070
FFE0
FFC0
E000
E000
7F80
3F80
0000
0000
0000
0000
ENDCHAR
STARTCHAR LATIN SMALL LETTER I WITH GRAVE
ENCODING 236
SWIDTH 480 0
DWIDTH 12 0
BBX 12 24 0 -4
BITMAP
0000
0000
0000
0000
1C00
0E00
0700
0380
0000
0000
0700
0700
0700
0700
0E00
0E00
0E00
0E00
0E00
0700
0000
0000
0000
0000
ENDCHAR
STARTCHAR LATIN SMALL LETTER I WITH ACUTE
ENCODING 237
SWIDTH 480 0
DWIDTH 12 0
BBX 12 24 0 -4
BITMAP
0000
0000
0000
0000
0070
00E0
01C0
0380
0000
0000
0700
0700
0700
0700
0E00
0E00
0E00
0E00
0E00
0700
0000
0000
0000
0000
ENDCHAR
STARTCHAR LATIN SMALL LETTER I WITH CIRCUMFLEX
ENCODING 238
SWIDTH 480 0
DWIDTH 12 0
BBX 12 24 0 -4
BITMAP
0000
0000
0000
0100
0380
07C0
0EE0
1C70
0000
0000
0700
0700
0700
0700
0E00
0E00
0E00
0E00
0E00
0700
0000
0000
0000
0000
ENDCHAR
STARTCHAR LATIN SMALL LETTER I WITH DIAERESIS
ENCODING 239
SWIDTH 480 0
DWIDTH 12 0
BBX 12 24 0 -4
BITMAP
0000
0000
0000
0000
0000
1CE0
1CE0
1CE0
0000
0000
0700
0700
0700
0700
0E00
0E00
0E00
0E00
0E00
0700
0000
0000
0000
0000
ENDCHAR
STARTCHAR LATIN SMALL LETTER ETH
ENCODING 240
SWIDTH 480 0
DWIDTH 12 0
BBX 12 24 0 -4
BITMAP
0000
0000
0E60
07E0
03C0
03C0
07E0
0E70
0070
0070
1FF0
3FF0
70E0
70E0
E0E0
E0E0
E1C0
E1C0
7F80
3F00
0000
0000
0000
0000
ENDCHAR
STARTCHAR LATIN SMALL LETTER N WITH TILDE
ENCODING 241
SWIDTH 480 0
DWIDTH 12 0
BBX 12 24 0 -4
BITMAP
0000
0000
0000
0000
0E70
1F70
3BE0
39C0
0000
0000
7FC0
7FE0
7070
7070
E070
E070
E0E0
E0E0
E0E0
E0E0
0000
0000
0000
0000
ENDCHAR
STARTCHAR LATIN SMALL LETTER O WITH GRAVE
ENCODING 242
SWIDTH 480 0
DWIDTH 12 0
BBX 12 24 0 -4
BITMAP
0000
0000
0000
0000
1C00
0E00
0700
0380
0000
0000
1FC0
3FE0
7070
7070
E070
E070
E0E0
E0E0
7FC0
3F80
0000
0000
0000
0000
ENDCHAR
STARTCHAR LATIN SMALL LETTER O WITH ACUTE
ENCODING 243
SWIDTH 480 0
DWIDTH 12 0
BBX 12 24 0 -4
BITMAP
0000
0000
0000
0000
0070
00E0
01C0
0380
0000
0000
1FC0
3FE0
7070
7070
E070
E070
E0E0
E0E0
7FC0
3F80
0000
0000
0000
0000
ENDCHAR
STARTCHAR LATIN SMALL LETTER O WITH CIRCUMFLEX
ENCODING 244
SWIDTH 480 0
DWIDTH 12 0
BBX 12 24 0 -4
BITMAP
0000
0000
0000
0100
0380
07C0
0EE0
1C70
0000
0000
1FC0
3FE0
7070
7070
E070
E070
E0E0
E0E0
7FC0
3F80
0000
0000
0000
0000
ENDCHAR
STARTCHAR LATIN SMALL LETTER O WITH TILDE
ENCODING 245
SWIDTH 480 0
DWIDTH 12 0
BBX 12 24 0 -4
BITMAP
0000
0000
0000
0000
0E70
1F70
3BE0
39C0
0000
0000
1FC0
3FE0
7070
7070
E070
E070
E0E0
E0E0
7FC0
3F80
0000
0000
0000
0000
ENDCHAR
STARTCHAR LATIN SMALL LETTER O WITH DIAERESIS
ENCODING 246
SWIDTH 480 0
DWIDTH 12 0
BBX 12 24 0 -4
BITMAP
0000
0000
0000
0000
0000
1CE0
1CE0
1CE0
0000
0000
1FC0
3FE0
7070
7070
E070
E070
E0E0
E0E0
7FC0
3F80
0000
0000
0000
0000
ENDCHAR
STARTCHAR DIVISION SIGN
ENCODING 247
SWIDTH 480 0
DWIDTH 12 0
BBX 12 24 0 -4
BITMAP
0000
0000
0000
0000
0000
0000
0380
0380
0380
0000
0000
1FF0
3FE0
7FC0
0000
0000
0E00
0E00
0E00
0000
0000
0000
0000
0000
ENDCHAR
STARTCHAR LATIN SMALL LETTER O WITH STROKE
ENCODING 248
SWIDTH 480 0
DWIDTH 12 0
BBX 12 24 0 -4
BITMAP
0000
0000
0000
0000
0000
0000
0000
0000
0000
0000
1FF0
3FE0
71F0
73F0
E770
EE70
FCE0
F8E0
7FC0
FF80
0000
0000
0000
0000
ENDCHAR
STARTCHAR LATIN SMALL LETTER U WITH GRAVE
ENCODING 249
SWIDTH 480 0
DWIDTH 12 0
BBX 12 24 0 -4
BITMAP
0000
0000
0000
0000
1C00
0E00
0700
0380
0000
0000
7070
7070
7070
7070
E070
E070
E0E0
E0E0
7FE0
3FE0
0000
0000
0000
0000
ENDCHAR
STARTCHAR LATIN SMALL LETTER U WITH ACUTE
ENCODING 250
SWIDTH 480 0
DWIDTH 12 0
BBX 12 24 0 -4
BITMAP
0000
0000
0000
0000
0070
00E0
01C0
0380
0000
0000
7070
7070
7070
7070
E070
E070
E0E0
E0E0
7FE0
3FE0
0000
0000
0000
0000
ENDCHAR
STARTCHAR LATIN SMALL LETTER U WITH CIRCUMFLEX
ENCODING 251
SWIDTH 480 0
DWIDTH 12 0
BBX 12 24 0 -4
BITMAP
0000
0000
0000
0100
0380
07C0
0EE0
1C70
0000
0000
7070
7070
7070
7070
E070
E070
E0E0
E0E0
7FE0
3FE0
0000
0000
0000
0000
ENDCHAR
STARTCHAR LATIN SMALL LETTER U WITH DIAERESIS
ENCODING 252
SWIDTH 480 0
DWIDTH 12 0
BBX 12 24 0 -4
BITMAP
0000
0000
0000
0000
0000
1CE0
1CE0
1CE0
0000
0000
7070
7070
7070
7070
E070
E070
E0E0
E0E0
7FE0
3FE0
0000
0000
0000
0000
ENDCHAR
STARTCHAR LATIN SMALL LETTER Y WITH ACUTE
ENCODING 253
SWIDTH 480 0
DWIDTH 12 0
BBX 12 24 0 -4
BITMAP
0000
0000
0000
0000
0070
00E0
01C0
0380
0000
0000
7070
7070
7070
7070
E070
E070
E0E0
E0E0
7FE0
3FE0
00E0
01C0
3FC0
3F00
ENDCHAR
STARTCHAR LATIN SMALL LETTER THORN
ENCODING 254
SWIDTH 480 0
DWIDTH 12 0
BBX 12 24 0 -4
BITMAP
0000
0000
0000
0000
0000
1C00
1C00
1C00
1C00
3800
3FC0
3FE0
3870
3870
7070
70E0
70E0
70E0
7FC0
FF80
E000
E000
E000
E000
ENDCHAR
STARTCHAR LATIN SMALL LETTER Y WITH DIAERESIS
ENCODING 255
SWIDTH 480 0
DWIDTH 12 0
BBX 12 24 0 -4
BITMAP
0000
0000
0000
0000
0000
1CE0
1CE0
1CE0
0000
0000
7070
7070
7070
7070
E070
E070
E0E0
E0E0
7FE0
3FE0
00E0
01C0
3FC0
3F00
ENDCHAR
STARTCHAR LATIN CAPITAL LETTER A WITH MACRON
ENCODING 256
SWIDTH 480 0
DWIDTH 12 0
BBX 12 24 0 -4
BITMAP
0000
0000
0FF0
0FF0
0000
0000
0FC0
1FE0
3870
3870
7070
70E0
70E0
70E0
7FE0
FFE0
E1C0
E1C0
E1C0
E1C0
0000
0000
0000
0000
ENDCHAR
STARTCHAR LATIN SMALL LETTER A WITH MACRON
ENCODING 257
SWIDTH 480 0
DWIDTH 12 0
BBX 12 24 0 -4
BITMAP
0000
0000
0000
0000
0000
0000
1FF0
1FF0
0000
0000
1FF0
3FF0
7070
7070
E070
E070
E0E0
E0E0
7FE0
3FE0
0000
0000
0000
0000
ENDCHAR
STARTCHAR LATIN CAPITAL LETTER A WITH BREVE
ENCODING 258
SWIDTH 480 0
DWIDTH 12 0
BBX 12 24 0 -4
BITMAP
0000
1C70
0FE0
07C0
0000
0000
0FC0
1FE0
3870
3870
7070
70E0
70E0
70E0
7FE0
FFE0
E1C0
E1C0
E1C0
E1C0
0000
0000
0000
0000
ENDCHAR
STARTCHAR LATIN SMALL LETTER A WITH BREVE
ENCODING 259
SWIDTH 480 0
DWIDTH 12 0
BBX 12 24 0 -4
BITMAP
0000
0000
0000
0000
0000
1C70
0FE0
07C0
0000
0000
1FF0
3FF0
7070
7070
E070
E070
E0E0
E0E0
7FE0
3FE0
0000
0000
0000
0000
ENDCHAR
STARTCHAR LATIN CAPITAL LETTER A WITH OGONEK
ENCODING 260
SWIDTH 480 0
DWIDTH 12 0
BBX 12 24 0 -4
BITMAP
0000
0000
0000
0000
0000
0000
0FC0
1FE0
3870
3870
7070
70E0
70E0
70E0
7FE0
FFE0
E1C0
E1C0
E1C0
E1C0
0380
0380
01E0
00E0
ENDCHAR
STARTCHAR LATIN SMALL LETTER A WITH OGONEK
ENCODING 261
SWIDTH 480 0
DWIDTH 12 0
BBX 12 24 0 -4
BITMAP
0000
0000
0000
0000
0000
0000
0000
0000
0000
0000
1FF0
3FF0
7070
7070
E070
E070
E0E0
E0E0
7FE0
3FE0
00E0
00E0
0070
0030
ENDCHAR
STARTCHAR LATIN CAPITAL LETTER C WITH ACUTE
ENCODING 262
SWIDTH 480 0
DWIDTH 12 0
BBX 12 24 0 -4
BITMAP
0070
00E0
01C0
0380
0000
0000
0FF0
1FF0
3800
3800
7000
7000
7000
7000
7000
E000
E000
E000
7FE0
3FE0
0000
0000
0000
0000
ENDCHAR
STARTCHAR LATIN SMALL LETTER C WITH ACUTE
ENCODING 263
SWIDTH 480 0
DWIDTH 12 0
BBX 12 24 0 -4
BITMAP
0000
0000
0000
0000
0070
00E0
01C0
0380
0000
0000
1FF0
3FF0
7000
7000
E000
E000
E000
E000
7FE0
3FE0
0000
0000
0000
0000
ENDCHAR
STARTCHAR LATIN CAPITAL LETTER C WITH CIRCUMFLEX
ENCODING 264
SWIDTH 480 0
DWIDTH 12 0
BBX 12 24 0 -4
BITMAP
0380
07C0
0EE0
1C70
0000
0000
0FF0
1FF0
3800
3800
7000
7000
7000
7000
7000
E000
E000
E000
7FE0
3FE0
0000
0000
0000
0000
ENDCHAR
STARTCHAR LATIN SMALL LETTER C WITH CIRCUMFLEX
ENCODING 265
SWIDTH 480 0
DWIDTH 12 0
BBX 12 24 0 -4
BITMAP
0000
0000
0000
0100
0380
07C0
0EE0
1C70
0000
0000
1FF0
3FF0
7000
7000
E000
E000
E000
E000
7FE0
3FE0
0000
0000
0000
0000
ENDCHAR
STARTCHAR LATIN CAPITAL LETTER C WITH DOT ABOVE
ENCODING 266
SWIDTH 480 0
DWIDTH 12 0
BBX 12 24 0 -4
BITMAP
0000
01C0
01C0
01C0
0000
0000
0FF0
1FF0
3800
3800
7000
7000
7000
7000
7000
E000
E000
E000
7FE0
3FE0
0000
0000
0000
0000
ENDCHAR
STARTCHAR LATIN SMALL LETTER C WITH DOT ABOVE
ENCODING 267
SWIDTH 480 0
DWIDTH 12 0
BBX 12 24 0 -4
BITMAP
0000
0000
0000
0000
0000
0380
0380
0380
0000
0000
1FF0
3FF0
7000
7000
E000
E000
E000
E000
7FE0
3FE0
0000
0000
0000
0000
ENDCHAR
STARTCHAR LATIN CAPITAL LETTER C WITH CARON
ENCODING 268
SWIDTH 480 0
DWIDTH 12 0
BBX 12 24 0 -4
BITMAP
1C70
0EE0
07C0
0380
0100
0000
0FF0
1FF0
3800
3800
7000
7000
7000
7000
7000
E000
E000
E000
7FE0
3FE0
0000
0000
0000
0000
ENDCHAR
STARTCHAR LATIN SMALL LETTER C WITH CARON
ENCODING 269
SWIDTH 480 0
DWIDTH 12 0
BBX 12 24 0 -4
BITMAP
0000
0000
0000
0000
1C70
0EE0
07C0
0380
0100
0000
1FF0
3FF0
7000
7000
E000
E000
E000
E000
7FE0
3FE0
0000
0000
0000
0000
ENDCHAR
STARTCHAR LATIN CAPITAL LETTER D WITH CARON
ENCODING 270
SWIDTH 480 0
DWIDTH 12 0
BBX 12 24 0 -4
BITMAP
1C70
0EE0
07C0
0380
0100
0000
3FC0
3FE0
3870
3870
7070
70E0
70E0
70E0
70E0
E0E0
E1C0
E1C0
FF80
FF00
0000
0000
0000
0000
ENDCHAR
STARTCHAR LATIN SMALL LETTER D WITH CARON
ENCODING 271
SWIDTH 480 0
DWIDTH 12 0
BBX 12 24 0 -4
BITMAP
0070
0070
0070
00E0
0000
00E0
00E0
00E0
00E0
00E0
1FE0
3FC0
71C0
71C0
E1C0
E1C0
E380
E380
7F80
3F80
0000
0000
0000
0000
ENDCHAR
STARTCHAR LATIN CAPITAL LETTER D WITH STROKE
ENCODING 272
SWIDTH 480 0
DWIDTH 12 0
BBX 12 24 0 -4
BITMAP
0000
0000
0000
0000
0000
0000
3FC0
3FE0
3870
3870
7070
70E0
FEE0
FEE0
70E0
E0E0
E1C0
E1C0
FF80
FF00
0000
0000
0000
0000
ENDCHAR
STARTCHAR LATIN SMALL LETTER D WITH STROKE
ENCODING 273
SWIDTH 480 0
DWIDTH 12 0
BBX 12 24 0 -4
BITMAP
0000
0000
0000
0000
0070
0070
07F0
07F0
0070
0070
1FF0
3FE0
70E0
70E0
E0E0
E0E0
E1C0
E1C0
7FC0
3FC0
0000
0000
0000
0000
ENDCHAR
STARTCHAR LATIN CAPITAL LETTER E WITH MACRON
ENCODING 274
SWIDTH 480 0
DWIDTH 12 0
BBX 12 24 0 -4
BITMAP
0000
0000
1FF0
1FF0
0000
0000
3FF0
3FF0
3800
3800
7000
7000
7F00
7F00
7000
E000
E000
E000
FFE0
FFE0
0000
0000
0000
0000
ENDCHAR
STARTCHAR LATIN SMALL LETTER E WITH MACRON
ENCODING 275
SWIDTH 480 0
DWIDTH 12 0
BBX 12 24 0 -4
BITMAP
0000
0000
0000
0000
0000
0000
1FF0
1FF0
0000
0000
1FC0
3FE0
7070
7070
FFE0
FFC0
E000
E000
7F80
3F80
0000
0000
0000
0000
ENDCHAR
STARTCHAR LATIN CAPITAL LETTER E WITH DOT ABOVE
ENCODING 278
SWIDTH 480 0
DWIDTH 12 0
BBX 12 24 0 -4
BITMAP
0000
0380
0380
0380
0000
0000
3FF0
3FF0
3800
3800
7000
7000
7F00
7F00
7000
E000
E000
E000
FFE0
FFE0
0000
0000
0000
0000
ENDCHAR
STARTCHAR LATIN SMALL LETTER E WITH DOT ABOVE
ENCODING 279
SWIDTH 480 0
DWIDTH 12 0
BBX 12 24 0 -4
BITMAP
0000
0000
0000
0000
0000
0380
0380
0380
0000
0000
1FC0
3FE0
7070
7070
FFE0
FFC0
E000
E000
7F80
3F80
0000
0000
0000
0000
ENDCHAR
STARTCHAR LATIN CAPITAL LETTER E WITH OGONEK
ENCODING 280
SWIDTH 480 0
DWIDTH 12 0
BBX 12 24 0 -4
BITMAP
0000
0000
0000
0000
0000
0000
3FF0
3FF0
3800
3800
7000
7000
7F00
7F00
7000
E000
E000
E000
FFE0
FFE0
00E0
00E0
0070
0030
ENDCHAR
STARTCHAR LATIN SMALL LETTER E WITH OGONEK
ENCODING 281
SWIDTH 480 0
DWIDTH 12 0
BBX 12 24 0 -4
BITMAP
0000
0000
0000
0000
0000
0000
0000
0000
0000
0000
1FC0
3FE0
7070
7070
FFE0
FFC0
E000
E000
7F80
3F80
0380
0380
01E0
00E0
ENDCHAR
STARTCHAR LATIN CAPITAL LETTER E WITH CARON
ENCODING 282
SWIDTH 480 0
DWIDTH 12 0
BBX 12 24 0 -4
BITMAP
1C70
0EE0
07C0
0380
0100
0000
3FF0
3FF0
3800
3800
7000
7000
7F00
7F00
7000
E000
E000
E000
FFE0
FFE0
0000
0000
0000
0000
ENDCHAR
STARTCHAR LATIN SMALL LETTER E WITH CARON
ENCODING 283
SWIDTH 480 0
DWIDTH 12 0
BBX 12 24 0 -4
BITMAP
0000
0000
0000
0000
1C70
0EE0
07C0
0380
0100
0000
1FC0
3FE0
7070
7070
FFE0
FFC0
E000
E000
7F80
3F80
0000
0000
0000
0000
ENDCHAR
STARTCHAR LATIN CAPITAL LETTER G WITH CIRCUMFLEX
ENCODING 284
SWIDTH 480 0
DWIDTH 12 0
BBX 12 24 0 -4
BITMAP
0380
07C0
0EE0
1C70
0000
0000
0FF0
1FF0
3800
3800
7000
7000
71F0
71F0
7070
E070
E0E0
E0E0
7FE0
3FE0
0000
0000
0000
0000
ENDCHAR
STARTCHAR LATIN SMALL LETTER G WITH CIRCUMFLEX
ENCODING 285
SWIDTH 480 0
DWIDTH 12 0
BBX 12 24 0 -4
BITMAP
0000
0000
0000
0100
0380
07C0
0EE0
1C70
0000
0000
1FE0
3FF0
7070
7070
E070
E070
E0E0
E0E0
7FE0
3FE0
00E0
01C0
3FC0
3F00
ENDCHAR
STARTCHAR LATIN CAPITAL LETTER G WITH BREVE
ENCODING 286
SWIDTH 480 0
DWIDTH 12 0
BBX 12 24 0 -4
BITMAP
0000
1C70
0FE0
07C0
0000
0000
0FF0
1FF0
3800
3800
7000
7000
71F0
71F0
7070
E070
E0E0
E0E0
7FE0
3FE0
0000
0000
0000
0000
ENDCHAR
STARTCHAR LATIN SMALL LETTER G WITH BREVE
ENCODING 287
SWIDTH 480 0
DWIDTH 12 0
BBX 12 24 0 -4
BITMAP
0000
0000
0000
0000
0000
1C70
0FE0
07C0
0000
0000
1FE0
3FF0
7070
7070
E070
E070
E0E0
E0E0
7FE0
3FE0
00E0
01C0
3FC0
3F00
ENDCHAR
STARTCHAR LATIN CAPITAL LETTER G WITH DOT ABOVE
ENCODING 288
SWIDTH 480 0
DWIDTH 12 0
BBX 12 24 0 -4
BITMAP
0000
01C0
01C0
01C0
0000
0000
0FF0
1FF0
3800
3800
7000
7000
71F0
71F0
7070
E070
E0E0
E0E0
7FE0
3FE0
0000
0000
0000
0000
ENDCHAR
STARTCHAR LATIN SMALL LETTER G WITH DOT ABOVE
ENCODING 289
SWIDTH 480 0
DWIDTH 12 0
BBX 12 24 0 -4
BITMAP
0000
0000
0000
0000
0000
0380
0380
0380
0000
0000
1FE0
3FF0
7070
7070
E070
E070
E0E0
E0E0
7FE0
3FE0
00E0
01C0
3FC0
3F00
ENDCHAR
STARTCHAR LATIN CAPITAL LETTER G WITH CEDILLA
ENCODING 290
SWIDTH 480 0
DWIDTH 12 0
BBX 12 24 0 -4
BITMAP
0000
0000
0000
0000
0000
0000
0FF0
1FF0
3800
3800
7000
7000
71F0
71F0
7070
E070
E0E0
E0E0
7FE0
3FE0
0700
0380
3F80
1F00
ENDCHAR
STARTCHAR LATIN SMALL LETTER G WITH CEDILLA
ENCODING 291
SWIDTH 480 0
DWIDTH 12 0
BBX 12 24 0 -4
BITMAP
0000
0000
0000
0000
00E0
01C0
0380
0380
0380
0000
1FE0
3FF0
7070
7070
E070
E070
E0E0
E0E0
7FE0
3FE0
00E0
01C0
3FC0
3F00
ENDCHAR
STARTCHAR LATIN CAPITAL LETTER H WITH CIRCUMFLEX
ENCODING 292
SWIDTH 480 0
DWIDTH 12 0
BBX 12 24 0 -4
BITMAP
0380
07C0
0EE0
1C70
0000
0000
3830
3830
3830
3830
7030
7070
7FF0
7FF0
7070
E070
E0E0
E0E0
E0E0
E0E0
0000
0000
0000
0000
ENDCHAR
STARTCHAR LATIN SMALL LETTER H WITH CIRCUMFLEX
ENCODING 293
SWIDTH 480 0
DWIDTH 12 0
BBX 12 24 0 -4
BITMAP
0380
07C0
0EE0
1C70
3800
3800
3800
3800
7000
7000
7FC0
7FE0
7070
7070
E070
E070
E0E0
E0E0
E0E0
E0E0
0000
0000
0000
0000
ENDCHAR
STARTCHAR LATIN CAPITAL LETTER H WITH STROKE
ENCODING 294
SWIDTH 480 0
DWIDTH 12 0
BBX 12 24 0 -4
BITMAP
0000
0000
0000
0000
0000
0000
3870
3870
3FF0
3FF0
7070
70E0
7FE0
7FE0
70E0
E0E0
E1C0
E1C0
E1C0
E1C0
0000
0000
0000
0000
ENDCHAR
STARTCHAR LATIN SMALL LETTER H WITH STROKE
ENCODING 295
SWIDTH 480 0
DWIDTH 12 0
BBX 12 24 0 -4
BITMAP
0000
0000
0000
0000
3800
3800
FF00
FF00
7000
7000
7FC0
7FE0
7070
7070
E070
E070
E0E0
E0E0
E0E0
E0E0
0000
0000
0000
0000
ENDCHAR
STARTCHAR LATIN CAPITAL LETTER I WITH TILDE
ENCODING 296
SWIDTH 480 0
DWIDTH 12 0
BBX 12 24 0 -4
BITMAP
0E70
1F70
3BE0
39C0
0000
0000
07E0
07E0
0380
0380
0380
0700
0700
0700
0700
0E00
0E00
0E00
3F00
3F00
0000
0000
0000
0000
ENDCHAR
STARTCHAR LATIN SMALL LETTER I WITH TILDE
ENCODING 297
SWIDTH 480 0
DWIDTH 12 0
BBX 12 24 0 -4
BITMAP
0000
0000
0000
0000
0E70
1F70
3BE0
39C0
0000
0000
0700
0700
0700
0700
0E00
0E00
0E00
0E00
0E00
0700
0000
0000
0000
0000
ENDCHAR
STARTCHAR LATIN CAPITAL LETTER I WITH MACRON
ENCODING 298
SWIDTH 480 0
DWIDTH 12 0
BBX 12 24 0 -4
BITMAP
0000
0000
0FF0
0FF0
0000
0000
07E0
07E0
0380
0380
0380
0700
0700
0700
0700
0E00
0E00
0E00
3F00
3F00
0000
0000
0000
0000
ENDCHAR
STARTCHAR LATIN SMALL LETTER I WITH MACRON
ENCODING 299
SWIDTH 480 0
DWIDTH 12 0
BBX 12 24 0 -4
BITMAP
0000
0000
0000
0000
0000
0000
0FC0
0FC0
0000
0000
0700
0700
0700
0700
0E00
0E00
0E00
0E00
0E00
0700
0000
0000
0000
0000
ENDCHAR
STARTCHAR LATIN CAPITAL LETTER I WITH OGONEK
ENCODING 302
SWIDTH 480 0
DWIDTH 12 0
BBX 12 24 0 -4
BITMAP
0000
0000
0000
0000
0000
0000
07E0
07E0
0380
0380
0380
0700
0700
0700
0700
0E00
0E00
0E00
3F00
3F00
0E00
0E00
0780
0380
ENDCHAR
STARTCHAR LATIN SMALL LETTER I WITH OGONEK
ENCODING 303
SWIDTH 480 0
DWIDTH 12 0
BBX 12 24 0 -4
BITMAP
0000
0000
0000
0000
0000
0380
0380
0380
0000
0000
0700
0700
0700
0700
0E00
0E00
0E00
0E00
0E00
0700
0700
0700
03C0
01C0
ENDCHAR
STARTCHAR LATIN CAPITAL LETTER I WITH DOT ABOVE
ENCODING 304
SWIDTH 480 0
DWIDTH 12 0
BBX 12 24 0 -4
BITMAP
0000
01C0
01C0
01C0
0000
0000
07E0
07E0
0380
0380
0380
0700
0700
0700
0700
0E00
0E00
0E00
3F00
3F00
0000
0000
0000
0000
ENDCHAR
STARTCHAR LATIN SMALL LETTER DOTLESS I
ENCODING 305
SWIDTH 480 0
DWIDTH 12 0
BBX 12 24 0 -4
BITMAP
0000
0000
0000
0000
0000
0000
0000
0000
0000
0000
0700
0700
0700
0700
0E00
0E00
0E00
0E00
0E00
0700
0000
0000
0000
0000
ENDCHAR
STARTCHAR LATIN CAPITAL LETTER J WITH CIRCUMFLEX
ENCODING 308
SWIDTH 480 0
DWIDTH 12 0
BBX 12 24 0 -4
BITMAP
0380
07C0
0EE0
1C70
0000
0000
0030
0030
0030
0030
0030
0070
0070
0070
0070
0070
00E0
E0E0
7FC0
3F80
0000
0000
0000
0000
ENDCHAR
STARTCHAR LATIN SMALL LETTER J WITH CIRCUMFLEX
ENCODING 309
SWIDTH 480 0
DWIDTH 12 0
BBX 12 24 0 -4
BITMAP
0000
0000
0000
0100
0380
07C0
0EE0
1C70
0000
0000
0380
0380
0380
0380
0380
0380
0700
0700
0700
0700
0700
0E00
1C00
3800
ENDCHAR
STARTCHAR LATIN CAPITAL LETTER K WITH CEDILLA
ENCODING 310
SWIDTH 480 0
DWIDTH 12 0
BBX 12 24 0 -4
BITMAP
0000
0000
0000
0000
0000
0000
3830
3870
38E0
39C0
7380
7700
7E00
7C00
7C00
7E00
E700
E380
E1C0
EEE0
0700
0380
3F80
1F00
ENDCHAR
STARTCHAR LATIN SMALL LETTER K WITH CEDILLA
ENCODING 311
SWIDTH 480 0
DWIDTH 12 0
BBX 12 24 0 -4
BITMAP
0000
0000
0000
0000
1C00
1C00
1C00
1C00
3800
3800
38E0
39C0
3B80
3F00
7E00
7C00
7E00
7700
7380
7FC0
0700
0380
3F80
1F00
ENDCHAR
STARTCHAR LATIN SMALL LETTER KRA
ENCODING 312
SWIDTH 480 0
DWIDTH 12 0
BBX 12 24 0 -4
BITMAP
0000
0000
0000
0000
0000
0000
0000
0000
0000
0000
38E0
39C0
3B80
3F00
7E00
7C00
7E00
7700
7380
71C0
0000
0000
0000
0000
ENDCHAR
STARTCHAR LATIN CAPITAL LETTER L WITH ACUTE
ENCODING 313
SWIDTH 480 0
DWIDTH 12 0
BBX 12 24 0 -4
BITMAP
0380
0700
0E00
1C00
0000
0000
3800
3800
3800
3800
7000
7000
7000
7000
7000
E000
E000
E000
FFE0
FFE0
0000
0000
0000
0000
ENDCHAR
STARTCHAR LATIN SMALL LETTER L WITH ACUTE
ENCODING 314
SWIDTH 480 0
DWIDTH 12 0
BBX 12 24 0 -4
BITMAP
00E0
01C0
0380
0700
0000
0E00
0E00
0E00
1C00
1C00
1C00
1C00
1C00
1C00
3800
3800
3800
3800
1F80
0F80
0000
0000
0000
0000
ENDCHAR
STARTCHAR LATIN CAPITAL LETTER L WITH CEDILLA
ENCODING 315
SWIDTH 480 0
DWIDTH 12 0
BBX 12 24 0 -4
BITMAP
0000
0000
0000
0000
0000
0000
3800
3800
3800
3800
7000
7000
7000
7000
7000
E000
E000
E000
FFE0
FFE0
0700
0380
3F80
1F00
ENDCHAR
STARTCHAR LATIN SMALL LETTER L WITH CEDILLA
ENCODING 316
SWIDTH 480 0
DWIDTH 12 0
BBX 12 24 0 -4
BITMAP
0000
0000
0000
0000
0E00
0E00
0E00
0E00
1C00
1C00
1C00
1C00
1C00
1C00
3800
3800
3800
3800
1F80
0F80
0700
0380
3F80
1F00
ENDCHAR
STARTCHAR LATIN CAPITAL LETTER L WITH CARON
ENCODING 317
SWIDTH 480 0
DWIDTH 12 0
BBX 12 24 0 -4
BITMAP
0000
0000
0000
0000
0000
00E0
38E0
38E0
39C0
3B80
7000
7000
7000
7000
7000
E000
E000
E000
FFE0
FFE0
0000
0000
0000
0000
ENDCHAR
STARTCHAR LATIN SMALL LETTER L WITH CARON
ENCODING 318
SWIDTH 480 0
DWIDTH 12 0
BBX 12 24 0 -4
BITMAP
0000
0000
0000
0070
0E70
0E70
0EE0
0FC0
1C00
1C00
1C00
1C00
1C00
1C00
3800
3800
3800
3800
1F80
0F80
0000
0000
0000
0000
ENDCHAR
STARTCHAR LATIN CAPITAL LETTER L WITH STROKE
ENCODING 321
SWIDTH 480 0
DWIDTH 12 0
BBX 12 24 0 -4
BITMAP
0000
0000
0000
0000
0000
0000
3800
3800
39C0
3B80
7700
7E00
7C00
7800
7000
E000
E000
E000
FFE0
FFE0
0000
0000
0000
0000
ENDCHAR
STARTCHAR LATIN SMALL LETTER L WITH STROKE
ENCODING 322
SWIDTH 480 0
DWIDTH 12 0
BBX 12 24 0 -4
BITMAP
0000
0000
0000
0000
0E00
0E00
0E00
0E00
1F80
1F00
1E00
3C00
7C00
FC00
3800
3800
3800
3800
1F80
0F80
0000
0000
0000
0000
ENDCHAR
STARTCHAR LATIN CAPITAL LETTER N WITH ACUTE
ENCODING 323
SWIDTH 480 0
DWIDTH 12 0
BBX 12 24 0 -4
BITMAP
0070
00E0
01C0
0380
0000
0000
3870
3870
3870
3870
7C70
7EE0
77E0
73E0
71E0
E0E0
E1C0
E1C0
E1C0
E1C0
0000
0000
0000
0000
ENDCHAR
STARTCHAR LATIN SMALL LETTER N WITH ACUTE
ENCODING 324
SWIDTH 480 0
DWIDTH 12 0
BBX 12 24 0 -4
BITMAP
0000
0000
0000
0000
0070
00E0
01C0
0380
0000
0000
7FC0
7FE0
7070
7070
E070
E070
E0E0
E0E0
E0E0
E0E0
0000
0000
0000
0000
ENDCHAR
STARTCHAR LATIN CAPITAL LETTER N WITH CEDILLA
ENCODING 325
SWIDTH 480 0
DWIDTH 12 0
BBX 12 24 0 -4
BITMAP
0000
0000
0000
0000
0000
0000
3870
3870
3870
3870
7C70
7EE0
77E0
73E0
71E0
E0E0
E1C0
E1C0
E1C0
EFC0
0700
0380
3F80
1F00
ENDCHAR
STARTCHAR LATIN SMALL LETTER N WITH CEDILLA
ENCODING 326
SWIDTH 480 0
DWIDTH 12 0
BBX 12 24 0 -4
BITMAP
0000
0000
0000
0000
0000
0000
0000
0000
0000
0000
7FC0
7FE0
7070
7070
E070
E070
E0E0
E0E0
E0E0
EEE0
0700
0380
3F80
1F00
ENDCHAR
STARTCHAR LATIN CAPITAL LETTER N WITH CARON
ENCODING 327
SWIDTH 480 0
DWIDTH 12 0
BBX 12 24 0 -4
BITMAP
1C70
0EE0
07C0
0380
0100
0000
3870
3870
3870
3870
7C70
7EE0
77E0
73E0
71E0
E0E0
E1C0
E1C0
E1C0
E1C0
0000
0000
0000
0000
ENDCHAR
STARTCHAR LATIN SMALL LETTER N WITH CARON
ENCODING 328
SWIDTH 480 0
DWIDTH 12 0
BBX 12 24 0 -4
BITMAP
0000
0000
0000
0000
1C70
0EE0
07C0
0380
0100
0000
7FC0
7FE0
7070
7070
E070
E070
E0E0
E0E0
E0E0
E0E0
0000
0000
0000
0000
ENDCHAR
STARTCHAR LATIN CAPITAL LETTER ENG
ENCODING 330
SWIDTH 480 0
DWIDTH 12 0
BBX 12 24 0 -4
BITMAP
0000
0000
0000
0000
0000
0000
3870
3870
3870
3870
7C70
7EE0
77E0
73E0
71E0
E0E0
E1C0
E1C0
E1C0
E1C0
01C0
0380
0F00
0E00
ENDCHAR
STARTCHAR LATIN SMALL LETTER ENG
ENCODING 331
SWIDTH 480 0
DWIDTH 12 0
BBX 12 24 0 -4
BITMAP
0000
0000
0000
0000
0000
0000
0000
0000
0000
0000
7FC0
7FE0
7070
7070
E070
E070
E0E0
E0E0
E0E0
E0E0
00E0
01C0
0780
0700
ENDCHAR
STARTCHAR LATIN CAPITAL LETTER O WITH MACRON
ENCODING 332
SWIDTH 480 0
DWIDTH 12 0
BBX 12 24 0 -4
BITMAP
0000
0000
0FF0
0FF0
0000
0000
0FC0
1FE0
3870
3870
7070
7070
70E0
70E0
E0E0
E0E0
E1C0
E1C0
7F80
3F00
0000
0000
0000
0000
ENDCHAR
STARTCHAR LATIN SMALL LETTER O WITH MACRON
ENCODING 333
SWIDTH 480 0
DWIDTH 12 0
BBX 12 24 0 -4
BITMAP
0000
0000
0000
0000
0000
0000
1FF0
1FF0
0000
0000
1FC0
3FE0
7070
7070
E070
E070
E0E0
E0E0
7FC0
3F80
0000
0000
0000
0000
ENDCHAR
STARTCHAR LATIN CAPITAL LETTER O WITH DOUBLE ACUTE
ENCODING 336
SWIDTH 480 0
DWIDTH 12 0
BBX 12 24 0 -4
BITMAP
0770
0770
0EE0
0EE0
0000
0000
0FC0
1FE0
3870
3870
7070
7070
70E0
70E0
E0E0
E0E0
E1C0
E1C0
7F80
3F00
0000
0000
0000
0000
ENDCHAR
STARTCHAR LATIN SMALL LETTER O WITH DOUBLE ACUTE
ENCODING 337
SWIDTH 480 0
DWIDTH 12 0
BBX 12 24 0 -4
BITMAP
0000
0000
0000
0000
0EE0
0EE0
1DC0
1DC0
0000
0000
1FC0
3FE0
7070
7070
E070
E070
E0E0
E0E0
7FC0
3F80
0000
0000
0000
0000
ENDCHAR
STARTCHAR LATIN CAPITAL LIGATURE OE
ENCODING 338
SWIDTH 480 0
DWIDTH 12 0
BBX 12 24 0 -4
BITMAP
0000
0000
0000
0000
0000
0000
0FF0
1FF0
3B80
3B80
7380
7380
77E0
77E0
E700
E700
EE00
EE00
7FE0
3FE0
0000
0000
0000
0000
ENDCHAR
STARTCHAR LATIN SMALL LIGATURE OE
ENCODING 339
SWIDTH 480 0
DWIDTH 12 0
BBX 12 24 0 -4
BITMAP
0000
0000
0000
0000
0000
0000
0000
0000
0000
0000
1DE0
3FF0
7730
7730
E7F0
EFE0
EE00
EE00
7FE0
3BE0
0000
0000
0000
0000
ENDCHAR
STARTCHAR LATIN CAPITAL LETTER R WITH ACUTE
ENCODING 340
SWIDTH 480 0
DWIDTH 12 0
BBX 12 24 0 -4
BITMAP
0070
00E0
01C0
0380
0000
0000
3FC0
3FE0
3870
3870
7070
70E0
70E0
70E0
7FC0
FF80
E700
E380
E1C0
E0E0
0000
0000
0000
0000
ENDCHAR
STARTCHAR LATIN SMALL LETTER R WITH ACUTE
ENCODING 341
SWIDTH 480 0
DWIDTH 12 0
BBX 12 24 0 -4
BITMAP
0000
0000
0000
0000
0070
00E0
01C0
0380
0000
0000
77F0
7FF0
7C00
7000
E000
E000
E000
E000
E000
E000
0000
0000
0000
0000
ENDCHAR
STARTCHAR LATIN CAPITAL LETTER R WITH CEDILLA
ENCODING 342
SWIDTH 480 0
DWIDTH 12 0
BBX 12 24 0 -4
BITMAP
0000
0000
0000
0000
0000
0000
3FC0
3FE0
3870
3870
7070
70E0
70E0
70E0
7FC0
FF80
E700
E380
E1C0
EEE0
0700
0380
3F80
1F00
ENDCHAR
STARTCHAR LATIN SMALL LETTER R WITH CEDILLA
ENCODING 343
SWIDTH 480 0
DWIDTH 12 0
BBX 12 24 0 -4
BITMAP
0000
0000
0000
0000
0000
0000
0000
0000
0000
0000
3BF0
3FF0
3E00
3800
7000
7000
7000
7000
7000
7000
3800
1C00
FC00
7800
ENDCHAR
STARTCHAR LATIN CAPITAL LETTER R WITH CARON
ENCODING 344
SWIDTH 480 0
DWIDTH 12 0
BBX 12 24 0 -4
BITMAP
1C70
0EE0
07C0
0380
0100
0000
3FC0
3FE0
3870
3870
7070
70E0
70E0
70E0
7FC0
FF80
E700
E380
E1C0
E0E0
0000
0000
0000
0000
ENDCHAR
STARTCHAR LATIN SMALL LETTER R WITH CARON
ENCODING 345
SWIDTH 480 0
DWIDTH 12 0
BBX 12 24 0 -4
BITMAP
0000
0000
0000
0000
1C70
0EE0
07C0
0380
0100
0000
77F0
7FF0
7C00
7000
E000
E000
E000
E000
E000
E000
0000
0000
0000
0000
ENDCHAR
STARTCHAR LATIN CAPITAL LETTER S WITH ACUTE
ENCODING 346
SWIDTH 480 0
DWIDTH 12 0
BBX 12 24 0 -4
BITMAP
0070
00E0
01C0
0380
0000
0000
0FF0
1FF0
3800
3800
7000
7000
3FC0
1FE0
0070
0070
00E0
00E0
FFC0
FF80
0000
0000
0000
0000
ENDCHAR
STARTCHAR LATIN SMALL LETTER S WITH ACUTE
ENCODING 347
SWIDTH 480 0
DWIDTH 12 0
BBX 12 24 0 -4
BITMAP
0000
0000
0000
0000
0070
00E0
01C0
0380
0000
0000
1FF0
3FF0
7000
7000
3F80
1FC0
00E0
00E0
FFC0
FF80
0000
0000
0000
0000
ENDCHAR
STARTCHAR LATIN CAPITAL LETTER S WITH CIRCUMFLEX
ENCODING 348
SWIDTH 480 0
DWIDTH 12 0
BBX 12 24 0 -4
BITMAP
0380
07C0
0EE0
1C70
0000
0000
0FF0
1FF0
3800
3800
7000
7000
3FC0
1FE0
0070
0070
00E0
00E0
FFC0
FF80
0000
0000
0000
0000
ENDCHAR
STARTCHAR LATIN SMALL LETTER S WITH CIRCUMFLEX
ENCODING 349
SWIDTH 480 0
DWIDTH 12 0
BBX 12 24 0 -4
BITMAP
0000
0000
0000
0100
0380
07C0
0EE0
1C70
0000
0000
1FF0
3FF0
7000
7000
3F80
1FC0
00E0
00E0
FFC0
FF80
0000
0000
0000
0000
ENDCHAR
STARTCHAR LATIN CAPITAL LETTER S WITH CEDILLA
ENCODING 350
SWIDTH 480 0
DWIDTH 12 0
BBX 12 24 0 -4
BITMAP
0000
0000
0000
0000
0000
0000
0FF0
1FF0
3800
3800
7000
7000
3FC0
1FE0
0070
0070
00E0
00E0
FFC0
FF80
0E00
0700
7F00
3E00
ENDCHAR
STARTCHAR LATIN SMALL LETTER S WITH CEDILLA
ENCODING 351
SWIDTH 480 0
DWIDTH 12 0
BBX 12 24 0 -4
BITMAP
0000
0000
0000
0000
0000
0000
0000
0000
0000
0000
1FF0
3FF0
7000
7000
3F80
1FC0
00E0
00E0
FFC0
FF80
0E00
0700
7F00
3E00
ENDCHAR
STARTCHAR LATIN CAPITAL LETTER S WITH CARON
ENCODING 352
SWIDTH 480 0
DWIDTH 12 0
BBX 12 24 0 -4
BITMAP
1C70
0EE0
07C0
0380
0100
0000
0FF0
1FF0
3800
3800
7000
7000
3FC0
1FE0
0070
0070
00E0
00E0
FFC0
FF80
0000
0000
0000
0000
ENDCHAR
STARTCHAR LATIN SMALL LETTER S WITH CARON
ENCODING 353
SWIDTH 480 0
DWIDTH 12 0
BBX 12 24 0 -4
BITMAP
0000
0000
0000
0000
1C70
0EE0
07C0
0380
0100
0000
1FF0
3FF0
7000
7000
3F80
1FC0
00E0
00E0
FFC0
FF80
0000
0000
0000
0000
ENDCHAR
STARTCHAR LATIN CAPITAL LETTER T WITH CEDILLA
ENCODING 354
SWIDTH 480 0
DWIDTH 12 0
BBX 12 24 0 -4
BITMAP
0000
0000
0000
0000
0000
0000
3FF0
3FF0
0380
0380
0380
0700
0700
0700
0700
0E00
0E00
0E00
0E00
0E00
0E00
0700
7F00
3E00
ENDCHAR
STARTCHAR LATIN SMALL LETTER T WITH CEDILLA
ENCODING 355
SWIDTH 480 0
DWIDTH 12 0
BBX 12 24 0 -4
BITMAP
0000
0000
0000
0000
0700
0700
0700
0700
0E00
0E00
3F80
3F80
0E00
0E00
1C00
1C00
1C00
1C00
0FC0
07C0
0700
0380
3F80
1F00
ENDCHAR
STARTCHAR LATIN CAPITAL LETTER T WITH CARON
ENCODING 356
SWIDTH 480 0
DWIDTH 12 0
BBX 12 24 0 -4
BITMAP
1C70
0EE0
07C0
0380
0100
0000
7FF0
7FF0
0700
0700
0700
0E00
0E00
0E00
0E00
1C00
1C00
1C00
1C00
1C00
0000
0000
0000
0000
ENDCHAR
STARTCHAR LATIN SMALL LETTER T WITH CARON
ENCODING 357
SWIDTH 480 0
DWIDTH 12 0
BBX 12 24 0 -4
BITMAP
0000
0000
0070
0070
0E70
0EE0
0FC0
0E00
1C00
1C00
7F00
7F00
1C00
1C00
3800
3800
3800
3800
1F80
0F80
0000
0000
0000
0000
ENDCHAR
STARTCHAR LATIN CAPITAL LETTER T WITH STROKE
ENCODING 358
SWIDTH 480 0
DWIDTH 12 0
BBX 12 24 0 -4
BITMAP
0000
0000
0000
0000
0000
0000
7FF0
7FF0
0700
0700
0700
0E00
3F80
3F80
0E00
1C00
1C00
1C00
1C00
1C00
0000
0000
0000
0000
ENDCHAR
STARTCHAR LATIN SMALL LETTER T WITH STROKE
ENCODING 359
SWIDTH 480 0
DWIDTH 12 0
BBX 12 24 0 -4
BITMAP
0000
0000
0000
0000
0700
0700
0700
0700
3FC0
3FC0
0E00
0E00
7F80
7F80
1C00
1C00
1C00
1C00
0FC0
07C0
0000
0000
0000
0000
ENDCHAR
STARTCHAR LATIN CAPITAL LETTER U WITH TILDE
ENCODING 360
SWIDTH 480 0
DWIDTH 12 0
BBX 12 24 0 -4
BITMAP
0E70
1F70
3BE0
39C0
0000
0000
3870
3870
3870
3870
7070
70E0
70E0
70E0
70E0
E0E0
E1C0
E1C0
7F80
3F00
0000
0000
0000
0000
ENDCHAR
STARTCHAR LATIN SMALL LETTER U WITH TILDE
ENCODING 361
SWIDTH 480 0
DWIDTH 12 0
BBX 12 24 0 -4
BITMAP
0000
0000
0000
0000
0E70
1F70
3BE0
39C0
0000
0000
7070
7070
7070
7070
E070
E070
E0E0
E0E0
7FE0
3FE0
0000
0000
0000
0000
ENDCHAR
STARTCHAR LATIN CAPITAL LETTER U WITH MACRON
ENCODING 362
SWIDTH 480 0
DWIDTH 12 0
BBX 12 24 0 -4
BITMAP
0000
0000
1FF0
1FF0
0000
0000
3870
3870
3870
3870
7070
70E0
70E0
70E0
70E0
E0E0
E1C0
E1C0
7F80
3F00
0000
0000
0000
0000
ENDCHAR
STARTCHAR LATIN SMALL LETTER U WITH MACRON
ENCODING 363
SWIDTH 480 0
DWIDTH 12 0
BBX 12 24 0 -4
BITMAP
0000
0000
0000
0000
0000
0000
1FF0
1FF0
0000
0000
7070
7070
7070
7070
E070
E070
E0E0
E0E0
7FE0
3FE0
0000
0000
0000
0000
ENDCHAR
STARTCHAR LATIN CAPITAL LETTER U WITH BREVE
ENCODING 364
SWIDTH 480 0
DWIDTH 12 0
BBX 12 24 0 -4
BITMAP
0000
1C70
0FE0
07C0
0000
0000
3870
3870
3870
3870
7070
70E0
70E0
70E0
70E0
E0E0
E1C0
E1C0
7F80
3F00
0000
0000
0000
0000
ENDCHAR
STARTCHAR LATIN SMALL LETTER U WITH BREVE
ENCODING 365
SWIDTH 480 0
DWIDTH 12 0
BBX 12 24 0 -4
BITMAP
0000
0000
0000
0000
0000
3870
1FE0
0FC0
0000
0000
7070
7070
7070
7070
E070
E070
E0E0
E0E0
7FE0
3FE0
0000
0000
0000
0000
ENDCHAR
STARTCHAR LATIN CAPITAL LETTER U WITH RING ABOVE
ENCODING 366
SWIDTH 480 0
DWIDTH 12 0
BBX 12 24 0 -4
BITMAP
0380
07C0
0EE0
07C0
0380
0000
3870
3870
3870
3870
7070
70E0
70E0
70E0
70E0
E0E0
E1C0
E1C0
7F80
3F00
0000
0000
0000
0000
ENDCHAR
STARTCHAR LATIN SMALL LETTER U WITH RING ABOVE
ENCODING 367
SWIDTH 480 0
DWIDTH 12 0
BBX 12 24 0 -4
BITMAP
0000
0000
0380
07C0
0EE0
0EE0
07C0
0380
0000
0000
7070
7070
7070
7070
E070
E070
E0E0
E0E0
7FE0
3FE0
0000
0000
0000
0000
ENDCHAR
STARTCHAR LATIN CAPITAL LETTER U WITH DOUBLE ACUTE
ENCODING 368
SWIDTH 480 0
DWIDTH 12 0
BBX 12 24 0 -4
BITMAP
0770
0770
0EE0
0EE0
0000
0000
3870
3870
3870
3870
7070
70E0
70E0
70E0
70E0
E0E0
E1C0
E1C0
7F80
3F00
0000
0000
0000
0000
ENDCHAR
STARTCHAR LATIN SMALL LETTER U WITH DOUBLE ACUTE
ENCODING 369
SWIDTH 480 0
DWIDTH 12 0
BBX 12 24 0 -4
BITMAP
0000
0000
0000
0000
0EE0
0EE0
1DC0
1DC0
0000
0000
7070
7070
7070
7070
E070
E070
E0E0
E0E0
7FE0
3FE0
0000
0000
0000
0000
ENDCHAR
STARTCHAR LATIN CAPITAL LETTER U WITH OGONEK
ENCODING 370
SWIDTH 480 0
DWIDTH 12 0
BBX 12 24 0 -4
BITMAP
0000
0000
0000
0000
0000
0000
3870
3870
3870
3870
7070
70E0
70E0
70E0
70E0
E0E0
E1C0
E1C0
7F80
3F00
0E00
0E00
0780
0380
ENDCHAR
STARTCHAR LATIN SMALL LETTER U WITH OGONEK
ENCODING 371
SWIDTH 480 0
DWIDTH 12 0
BBX 12 24 0 -4
BITMAP
0000
0000
0000
0000
0000
0000
0000
0000
0000
0000
7070
7070
7070
7070
E070
E070
E0E0
E0E0
7FE0
3FE0
0E00
0E00
0780
0380
ENDCHAR
STARTCHAR LATIN CAPITAL LETTER W WITH CIRCUMFLEX
ENCODING 372
SWIDTH 480 0
DWIDTH 12 0
BBX 12 24 0 -4
BITMAP
0380
07C0
0EE0
1C70
0000
0000
3870
3870
3870
3870
7070
70E0
70E0
70E0
7CE0
FEE0
FFC0
F3C0
E1C0
C0C0
0000
0000
0000
0000
ENDCHAR
STARTCHAR LATIN SMALL LETTER W WITH CIRCUMFLEX
ENCODING 373
SWIDTH 480 0
DWIDTH 12 0
BBX 12 24 0 -4
BITMAP
0000
0000
0000
0100
0380
07C0
0EE0
1C70
0000
0000
7070
7070
7070
7470
EE70
FF70
FBE0
F1E0
E0E0
C060
0000
0000
0000
0000
ENDCHAR
STARTCHAR LATIN CAPITAL LETTER Y WITH CIRCUMFLEX
ENCODING 374
SWIDTH 480 0
DWIDTH 12 0
BBX 12 24 0 -4
BITMAP
0380
07C0
0EE0
1C70
0000
0000
E070
E070
E070
E0E0
71C0
3B80
1F00
1E00
1C00
1C00
1C00
3800
3800
3800
0000
0000
0000
0000
ENDCHAR
STARTCHAR LATIN SMALL LETTER Y WITH CIRCUMFLEX
ENCODING 375
SWIDTH 480 0
DWIDTH 12 0
BBX 12 24 0 -4
BITMAP
0000
0000
0000
0100
0380
07C0
0EE0
1C70
0000
0000
7070
7070
7070
7070
E070
E070
E0E0
E0E0
7FE0
3FE0
00E0
01C0
3FC0
3F00
ENDCHAR
STARTCHAR LATIN CAPITAL LETTER Y WITH DIAERESIS
ENCODING 376
SWIDTH 480 0
DWIDTH 12 0
BBX 12 24 0 -4
BITMAP
0000
0E70
0E70
0E70
0000
0000
E070
E070
E070
E0E0
71C0
3B80
1F00
1E00
1C00
1C00
1C00
3800
3800
3800
0000
0000
0000
0000
ENDCHAR
STARTCHAR LATIN CAPITAL LETTER Z WITH ACUTE
ENCODING 377
SWIDTH 480 0
DWIDTH 12 0
BBX 12 24 0 -4
BITMAP
0070
00E0
01C0
0380
0000
0000
3FF0
3FF0
0070
0070
00E0
01C0
0780
1E00
3800
7000
E000
E000
FFC0
FFC0
0000
0000
0000
0000
ENDCHAR
STARTCHAR LATIN SMALL LETTER Z WITH ACUTE
ENCODING 378
SWIDTH 480 0
DWIDTH 12 0
BBX 12 24 0 -4
BITMAP
0000
0000
0000
0000
0070
00E0
01C0
0380
0000
0000
7FF0
7FF0
00E0
03C0
0780
1E00
3C00
7000
FFE0
FFE0
0000
0000
0000
0000
ENDCHAR
STARTCHAR LATIN CAPITAL LETTER Z WITH DOT ABOVE
ENCODING 379
SWIDTH 480 0
DWIDTH 12 0
BBX 12 24 0 -4
BITMAP
0000
0380
0380
0380
0000
0000
3FF0
3FF0
0070
0070
00E0
01C0
0780
1E00
3800
7000
E000
E000
FFC0
FFC0
0000
0000
0000
0000
ENDCHAR
STARTCHAR LATIN SMALL LETTER Z WITH DOT ABOVE
ENCODING 380
SWIDTH 480 0
DWIDTH 12 0
BBX 12 24 0 -4
BITMAP
0000
0000
0000
0000
0000
0380
0380
0380
0000
0000
7FF0
7FF0
00E0
03C0
0780
1E00
3C00
7000
FFE0
FFE0
0000
0000
0000
0000
ENDCHAR
STARTCHAR LATIN CAPITAL LETTER Z WITH CARON
ENCODING 381
SWIDTH 480 0
DWIDTH 12 0
BBX 12 24 0 -4
BITMAP
1C70
0EE0
07C0
0380
0100
0000
3FF0
3FF0
0070
0070
00E0
01C0
0780
1E00
3800
7000
E000
E000
FFC0
FFC0
0000
0000
0000
0000
ENDCHAR
STARTCHAR LATIN SMALL LETTER Z WITH CARON
ENCODING 382
SWIDTH 480 0
DWIDTH 12 0
BBX 12 24 0 -4
BITMAP
0000
0000
0000
0000
1C70
0EE0
07C0
0380
0100
0000
7FF0
7FF0
00E0
03C0
0780
1E00
3C00
7000
FFE0
FFE0
0000
0000
0000
0000
ENDCHAR
STARTCHAR LATIN CAPITAL LETTER S WITH COMMA BELOW
ENCODING 536
SWIDTH 480 0
DWIDTH 12 0
BBX 12 24 0 -4
BITMAP
0000
0000
0000
0000
0000
0000
0FF0
1FF0
3800
3800
7000
7000
3FC0
1FE0
0070
0070
00E0
00E0
FFC0
FF80
0E00
0E00
1C00
3800
ENDCHAR
STARTCHAR LATIN SMALL LETTER S WITH COMMA BELOW
ENCODING 537
SWIDTH 480 0
DWIDTH 12 0
BBX 12 24 0 -4
BITMAP
0000
0000
0000
0000
0000
0000
0000
0000
0000
0000
1FF0
3FF0
7000
7000
3F80
1FC0
00E0
00E0
FFC0
FF80
0E00
0E00
1C00
3800
ENDCHAR
STARTCHAR LATIN CAPITAL LETTER T WITH COMMA BELOW
ENCODING 538
SWIDTH 480 0
DWIDTH 12 0
BBX 12 24 0 -4
BITMAP
0000
0000
0000
0000
0000
0000
3FF0
3FF0
0380
0380
0380
0700
0700
0700
0700
0E00
0E00
0E00
0E00
0E00
1C00
1C00
3800
7000
ENDCHAR
STARTCHAR LATIN SMALL LETTER T WITH COMMA BELOW
ENCODING 539
SWIDTH 480 0
DWIDTH 12 0
BBX 12 24 0 -4
BITMAP
0000
0000
0000
0000
0700
0700
0700
0700
0E00
0E00
3F80
3F80
0E00
0E00
1C00
1C00
1C00
1C00
0FC0
07C0
0700
0700
0E00
1C00
ENDCHAR
STARTCHAR CARON
ENCODING 711
SWIDTH 480 0
DWIDTH 12 0
BBX 12 24 0 -4
BITMAP
38E0
1DC0
0F80
0700
0200
0000
0000
0000
0000
0000
0000
0000
0000
0000
0000
0000
0000
0000
0000
0000
0000
0000
0000
0000
ENDCHAR
STARTCHAR BREVE
ENCODING 728
SWIDTH 480 0
DWIDTH 12 0
BBX 12 24 0 -4
BITMAP
7070
3FE0
1FC0
0000
0000
0000
0000
0000
0000
0000
0000
0000
0000
0000
0000
0000
0000
0000
0000
0000
0000
0000
0000
0000
ENDCHAR
STARTCHAR DOT ABOVE
ENCODING 729
SWIDTH 480 0
DWIDTH 12 0
BBX 12 24 0 -4
BITMAP
0000
0700
0700
0700
0000
0000
0000
0000
0000
0000
0000
0000
0000
0000
0000
0000
0000
0000
0000
0000
0000
0000
0000
0000
ENDCHAR
STARTCHAR OGONEK
ENCODING 731
SWIDTH 480 0
DWIDTH 12 0
BBX 12 24 0 -4
BITMAP
0000
0000
0000
0000
0000
0000
0000
0000
0000
0000
0000
0000
0000
0000
0000
0000
0000
0000
0000
0000
00E0
01C0
01C0
00E0
ENDCHAR
STARTCHAR DOUBLE ACUTE ACCENT
ENCODING 733
SWIDTH 480 0
DWIDTH 12 0
BBX 12 24 0 -4
BITMAP
0770
0770
0EE0
0EE0
0000
0000
0000
0000
0000
0000
0000
0000
0000
0000
0000
0000
0000
0000
0000
0000
0000
0000
0000
0000
ENDCHAR
STARTCHAR GREEK YPOGEGRAMMENI
ENCODING 890
SWIDTH 480 0
DWIDTH 12 0
BBX 12 24 0 -4
BITMAP
0000
0000
0000
0000
0000
0000
0000
0000
0000
0000
0000
0000
0000
0000
0000
0000
0000
0000
0000
0000
0E00
0E00
0E00
0E00
ENDCHAR
STARTCHAR GREEK QUESTION MARK
ENCODING 894
SWIDTH 480 0
DWIDTH 12 0
BBX 12 24 0 -4
BITMAP
0000
0000
0000
0000
0000
0000
0000
0000
0000
0000
0380
0380
0380
0000
0000
0000
0000
0000
0700
0E00
1C00
3800
0000
0000
ENDCHAR
STARTCHAR GREEK TONOS
ENCODING 900
SWIDTH 480 0
DWIDTH 12 0
BBX 12 24 0 -4
BITMAP
0070
00E0
01C0
0380
0000
0000
0000
0000
0000
0000
0000
0000
0000
0000
0000
0000
0000
0000
0000
0000
0000
0000
0000
0000
ENDCHAR
STARTCHAR GREEK DIALYTIKA TONOS
ENCODING 901
SWIDTH 480 0
DWIDTH 12 0
BBX 12 24 0 -4
BITMAP
00E0
01C0
0380
7770
7070
7070
0000
0000
0000
0000
0000
0000
0000
0000
0000
0000
0000
0000
0000
0000
0000
0000
0000
0000
ENDCHAR
STARTCHAR GREEK CAPITAL LETTER ALPHA WITH TONOS
ENCODING 902
SWIDTH 480 0
DWIDTH 12 0
BBX 12 24 0 -4
BITMAP
0000
0000
0000
0000
1C00
3800
77C0
EFE0
1870
3870
7070
70E0
70E0
70E0
7FE0
FFE0
E1C0
E1C0
E1C0
E1C0
0000
0000
0000
0000
ENDCHAR
STARTCHAR GREEK CAPITAL LETTER EPSILON WITH TONOS
ENCODING 904
SWIDTH 480 0
DWIDTH 12 0
BBX 12 24 0 -4
BITMAP
0000
0000
0000
0000
1C00
3800
77F0
EFF0
1800
3800
7000
7000
7F00
7F00
7000
E000
E000
E000
FFE0
FFE0
0000
0000
0000
0000
ENDCHAR
STARTCHAR GREEK CAPITAL LETTER ETA WITH TONOS
ENCODING 905
SWIDTH 480 0
DWIDTH 12 0
BBX 12 24 0 -4
BITMAP
0000
0000
0000
0000
1C00
3800
7070
E870
1870
3870
7070
70E0
7FE0
7FE0
70E0
E0E0
E1C0
E1C0
E1C0
E1C0
0000
0000
0000
0000
ENDCHAR
STARTCHAR GREEK CAPITAL LETTER IOTA WITH TONOS
ENCODING 906
SWIDTH 480 0
DWIDTH 12 0
BBX 12 24 0 -4
BITMAP
0000
0000
0000
0000
0E00
1C00
3BF0
73F0
01C0
01C0
01C0
0380
0380
0380
0380
0700
0700
0700
1F80
1F80
0000
0000
0000
0000
ENDCHAR
STARTCHAR GREEK CAPITAL LETTER OMICRON WITH TONOS
ENCODING 908
SWIDTH 480 0
DWIDTH 12 0
BBX 12 24 0 -4
BITMAP
0000
0000
0000
0000
1C00
3800
77C0
EFE0
1870
3870
7070
7070
70E0
70E0
E0E0
E0E0
E1C0
E1C0
7F80
3F00
0000
0000
0000
0000
ENDCHAR
STARTCHAR GREEK CAPITAL LETTER UPSILON WITH TONOS
ENCODING 910
SWIDTH 480 0
DWIDTH 12 0
BBX 12 24 0 -4
BITMAP
0000
0000
0000
0000
1C00
3800
7070
E870
1870
3870
1CE0
1DC0
0F80
0F00
0E00
0E00
0E00
1C00
1C00
1C00
0000
0000
0000
0000
ENDCHAR
STARTCHAR GREEK CAPITAL LETTER OMEGA WITH TONOS
ENCODING 911
SWIDTH 480 0
DWIDTH 12 0
BBX 12 24 0 -4
BITMAP
0000
0000
0000
0000
1C00
3800
77C0
EFE0
1870
7070
7070
E070
E070
E0E0
E0E0
E1C0
7380
3300
F3C0
F3C0
0000
0000
0000
0000
ENDCHAR
STARTCHAR GREEK SMALL LETTER IOTA WITH DIALYTIKA AND TONOS
ENCODING 912
SWIDTH 480 0
DWIDTH 12 0
BBX 12 24 0 -4
BITMAP
0070
00E0
01C0
0380
0000
1CE0
1CE0
1CE0
0000
0000
0700
0700
0700
0700
0E00
0E00
0E00
0E00
0E00
0700
0000
0000
0000
0000
ENDCHAR
STARTCHAR GREEK CAPITAL LETTER ALPHA
ENCODING 913
SWIDTH 480 0
DWIDTH 12 0
BBX 12 24 0 -4
BITMAP
0000
0000
0000
0000
0000
0000
0FC0
1FE0
3870
3870
7070
70E0
70E0
70E0
7FE0
FFE0
E1C0
E1C0
E1C0
E1C0
0000
0000
0000
0000
ENDCHAR
STARTCHAR GREEK CAPITAL LETTER BETA
ENCODING 914
SWIDTH 480 0
DWIDTH 12 0
BBX 12 24 0 -4
BITMAP
0000
0000
0000
0000
0000
0000
3FC0
3FE0
3870
3870
70E0
70E0
7FC0
7FC0
70E0
E0E0
E1C0
E1C0
FF80
FF00
0000
0000
0000
0000
ENDCHAR
STARTCHAR GREEK CAPITAL LETTER GAMMA
ENCODING 915
SWIDTH 480 0
DWIDTH 12 0
BBX 12 24 0 -4
BITMAP
0000
0000
0000
0000
0000
0000
3FF0
3FF0
3800
3800
7000
7000
7000
7000
7000
E000
E000
E000
E000
E000
0000
0000
0000
0000
ENDCHAR
STARTCHAR GREEK CAPITAL LETTER DELTA
ENCODING 916
SWIDTH 480 0
DWIDTH 12 0
BBX 12 24 0 -4
BITMAP
0000
0000
0000
0000
0000
0000
0380
0380
07C0
07C0
0FC0
0FC0
1CE0
1CE0
38E0
38E0
7070
7070
FFF0
FFF0
0000
0000
0000
0000
ENDCHAR
STARTCHAR GREEK CAPITAL LETTER EPSILON
ENCODING 917
SWIDTH 480 0
DWIDTH 12 0
BBX 12 24 0 -4
BITMAP
0000
0000
0000
0000
0000
0000
3FF0
3FF0
3800
3800
7000
7000
7F00
7F00
7000
E000
E000
E000
FFE0
FFE0
0000
0000
0000
0000
ENDCHAR
STARTCHAR GREEK CAPITAL LETTER ZETA
ENCODING 918
SWIDTH 480 0
DWIDTH 12 0
BBX 12 24 0 -4
BITMAP
0000
0000
0000
0000
0000
0000
3FF0
3FF0
0070
0070
00E0
01C0
0780
1E00
3800
7000
E000
E000
FFC0
FFC0
0000
0000
0000
0000
ENDCHAR
STARTCHAR GREEK CAPITAL LETTER ETA
ENCODING 919
SWIDTH 480 0
DWIDTH 12 0
BBX 12 24 0 -4
BITMAP
0000
0000
0000
0000
0000
0000
3870
3870
3870
3870
7070
70E0
7FE0
7FE0
70E0
E0E0
E1C0
E1C0
E1C0
E1C0
0000
0000
0000
0000
ENDCHAR
STARTCHAR GREEK CAPITAL LETTER THETA
ENCODING 920
SWIDTH 480 0
DWIDTH 12 0
BBX 12 24 0 -4
BITMAP
0000
0000
0000
0000
0000
0000
0FC0
1FE0
3870
3870
7070
7070
7FE0
7FE0
E0E0
E0E0
E1C0
E1C0
7F80
3F00
0000
0000
0000
0000
ENDCHAR
STARTCHAR GREEK CAPITAL LETTER IOTA
ENCODING 921
SWIDTH 480 0
DWIDTH 12 0
BBX 12 24 0 -4
BITMAP
0000
0000
0000
0000
0000
0000
07E0
07E0
0380
0380
0380
0700
0700
0700
0700
0E00
0E00
0E00
3F00
3F00
0000
0000
0000
0000
ENDCHAR
STARTCHAR GREEK CAPITAL LETTER KAPPA
ENCODING 922
SWIDTH 480 0
DWIDTH 12 0
BBX 12 24 0 -4
BITMAP
0000
0000
0000
0000
0000
0000
3830
3870
38E0
39C0
7380
7700
7E00
7C00
7C00
7E00
E700
E380
E1C0
E0E0
0000
0000
0000
0000
ENDCHAR
STARTCHAR GREEK CAPITAL LETTER LAMDA
ENCODING 923
SWIDTH 480 0
DWIDTH 12 0
BBX 12 24 0 -4
BITMAP
0000
0000
0000
0000
0000
0000
0380
0380
07C0
07C0
0FC0
0FC0
1CE0
1CE0
38E0
38E0
7070
7070
E070
E070
0000
0000
0000
0000
ENDCHAR
STARTCHAR GREEK CAPITAL LETTER MU
ENCODING 924
SWIDTH 480 0
DWIDTH 12 0
BBX 12 24 0 -4
BITMAP
0000
0000
0000
0000
0000
0000
3030
3870
3CF0
3FF0
77F0
73E0
70E0
70E0
70E0
E0E0
E1C0
E1C0
E1C0
E1C0
0000
0000
0000
0000
ENDCHAR
STARTCHAR GREEK CAPITAL LETTER NU
ENCODING 925
SWIDTH 480 0
DWIDTH 12 0
BBX 12 24 0 -4
BITMAP
0000
0000
0000
0000
0000
0000
3870
3870
3870
3870
7C70
7EE0
77E0
73E0
71E0
E0E0
E1C0
E1C0
E1C0
E1C0
0000
0000
0000
0000
ENDCHAR
STARTCHAR GREEK CAPITAL LETTER XI
ENCODING 926
SWIDTH 480 0
DWIDTH 12 0
BBX 12 24 0 -4
BITMAP
0000
0000
0000
0000
0000
0000
3FF0
3FF0
3FF0
0000
0000
0000
1FC0
1FC0
0000
0000
0000
FFE0
FFE0
FFE0
0000
0000
0000
0000
ENDCHAR
STARTCHAR GREEK CAPITAL LETTER OMICRON
ENCODING 927
SWIDTH 480 0
DWIDTH 12 0
BBX 12 24 0 -4
BITMAP
0000
0000
0000
0000
0000
0000
0FC0
1FE0
3870
3870
7070
7070
70E0
70E0
E0E0
E0E0
E1C0
E1C0
7F80
3F00
0000
0000
0000
0000
ENDCHAR
STARTCHAR GREEK CAPITAL LETTER PI
ENCODING 928
SWIDTH 480 0
DWIDTH 12 0
BBX 12 24 0 -4
BITMAP
0000
0000
0000
0000
0000
0000
3FF0
3FF0
3870
3870
7070
70E0
70E0
70E0
70E0
E0E0
E1C0
E1C0
E1C0
E1C0
0000
0000
0000
0000
ENDCHAR
STARTCHAR GREEK CAPITAL LETTER RHO
ENCODING 929
SWIDTH 480 0
DWIDTH 12 0
BBX 12 24 0 -4
BITMAP
0000
0000
0000
0000
0000
0000
3FC0
3FE0
3870
3870
7070
70E0
70E0
70E0
7FC0
FF80
E000
E000
E000
E000
0000
0000
0000
0000
ENDCHAR
STARTCHAR GREEK CAPITAL LETTER SIGMA
ENCODING 931
SWIDTH 480 0
DWIDTH 12 0
BBX 12 24 0 -4
BITMAP
0000
0000
0000
0000
0000
0000
3FF0
3FF0
3FF0
1C00
0E00
0700
0380
0700
0E00
1C00
3800
7FE0
FFE0
FFE0
0000
0000
0000
0000
ENDCHAR
STARTCHAR GREEK CAPITAL LETTER TAU
ENCODING 932
SWIDTH 480 0
DWIDTH 12 0
BBX 12 24 0 -4
BITMAP
0000
0000
0000
0000
0000
0000
7FF0
7FF0
0700
0700
0700
0E00
0E00
0E00
0E00
1C00
1C00
1C00
1C00
1C00
0000
0000
0000
0000
ENDCHAR
STARTCHAR GREEK CAPITAL LETTER UPSILON
ENCODING 933
SWIDTH 480 0
DWIDTH 12 0
BBX 12 24 0 -4
BITMAP
0000
0000
0000
0000
0000
0000
E070
E070
E070
E0E0
71C0
3B80
1F00
1E00
1C00
1C00
1C00
3800
3800
3800
0000
0000
0000
0000
ENDCHAR
STARTCHAR GREEK CAPITAL LETTER PHI
ENCODING 934
SWIDTH 480 0
DWIDTH 12 0
BBX 12 24 0 -4
BITMAP
0000
0000
0000
0000
0000
0000
0300
0300
1FC0
3FE0
7770
7670
E670
E670
E6E0
ECE0
7FC0
3F80
0C00
0C00
0000
0000
0000
0000
ENDCHAR
STARTCHAR GREEK CAPITAL LETTER CHI
ENCODING 935
SWIDTH 480 0
DWIDTH 12 0
BBX 12 24 0 -4
BITMAP
0000
0000
0000
0000
0000
0000
3870
3870
3870
1CE0
0FC0
0780
0700
0F00
1F00
3B80
71C0
E0E0
E0E0
E0E0
0000
0000
0000
0000
ENDCHAR
STARTCHAR GREEK CAPITAL LETTER PSI
ENCODING 936
SWIDTH 480 0
DWIDTH 12 0
BBX 12 24 0 -4
BITMAP
0000
0000
0000
0000
0000
0000
7770
7770
E770
EE70
EEE0
EEE0
7FC0
3F80
0E00
1C00
1C00
1C00
1C00
1C00
0000
0000
0000
0000
ENDCHAR
STARTCHAR GREEK CAPITAL LETTER OMEGA
ENCODING 937
SWIDTH 480 0
DWIDTH 12 0
BBX 12 24 0 -4
BITMAP
0000
0000
0000
0000
0000
0000
0FC0
1FE0
3870
7070
7070
E070
E070
E0E0
E0E0
E1C0
7380
3300
F3C0
F3C0
0000
0000
0000
0000
ENDCHAR
STARTCHAR GREEK CAPITAL LETTER IOTA WITH DIALYTIKA
ENCODING 938
SWIDTH 480 0
DWIDTH 12 0
BBX 12 24 0 -4
BITMAP
0000
0E70
0E70
0E70
0000
0000
07E0
07E0
0380
0380
0380
0700
0700
0700
0700
0E00
0E00
0E00
3F00
3F00
0000
0000
0000
0000
ENDCHAR
STARTCHAR GREEK CAPITAL LETTER UPSILON WITH DIALYTIKA
ENCODING 939
SWIDTH 480 0
DWIDTH 12 0
BBX 12 24 0 -4
BITMAP
0000
0E70
0E70
0E70
0000
0000
E070
E070
E070
E0E0
71C0
3B80
1F00
1E00
1C00
1C00
1C00
3800
3800
3800
0000
0000
0000
0000
ENDCHAR
STARTCHAR GREEK SMALL LETTER ALPHA WITH TONOS
ENCODING 940
SWIDTH 480 0
DWIDTH 12 0
BBX 12 24 0 -4
BITMAP
0000
0000
0000
0000
0070
00E0
01C0
0380
0000
0000
1FB0
3FF0
7070
7070
E070
E070
E0E0
E0E0
7FF0
3F70
0000
0000
0000
0000
ENDCHAR
STARTCHAR GREEK SMALL LETTER EPSILON WITH TONOS
ENCODING 941
SWIDTH 480 0
DWIDTH 12 0
BBX 12 24 0 -4
BITMAP
0000
0000
0000
0000
0070
00E0
01C0
0380
0000
0000
1FF0
3FF0
7000
7000
3E00
7E00
E000
E000
7FE0
3FE0
0000
0000
0000
0000
ENDCHAR
STARTCHAR GREEK SMALL LETTER ETA WITH TONOS
ENCODING 942
SWIDTH 480 0
DWIDTH 12 0
BBX 12 24 0 -4
BITMAP
0000
0000
0000
0000
0070
00E0
01C0
0380
0000
0000
7FC0
7FE0
7070
7070
E070
E070
E0E0
E0E0
E0E0
E0E0
00E0
00E0
01C0
01C0
ENDCHAR
STARTCHAR GREEK SMALL LETTER IOTA WITH TONOS
ENCODING 943
SWIDTH 480 0
DWIDTH 12 0
BBX 12 24 0 -4
BITMAP
0000
0000
0000
0000
0070
00E0
01C0
0380
0000
0000
0700
0700
0700
0700
0E00
0E00
0E00
0E00
0E00
0700
0000
0000
0000
0000
ENDCHAR
STARTCHAR GREEK SMALL LETTER UPSILON WITH DIALYTIKA AND TONOS
ENCODING 944
SWIDTH 480 0
DWIDTH 12 0
BBX 12 24 0 -4
BITMAP
0070
00E0
01C0
0380
0000
1CE0
1CE0
1CE0
0000
0000
7070
7070
7070
7070
7070
7070
7070
7070
3FE0
1FC0
0000
0000
0000
0000
ENDCHAR
STARTCHAR GREEK SMALL LETTER ALPHA
ENCODING 945
SWIDTH 480 0
DWIDTH 12 0
BBX 12 24 0 -4
BITMAP
0000
0000
0000
0000
0000
0000
0000
0000
0000
0000
1FB0
3FF0
7070
7070
E070
E070
E0E0
E0E0
7FF0
3F70
0000
0000
0000
0000
ENDCHAR
STARTCHAR GREEK SMALL LETTER BETA
ENCODING 946
SWIDTH 480 0
DWIDTH 12 0
BBX 12 24 0 -4
BITMAP
0000
0000
0000
0000
0780
0FC0
1CE0
1CE0
38E0
38E0
39C0
3B80
3B80
39C0
70E0
7070
7070
7870
7FE0
77C0
E000
E000
E000
E000
ENDCHAR
STARTCHAR GREEK SMALL LETTER GAMMA
ENCODING 947
SWIDTH 480 0
DWIDTH 12 0
BBX 12 24 0 -4
BITMAP
0000
0000
0000
0000
0000
0000
0000
0000
0000
0000
7070
7070
38E0
38E0
39C0
1F80
1F00
1E00
0E00
0E00
0E00
1C00
1C00
1C00
ENDCHAR
STARTCHAR GREEK SMALL LETTER DELTA
ENCODING 948
SWIDTH 480 0
DWIDTH 12 0
BBX 12 24 0 -4
BITMAP
0000
0000
0000
0000
07F0
0FF0
1C00
1C00
0E00
0780
1FC0
3FE0
7070
7070
E070
E070
E0E0
E0E0
7FC0
3F80
0000
0000
0000
0000
ENDCHAR
STARTCHAR GREEK SMALL LETTER EPSILON
ENCODING 949
SWIDTH 480 0
DWIDTH 12 0
BBX 12 24 0 -4
BITMAP
0000
0000
0000
0000
0000
0000
0000
0000
0000
0000
1FF0
3FF0
7000
7000
3E00
7E00
E000
E000
7FE0
3FE0
0000
0000
0000
0000
ENDCHAR
STARTCHAR GREEK SMALL LETTER ZETA
ENCODING 950
SWIDTH 480 0
DWIDTH 12 0
BBX 12 24 0 -4
BITMAP
0000
0000
0000
0000
3FF0
3FF0
0070
00E0
01C0
0380
0700
0E00
1C00
3800
7000
E000
E000
E000
7F80
3FC0
00E0
00E0
0000
0000
ENDCHAR
STARTCHAR GREEK SMALL LETTER ETA
ENCODING 951
SWIDTH 480 0
DWIDTH 12 0
BBX 12 24 0 -4
BITMAP
0000
0000
0000
0000
0000
0000
0000
0000
0000
0000
7FC0
7FE0
7070
7070
E070
E070
E0E0
E0E0
E0E0
E0E0
00E0
00E0
01C0
01C0
ENDCHAR
STARTCHAR GREEK SMALL LETTER THETA
ENCODING 952
SWIDTH 480 0
DWIDTH 12 0
BBX 12 24 0 -4
BITMAP
0000
0000
0000
0000
0FC0
1FE0
3870
3870
7070
7070
70E0
7FE0
7FE0
70E0
E0E0
E0E0
E1C0
E1C0
7F80
3F00
0000
0000
0000
0000
ENDCHAR
STARTCHAR GREEK SMALL LETTER IOTA
ENCODING 953
SWIDTH 480 0
DWIDTH 12 0
BBX 12 24 0 -4
BITMAP
0000
0000
0000
0000
0000
0000
0000
0000
0000
0000
0700
0700
0700
0700
0E00
0E00
0E00
0E00
0E00
0700
0000
0000
0000
0000
ENDCHAR
STARTCHAR GREEK SMALL LETTER KAPPA
ENCODING 954
SWIDTH 480 0
DWIDTH 12 0
BBX 12 24 0 -4
BITMAP
0000
0000
0000
0000
0000
0000
0000
0000
0000
0000
38E0
39C0
3B80
3F00
7E00
7C00
7E00
7700
7380
71C0
0000
0000
0000
0000
ENDCHAR
STARTCHAR GREEK SMALL LETTER LAMDA
ENCODING 955
SWIDTH 480 0
DWIDTH 12 0
BBX 12 24 0 -4
BITMAP
0000
0000
0000
0000
3C00
3E00
0700
0700
0380
0380
0380
0780
0FC0
0FC0
1DC0
39C0
38E0
70E0
E0E0
E070
0000
0000
0000
0000
ENDCHAR
STARTCHAR GREEK SMALL LETTER MU
ENCODING 956
SWIDTH 480 0
DWIDTH 12 0
BBX 12 24 0 -4
BITMAP
0000
0000
0000
0000
0000
0000
0000
0000
0000
0000
3870
3870
3870
3870
7070
7070
70E0
70E0
7FC0
7F80
E000
E000
E000
E000
ENDCHAR
STARTCHAR GREEK SMALL LETTER NU
ENCODING 957
SWIDTH 480 0
DWIDTH 12 0
BBX 12 24 0 -4
BITMAP
0000
0000
0000
0000
0000
0000
0000
0000
0000
0000
7070
7070
7070
3870
38E0
38E0
1DC0
1F80
1F00
0E00
0000
0000
0000
0000
ENDCHAR
STARTCHAR GREEK SMALL LETTER XI
ENCODING 958
SWIDTH 480 0
DWIDTH 12 0
BBX 12 24 0 -4
BITMAP
0000
0000
0000
0000
0FF0
0FF0
0700
0E00
1C00
0E00
07C0
0FC0
1C00
3800
7000
E000
E000
E000
7F80
3FC0
00E0
00E0
0000
0000
ENDCHAR
STARTCHAR GREEK SMALL LETTER OMICRON
ENCODING 959
SWIDTH 480 0
DWIDTH 12 0
BBX 12 24 0 -4
BITMAP
0000
0000
0000
0000
0000
0000
0000
0000
0000
0000
1FC0
3FE0
7070
7070
E070
E070
E0E0
E0E0
7FC0
3F80
0000
0000
0000
0000
ENDCHAR
STARTCHAR GREEK SMALL LETTER PI
ENCODING 960
SWIDTH 480 0
DWIDTH 12 0
BBX 12 24 0 -4
BITMAP
0000
0000
0000
0000
0000
0000
0000
0000
0000
0000
7FF0
7FF0
1DC0
1DC0
39C0
39C0
3B80
3B80
F3E0
E1E0
0000
0000
0000
0000
ENDCHAR
STARTCHAR GREEK SMALL LETTER RHO
ENCODING 961
SWIDTH 480 0
DWIDTH 12 0
BBX 12 24 0 -4
BITMAP
0000
0000
0000
0000
0000
0000
0000
0000
0000
0000
0FC0
1FE0
3870
3870
7070
7070
70E0
70E0
7FC0
FF80
E000
E000
E000
E000
ENDCHAR
STARTCHAR GREEK SMALL LETTER FINAL SIGMA
ENCODING 962
SWIDTH 480 0
DWIDTH 12 0
BBX 12 24 0 -4
BITMAP
0000
0000
0000
0000
0000
0000
0000
0000
0000
0000
1FF0
3FF0
7000
7000
E000
E000
E000
E000
7F80
3FC0
00E0
00E0
0000
0000
ENDCHAR
STARTCHAR GREEK SMALL LETTER SIGMA
ENCODING 963
SWIDTH 480 0
DWIDTH 12 0
BBX 12 24 0 -4
BITMAP
0000
0000
0000
0000
0000
0000
0000
0000
0000
0030
1FF0
3FE0
71C0
70E0
E070
E070
E0E0
E0E0
7FC0
3F80
0000
0000
0000
0000
ENDCHAR
STARTCHAR GREEK SMALL LETTER TAU
ENCODING 964
SWIDTH 480 0
DWIDTH 12 0
BBX 12 24 0 -4
BITMAP
0000
0000
0000
0000
0000
0000
0000
0000
0000
0000
7FF0
7FF0
0700
0700
0700
0E00
0E00
0E00
0E00
0700
0000
0000
0000
0000
ENDCHAR
STARTCHAR GREEK SMALL LETTER UPSILON
ENCODING 965
SWIDTH 480 0
DWIDTH 12 0
BBX 12 24 0 -4
BITMAP
0000
0000
0000
0000
0000
0000
0000
0000
0000
0000
7070
7070
7070
7070
E070
E070
E0E0
E0E0
7FC0
3F80
0000
0000
0000
0000
ENDCHAR
STARTCHAR GREEK SMALL LETTER PHI
ENCODING 966
SWIDTH 480 0
DWIDTH 12 0
BBX 12 24 0 -4
BITMAP
0000
0000
0000
0000
0000
0000
0000
0000
0000
0000
01C0
73E0
7770
7770
E770
EE70
EEE0
EEE0
7FC0
3F80
0E00
1C00
1C00
1C00
ENDCHAR
STARTCHAR GREEK SMALL LETTER CHI
ENCODING 967
SWIDTH 480 0
DWIDTH 12 0
BBX 12 24 0 -4
BITMAP
0000
0000
0000
0000
0000
0000
0000
0000
0000
0000
7C70
7E70
0770
0770
07E0
07C0
0700
0E00
3E00
7E00
EE00
EE00
E7E0
E3E0
ENDCHAR
STARTCHAR GREEK SMALL LETTER PSI
ENCODING 968
SWIDTH 480 0
DWIDTH 12 0
BBX 12 24 0 -4
BITMAP
0000
0000
0000
0000
0000
0000
0380
0380
0380
0700
7770
7770
7770
7770
E770
EE70
EEE0
EEE0
7FC0
3F80
0E00
1C00
1C00
1C00
ENDCHAR
STARTCHAR GREEK SMALL LETTER OMEGA
ENCODING 969
SWIDTH 480 0
DWIDTH 12 0
BBX 12 24 0 -4
BITMAP
0000
0000
0000
0000
0000
0000
0000
0000
0000
0000
18C0
38E0
7070
7070
E770
EE70
EEE0
EEE0
7FC0
3B80
0000
0000
0000
0000
ENDCHAR
STARTCHAR GREEK SMALL LETTER IOTA WITH DIALYTIKA
ENCODING 970
SWIDTH 480 0
DWIDTH 12 0
BBX 12 24 0 -4
BITMAP
0000
0000
0000
0000
0000
1CE0
1CE0
1CE0
0000
0000
0700
0700
0700
0700
0E00
0E00
0E00
0E00
0E00
0700
0000
0000
0000
0000
ENDCHAR
STARTCHAR GREEK SMALL LETTER UPSILON WITH DIALYTIKA
ENCODING 971
SWIDTH 480 0
DWIDTH 12 0
BBX 12 24 0 -4
BITMAP
0000
0000
0000
0000
0000
1CE0
1CE0
1CE0
0000
0000
7070
7070
7070
7070
E070
E070
E0E0
E0E0
7FC0
3F80
0000
0000
0000
0000
ENDCHAR
STARTCHAR GREEK SMALL LETTER OMICRON WITH TONOS
ENCODING 972
SWIDTH 480 0
DWIDTH 12 0
BBX 12 24 0 -4
BITMAP
0000
0000
0000
0000
0070
00E0
01C0
0380
0000
0000
1FC0
3FE0
7070
7070
E070
E070
E0E0
E0E0
7FC0
3F80
0000
0000
0000
0000
ENDCHAR
STARTCHAR GREEK SMALL LETTER UPSILON WITH TONOS
ENCODING 973
SWIDTH 480 0
DWIDTH 12 0
BBX 12 24 0 -4
BITMAP
0000
0000
0000
0000
0070
00E0
01C0
0380
0000
0000
7070
7070
7070
7070
E070
E070
E0E0
E0E0
7FC0
3F80
0000
0000
0000
0000
ENDCHAR
STARTCHAR GREEK SMALL LETTER OMEGA WITH TONOS
ENCODING 974
SWIDTH 480 0
DWIDTH 12 0
BBX 12 24 0 -4
BITMAP
0000
0000
0000
0000
0070
00E0
01C0
0380
0000
0000
18C0
38E0
7070
7070
E770
EE70
EEE0
EEE0
7FC0
3B80
0000
0000
0000
0000
ENDCHAR
STARTCHAR CYRILLIC CAPITAL LETTER IO
ENCODING 1025
SWIDTH 480 0
DWIDTH 12 0
BBX 12 24 0 -4
BITMAP
0000
0E70
0E70
0E70
0000
0000
3FF0
3FF0
3800
3800
7000
7000
7F00
7F00
7000
E000
E000
E000
FFE0
FFE0
0000
0000
0000
0000
ENDCHAR
STARTCHAR CYRILLIC CAPITAL LETTER DJE
ENCODING 1026
SWIDTH 480 0
DWIDTH 12 0
BBX 12 24 0 -4
BITMAP
0000
0000
0000
0000
0000
0000
FF00
FF00
3800
3800
7000
7000
7FC0
7FE0
7070
E070
E070
E0E0
E0E0
E0E0
03C0
0380
0000
0000
ENDCHAR
STARTCHAR CYRILLIC CAPITAL LETTER GJE
ENCODING 1027
SWIDTH 480 0
DWIDTH 12 0
BBX 12 24 0 -4
BITMAP
0070
00E0
01C0
0380
0000
0000
3FF0
3FF0
3800
3800
7000
7000
7000
7000
7000
E000
E000
E000
E000
E000
0000
0000
0000
0000
ENDCHAR
STARTCHAR CYRILLIC CAPITAL LETTER UKRAINIAN IE
ENCODING 1028
SWIDTH 480 0
DWIDTH 12 0
BBX 12 24 0 -4
BITMAP
0000
0000
0000
0000
0000
0000
0FF0
1FF0
3800
3800
7000
7000
7F00
7F00
7000
E000
E000
E000
7FE0
3FE0
0000
0000
0000
0000
ENDCHAR
STARTCHAR CYRILLIC CAPITAL LETTER DZE
ENCODING 1029
SWIDTH 480 0
DWIDTH 12 0
BBX 12 24 0 -4
BITMAP
0000
0000
0000
0000
0000
0000
0FF0
1FF0
3800
3800
7000
7000
3FC0
1FE0
0070
0070
00E0
00E0
FFC0
FF80
0000
0000
0000
0000
ENDCHAR
STARTCHAR CYRILLIC CAPITAL LETTER BYELORUSSIAN-UKRAINIAN I
ENCODING 1030
SWIDTH 480 0
DWIDTH 12 0
BBX 12 24 0 -4
BITMAP
0000
0000
0000
0000
0000
0000
07E0
07E0
0380
0380
0380
0700
0700
0700
0700
0E00
0E00
0E00
3F00
3F00
0000
0000
0000
0000
ENDCHAR
STARTCHAR CYRILLIC CAPITAL LETTER YI
ENCODING 1031
SWIDTH 480 0
DWIDTH 12 0
BBX 12 24 0 -4
BITMAP
0000
0E70
0E70
0E70
0000
0000
07E0
07E0
0380
0380
0380
0700
0700
0700
0700
0E00
0E00
0E00
3F00
3F00
0000
0000
0000
0000
ENDCHAR
STARTCHAR CYRILLIC CAPITAL LETTER JE
ENCODING 1032
SWIDTH 480 0
DWIDTH 12 0
BBX 12 24 0 -4
BITMAP
0000
0000
0000
0000
0000
0000
0070
0070
0070
0070
0070
00E0
00E0
00E0
00E0
00E0
01C0
E1C0
7F80
3F00
0000
0000
0000
0000
ENDCHAR
STARTCHAR CYRILLIC CAPITAL LETTER LJE
ENCODING 1033
SWIDTH 480 0
DWIDTH 12 0
BBX 12 24 0 -4
BITMAP
0000
0000
0000
0000
0000
0000
07C0
0FC0
1DC0
1DC0
39C0
3B80
3BE0
3BF0
3BB0
7730
7770
7770
E7E0
C3C0
0000
0000
0000
0000
ENDCHAR
STARTCHAR CYRILLIC CAPITAL LETTER NJE
ENCODING 1034
SWIDTH 480 0
DWIDTH 12 0
BBX 12 24 0 -4
BITMAP
0000
0000
0000
0000
0000
0000
39C0
39C0
39C0
39C0
7380
7380
7FE0
7FF0
73B0
E730
E770
E770
E7E0
E3C0
0000
0000
0000
0000
ENDCHAR
STARTCHAR CYRILLIC CAPITAL LETTER TSHE
ENCODING 1035
SWIDTH 480 0
DWIDTH 12 0
BBX 12 24 0 -4
BITMAP
0000
0000
0000
0000
0000
0000
FF00
FF00
3800
3800
7000
7000
7FC0
7FE0
7070
E070
E070
E0E0
E0E0
E0E0
0000
0000
0000
0000
ENDCHAR
STARTCHAR CYRILLIC CAPITAL LETTER KJE
ENCODING 1036
SWIDTH 480 0
DWIDTH 12 0
BBX 12 24 0 -4
BITMAP
0070
00E0
01C0
0380
0000
0000
3830
3870
38E0
39C0
7380
7700
7E00
7C00
7C00
7E00
E700
E380
E1C0
E0E0
0000
0000
0000
0000
ENDCHAR
STARTCHAR CYRILLIC CAPITAL LETTER SHORT U
ENCODING 1038
SWIDTH 480 0
DWIDTH 12 0
BBX 12 24 0 -4
BITMAP
0000
0E70
07E0
03C0
0000
0000
7070
7070
7070
7070
E070
E0E0
7FE0
3FE0
00E0
00E0
01C0
01C0
3F80
3F00
0000
0000
0000
0000
ENDCHAR
STARTCHAR CYRILLIC CAPITAL LETTER DZHE
ENCODING 1039
SWIDTH 480 0
DWIDTH 12 0
BBX 12 24 0 -4
BITMAP
0000
0000
0000
0000
0000
0000
3870
3870
3870
3870
7070
70E0
70E0
70E0
70E0
E1C0
E1C0
E1C0
FFC0
FFC0
0C00
0C00
0C00
0000
ENDCHAR
STARTCHAR CYRILLIC CAPITAL LETTER A
ENCODING 1040
SWIDTH 480 0
DWIDTH 12 0
BBX 12 24 0 -4
BITMAP
0000
0000
0000
0000
0000
0000
0FC0
1FE0
3870
3870
7070
70E0
70E0
70E0
7FE0
FFE0
E1C0
E1C0
E1C0
E1C0
0000
0000
0000
0000
ENDCHAR
STARTCHAR CYRILLIC CAPITAL LETTER BE
ENCODING 1041
SWIDTH 480 0
DWIDTH 12 0
BBX 12 24 0 -4
BITMAP
0000
0000
0000
0000
0000
0000
3FE0
3FE0
3800
3800
7000
7000
7FC0
7FE0
7070
E070
E0E0
E0E0
FFC0
FF80
0000
0000
0000
0000
ENDCHAR
STARTCHAR CYRILLIC CAPITAL LETTER VE
ENCODING 1042
SWIDTH 480 0
DWIDTH 12 0
BBX 12 24 0 -4
BITMAP
0000
0000
0000
0000
0000
0000
3FC0
3FE0
3870
3870
70E0
70E0
7FC0
7FC0
70E0
E0E0
E1C0
E1C0
FF80
FF00
0000
0000
0000
0000
ENDCHAR
STARTCHAR CYRILLIC CAPITAL LETTER GHE
ENCODING 1043
SWIDTH 480 0
DWIDTH 12 0
BBX 12 24 0 -4
BITMAP
0000
0000
0000
0000
0000
0000
3FF0
3FF0
3800
3800
7000
7000
7000
7000
7000
E000
E000
E000
E000
E000
0000
0000
0000
0000
ENDCHAR
STARTCHAR CYRILLIC CAPITAL LETTER DE
ENCODING 1044
SWIDTH 480 0
DWIDTH 12 0
BBX 12 24 0 -4
BITMAP
0000
0000
0000
0000
0000
0000
07F0
0FF0
1C70
1C70
3870
3870
38E0
38E0
38E0
70E0
70E0
70E0
FFF0
FFF0
E070
E070
0000
0000
ENDCHAR
STARTCHAR CYRILLIC CAPITAL LETTER IE
ENCODING 1045
SWIDTH 480 0
DWIDTH 12 0
BBX 12 24 0 -4
BITMAP
0000
0000
0000
0000
0000
0000
3FF0
3FF0
3800
3800
7000
7000
7F00
7F00
7000
E000
E000
E000
FFE0
FFE0
0000
0000
0000
0000
ENDCHAR
STARTCHAR CYRILLIC CAPITAL LETTER ZHE
ENCODING 1046
SWIDTH 480 0
DWIDTH 12 0
BBX 12 24 0 -4
BITMAP
0000
0000
0000
0000
0000
0000
7770
7FF0
3FE0
3FE0
3FE0
3FE0
1F80
3FC0
3FC0
7FC0
7FC0
7FC0
FFE0
EEE0
0000
0000
0000
0000
ENDCHAR
STARTCHAR CYRILLIC CAPITAL LETTER ZE
ENCODING 1047
SWIDTH 480 0
DWIDTH 12 0
BBX 12 24 0 -4
BITMAP
0000
0000
0000
0000
0000
0000
3FC0
3FE0
0070
0070
00E0
00E0
0FC0
0FC0
00E0
00E0
01C0
01C0
FF80
FF00
0000
0000
0000
0000
ENDCHAR
STARTCHAR CYRILLIC CAPITAL LETTER I
ENCODING 1048
SWIDTH 480 0
DWIDTH 12 0
BBX 12 24 0 -4
BITMAP
0000
0000
0000
0000
0000
0000
3870
3870
3870
38E0
70E0
71E0
73E0
77E0
7EE0
FCE0
F9C0
F1C0
E1C0
E1C0
0000
0000
0000
0000
ENDCHAR
STARTCHAR CYRILLIC CAPITAL LETTER SHORT I
ENCODING 1049
SWIDTH 480 0
DWIDTH 12 0
BBX 12 24 0 -4
BITMAP
0000
0E70
07E0
03C0
0000
0000
3870
3870
3870
38E0
70E0
71E0
73E0
77E0
7EE0
FCE0
F9C0
F1C0
E1C0
E1C0
0000
0000
0000
0000
ENDCHAR
STARTCHAR CYRILLIC CAPITAL LETTER KA
ENCODING 1050
SWIDTH 480 0
DWIDTH 12 0
BBX 12 24 0 -4
BITMAP
0000
0000
0000
0000
0000
0000
3830
3870
38E0
39C0
7380
7700
7E00
7C00
7C00
7E00
E700
E380
E1C0
E0E0
0000
0000
0000
0000
ENDCHAR
STARTCHAR CYRILLIC CAPITAL LETTER EL
ENCODING 1051
SWIDTH 480 0
DWIDTH 12 0
BBX 12 24 0 -4
BITMAP
0000
0000
0000
0000
0000
0000
07F0
0FF0
1C70
1C70
3870
38E0
38E0
38E0
38E0
70E0
71C0
71C0
E1C0
C1C0
0000
0000
0000
0000
ENDCHAR
STARTCHAR CYRILLIC CAPITAL LETTER EM
ENCODING 1052
SWIDTH 480 0
DWIDTH 12 0
BBX 12 24 0 -4
BITMAP
0000
0000
0000
0000
0000
0000
3030
3870
3CF0
3FF0
77F0
73E0
70E0
70E0
70E0
E0E0
E1C0
E1C0
E1C0
E1C0
0000
0000
0000
0000
ENDCHAR
STARTCHAR CYRILLIC CAPITAL LETTER EN
ENCODING 1053
SWIDTH 480 0
DWIDTH 12 0
BBX 12 24 0 -4
BITMAP
0000
0000
0000
0000
0000
0000
3870
3870
3870
3870
7070
70E0
7FE0
7FE0
70E0
E0E0
E1C0
E1C0
E1C0
E1C0
0000
0000
0000
0000
ENDCHAR
STARTCHAR CYRILLIC CAPITAL LETTER O
ENCODING 1054
SWIDTH 480 0
DWIDTH 12 0
BBX 12 24 0 -4
BITMAP
0000
0000
0000
0000
0000
0000
0FC0
1FE0
3870
3870
7070
7070
70E0
70E0
E0E0
E0E0
E1C0
E1C0
7F80
3F00
0000
0000
0000
0000
ENDCHAR
STARTCHAR CYRILLIC CAPITAL LETTER PE
ENCODING 1055
SWIDTH 480 0
DWIDTH 12 0
BBX 12 24 0 -4
BITMAP
0000
0000
0000
0000
0000
0000
3FF0
3FF0
3870
3870
7070
70E0
70E0
70E0
70E0
E0E0
E1C0
E1C0
E1C0
E1C0
0000
0000
0000
0000
ENDCHAR
STARTCHAR CYRILLIC CAPITAL LETTER ER
ENCODING 1056
SWIDTH 480 0
DWIDTH 12 0
BBX 12 24 0 -4
BITMAP
0000
0000
0000
0000
0000
0000
3FC0
3FE0
3870
3870
7070
70E0
70E0
70E0
7FC0
FF80
E000
E000
E000
E000
0000
0000
0000
0000
ENDCHAR
STARTCHAR CYRILLIC CAPITAL LETTER ES
ENCODING 1057
SWIDTH 480 0
DWIDTH 12 0
BBX 12 24 0 -4
BITMAP
0000
0000
0000
0000
0000
0000
0FF0
1FF0
3800
3800
7000
7000
7000
7000
7000
E000
E000
E000
7FE0
3FE0
0000
0000
0000
0000
ENDCHAR
STARTCHAR CYRILLIC CAPITAL LETTER TE
ENCODING 1058
SWIDTH 480 0
DWIDTH 12 0
BBX 12 24 0 -4
BITMAP
0000
0000
0000
0000
0000
0000
7FF0
7FF0
0700
0700
0700
0E00
0E00
0E00
0E00
1C00
1C00
1C00
1C00
1C00
0000
0000
0000
0000
ENDCHAR
STARTCHAR CYRILLIC CAPITAL LETTER U
ENCODING 1059
SWIDTH 480 0
DWIDTH 12 0
BBX 12 24 0 -4
BITMAP
0000
0000
0000
0000
0000
0000
7070
7070
7070
7070
E070
E0E0
7FE0
3FE0
00E0
00E0
01C0
01C0
3F80
3F00
0000
0000
0000
0000
ENDCHAR
STARTCHAR CYRILLIC CAPITAL LETTER EF
ENCODING 1060
SWIDTH 480 0
DWIDTH 12 0
BBX 12 24 0 -4
BITMAP
0000
0000
0000
0000
0000
0000
0300
0300
1FC0
3FE0
7370
7670
E670
E670
E6E0
ECE0
7FC0
3F80
0C00
0C00
0000
0000
0000
0000
ENDCHAR
STARTCHAR CYRILLIC CAPITAL LETTER HA
ENCODING 1061
SWIDTH 480 0
DWIDTH 12 0
BBX 12 24 0 -4
BITMAP
0000
0000
0000
0000
0000
0000
3870
3870
3870
1CE0
0FC0
0780
0700
0F00
1F00
3B80
71C0
E0E0
E0E0
E0E0
0000
0000
0000
0000
ENDCHAR
STARTCHAR CYRILLIC CAPITAL LETTER TSE
ENCODING 1062
SWIDTH 480 0
DWIDTH 12 0
BBX 12 24 0 -4
BITMAP
0000
0000
0000
0000
0000
0000
3870
3870
3870
3870
7070
70E0
70E0
70E0
70E0
E0E0
E1C0
E1C0
FFC0
FFF0
0070
0070
0000
0000
ENDCHAR
STARTCHAR CYRILLIC CAPITAL LETTER CHE
ENCODING 1063
SWIDTH 480 0
DWIDTH 12 0
BBX 12 24 0 -4
BITMAP
0000
0000
0000
0000
0000
0000
7070
7070
7070
7070
E070
E0E0
7FE0
3FE0
00E0
00E0
01C0
01C0
01C0
01C0
0000
0000
0000
0000
ENDCHAR
STARTCHAR CYRILLIC CAPITAL LETTER SHA
ENCODING 1064
SWIDTH 480 0
DWIDTH 12 0
BBX 12 24 0 -4
BITMAP
0000
0000
0000
0000
0000
0000
3B70
3B70
3B70
3B70
7370
76E0
76E0
76E0
76E0
ECE0
EDC0
EDC0
FFC0
FFC0
0000
0000
0000
0000
ENDCHAR
STARTCHAR CYRILLIC CAPITAL LETTER SHCHA
ENCODING 1065
SWIDTH 480 0
DWIDTH 12 0
BBX 12 24 0 -4
BITMAP
0000
0000
0000
0000
0000
0000
3B70
3B70
3B70
3B70
7370
76E0
76E0
76E0
76E0
ECE0
EDC0
EDC0
FFC0
FFF0
0070
0070
0000
0000
ENDCHAR
STARTCHAR CYRILLIC CAPITAL LETTER HARD SIGN
ENCODING 1066
SWIDTH 480 0
DWIDTH 12 0
BBX 12 24 0 -4
BITMAP
0000
0000
0000
0000
0000
0000
F800
F800
3800
3800
7000
7000
7FC0
7FE0
7070
E070
E0E0
E0E0
FFC0
FF80
0000
0000
0000
0000
ENDCHAR
STARTCHAR CYRILLIC CAPITAL LETTER YERU
ENCODING 1067
SWIDTH 480 0
DWIDTH 12 0
BBX 12 24 0 -4
BITMAP
0000
0000
0000
0000
0000
0000
3870
3870
3870
3870
7070
70E0
7EE0
7FE0
73E0
E3E0
E7C0
E7C0
FFC0
FDC0
0000
0000
0000
0000
ENDCHAR
STARTCHAR CYRILLIC CAPITAL LETTER SOFT SIGN
ENCODING 1068
SWIDTH 480 0
DWIDTH 12 0
BBX 12 24 0 -4
BITMAP
0000
0000
0000
0000
0000
0000
3800
3800
3800
3800
7000
7000
7FC0
7FE0
7070
E070
E0E0
E0E0
FFC0
FF80
0000
0000
0000
0000
ENDCHAR
STARTCHAR CYRILLIC CAPITAL LETTER E
ENCODING 1069
SWIDTH 480 0
DWIDTH 12 0
BBX 12 24 0 -4
BITMAP
0000
0000
0000
0000
0000
0000
3FC0
3FE0
0070
0070
0070
0070
0FE0
0FE0
00E0
01C0
01C0
0380
FF00
FE00
0000
0000
0000
0000
ENDCHAR
STARTCHAR CYRILLIC CAPITAL LETTER YU
ENCODING 1070
SWIDTH 480 0
DWIDTH 12 0
BBX 12 24 0 -4
BITMAP
0000
0000
0000
0000
0000
0000
39C0
3BE0
3F70
3F70
7E70
7E70
7E70
7E70
7C70
FC70
FCE0
FCE0
EFC0
E780
0000
0000
0000
0000
ENDCHAR
STARTCHAR CYRILLIC CAPITAL LETTER YA
ENCODING 1071
SWIDTH 480 0
DWIDTH 12 0
BBX 12 24 0 -4
BITMAP
0000
0000
0000
0000
0000
0000
0FF0
1FF0
3870
3870
7070
70E0
70E0
70E0
3FE0
1FE0
1DC0
39C0
71C0
E1C0
0000
0000
0000
0000
ENDCHAR
STARTCHAR CYRILLIC SMALL LETTER A
ENCODING 1072
SWIDTH 480 0
DWIDTH 12 0
BBX 12 24 0 -4
BITMAP
0000
0000
0000
0000
0000
0000
0000
0000
0000
0000
1FF0
3FF0
7070
7070
E070
E070
E0E0
E0E0
7FE0
3FE0
0000
0000
0000
0000
ENDCHAR
STARTCHAR CYRILLIC SMALL LETTER BE
ENCODING 1073
SWIDTH 480 0
DWIDTH 12 0
BBX 12 24 0 -4
BITMAP
0000
0000
0000
0030
01F0
07E0
0F00
1C00
3800
3800
7FC0
7FE0
7070
7070
E070
E070
E0E0
E0E0
7FC0
3F80
0000
0000
0000
0000
ENDCHAR
STARTCHAR CYRILLIC SMALL LETTER VE
ENCODING 1074
SWIDTH 480 0
DWIDTH 12 0
BBX 12 24 0 -4
BITMAP
0000
0000
0000
0000
0000
0000
0000
0000
0000
0000
3FC0
7FE0
7070
7070
FFE0
FFC0
E0E0
E0E0
FFC0
7F80
0000
0000
0000
0000
ENDCHAR
STARTCHAR CYRILLIC SMALL LETTER GHE
ENCODING 1075
SWIDTH 480 0
DWIDTH 12 0
BBX 12 24 0 -4
BITMAP
0000
0000
0000
0000
0000
0000
0000
0000
0000
0000
1FC0
1FE0
0070
0070
3FE0
7FC0
E000
E000
7F80
3F80
0000
0000
0000
0000
ENDCHAR
STARTCHAR CYRILLIC SMALL LETTER DE
ENCODING 1076
SWIDTH 480 0
DWIDTH 12 0
BBX 12 24 0 -4
BITMAP
0000
0000
0F00
0FC0
01E0
0070
0070
0070
0070
0070
1FF0
3FE0
70E0
70E0
E0E0
E0E0
E1C0
E1C0
7F80
3F00
0000
0000
0000
0000
ENDCHAR
STARTCHAR CYRILLIC SMALL LETTER IE
ENCODING 1077
SWIDTH 480 0
DWIDTH 12 0
BBX 12 24 0 -4
BITMAP
0000
0000
0000
0000
0000
0000
0000
0000
0000
0000
1FC0
3FE0
7070
7070
FFE0
FFC0
E000
E000
7F80
3F80
0000
0000
0000
0000
ENDCHAR
STARTCHAR CYRILLIC SMALL LETTER ZHE
ENCODING 1078
SWIDTH 480 0
DWIDTH 12 0
BBX 12 24 0 -4
BITMAP
0000
0000
0000
0000
0000
0000
0000
0000
0000
0000
E330
7370
7370
76E0
3FC0
7FC0
66E0
ECE0
ECE0
CC70
0000
0000
0000
0000
ENDCHAR
STARTCHAR CYRILLIC SMALL LETTER ZE
ENCODING 1079
SWIDTH 480 0
DWIDTH 12 0
BBX 12 24 0 -4
BITMAP
0000
0000
0000
0000
0000
0000
0000
0000
0000
0000
7FC0
7FE0
0070
0070
07E0
07C0
00E0
00E0
FFC0
FF80
0000
0000
0000
0000
ENDCHAR
STARTCHAR CYRILLIC SMALL LETTER I
ENCODING 1080
SWIDTH 480 0
DWIDTH 12 0
BBX 12 24 0 -4
BITMAP
0000
0000
0000
0000
0000
0000
0000
0000
0000
0000
7070
7070
7070
7070
E070
E070
E0E0
E0E0
7FE0
3FE0
0000
0000
0000
0000
ENDCHAR
STARTCHAR CYRILLIC SMALL LETTER SHORT I
ENCODING 1081
SWIDTH 480 0
DWIDTH 12 0
BBX 12 24 0 -4
BITMAP
0000
0000
0000
0000
0000
1CE0
0FC0
0780
0000
0000
7070
7070
7070
7070
E070
E070
E0E0
E0E0
7FE0
3FE0
0000
0000
0000
0000
ENDCHAR
STARTCHAR CYRILLIC SMALL LETTER KA
ENCODING 1082
SWIDTH 480 0
DWIDTH 12 0
BBX 12 24 0 -4
BITMAP
0000
0000
0000
0000
0000
0000
0000
0000
0000
0000
38E0
39C0
3B80
3F00
7E00
7C00
7E00
7700
7380
71C0
0000
0000
0000
0000
ENDCHAR
STARTCHAR CYRILLIC SMALL LETTER EL
ENCODING 1083
SWIDTH 480 0
DWIDTH 12 0
BBX 12 24 0 -4
BITMAP
0000
0000
0000
0000
0000
0000
0000
0000
0000
0000
07F0
0FF0
1C70
1C70
3870
3870
38E0
38E0
F0E0
E0E0
0000
0000
0000
0000
ENDCHAR
STARTCHAR CYRILLIC SMALL LETTER EM
ENCODING 1084
SWIDTH 480 0
DWIDTH 12 0
BBX 12 24 0 -4
BITMAP
0000
0000
0000
0000
0000
0000
0000
0000
0000
0000
6030
7070
78F0
7DF0
EFF0
E770
E2E0
E0E0
E0E0
E0E0
0000
0000
0000
0000
ENDCHAR
STARTCHAR CYRILLIC SMALL LETTER EN
ENCODING 1085
SWIDTH 480 0
DWIDTH 12 0
BBX 12 24 0 -4
BITMAP
0000
0000
0000
0000
0000
0000
0000
0000
0000
0000
7070
7070
7070
7070
7FF0
FFE0
E0E0
E0E0
E0E0
E0E0
0000
0000
0000
0000
ENDCHAR
STARTCHAR CYRILLIC SMALL LETTER O
ENCODING 1086
SWIDTH 480 0
DWIDTH 12 0
BBX 12 24 0 -4
BITMAP
0000
0000
0000
0000
0000
0000
0000
0000
0000
0000
1FC0
3FE0
7070
7070
E070
E070
E0E0
E0E0
7FC0
3F80
0000
0000
0000
0000
ENDCHAR
STARTCHAR CYRILLIC SMALL LETTER PE
ENCODING 1087
SWIDTH 480 0
DWIDTH 12 0
BBX 12 24 0 -4
BITMAP
0000
0000
0000
0000
0000
0000
0000
0000
0000
0000
7FC0
7FE0
7070
7070
E070
E070
E0E0
E0E0
E0E0
E0E0
0000
0000
0000
0000
ENDCHAR
STARTCHAR CYRILLIC SMALL LETTER ER
ENCODING 1088
SWIDTH 480 0
DWIDTH 12 0
BBX 12 24 0 -4
BITMAP
0000
0000
0000
0000
0000
0000
0000
0000
0000
0000
3FC0
3FE0
3870
3870
7070
70E0
70E0
70E0
7FC0
FF80
E000
E000
E000
E000
ENDCHAR
STARTCHAR CYRILLIC SMALL LETTER ES
ENCODING 1089
SWIDTH 480 0
DWIDTH 12 0
BBX 12 24 0 -4
BITMAP
0000
0000
0000
0000
0000
0000
0000
0000
0000
0000
1FF0
3FF0
7000
7000
E000
E000
E000
E000
7FE0
3FE0
0000
0000
0000
0000
ENDCHAR
STARTCHAR CYRILLIC SMALL LETTER TE
ENCODING 1090
SWIDTH 480 0
DWIDTH 12 0
BBX 12 24 0 -4
BITMAP
0000
0000
0000
0000
0000
0000
0000
0000
0000
0000
7DC0
7FE0
7770
7770
E770
EE70
EEE0
EEE0
E0E0
E0E0
0000
0000
0000
0000
ENDCHAR
STARTCHAR CYRILLIC SMALL LETTER U
ENCODING 1091
SWIDTH 480 0
DWIDTH 12 0
BBX 12 24 0 -4
BITMAP
0000
0000
0000
0000
0000
0000
0000
0000
0000
0000
7070
7070
7070
7070
E070
E070
E0E0
E0E0
7FE0
3FE0
00E0
01C0
3FC0
3F00
ENDCHAR
STARTCHAR CYRILLIC SMALL LETTER EF
ENCODING 1092
SWIDTH 480 0
DWIDTH 12 0
BBX 12 24 0 -4
BITMAP
0000
0000
0000
0000
0000
0000
0180
0180
0180
0300
1FC0
3FE0
7370
7670
E670
E670
E6E0
ECE0
7FC0
3F80
0C00
1800
1800
1800
ENDCHAR
STARTCHAR CYRILLIC SMALL LETTER HA
ENCODING 1093
SWIDTH 480 0
DWIDTH 12 0
BBX 12 24 0 -4
BITMAP
0000
0000
0000
0000
0000
0000
0000
0000
0000
0000
7070
38E0
1DC0
0F80
0700
0E00
1F00
3B80
71C0
E0E0
0000
0000
0000
0000
ENDCHAR
STARTCHAR CYRILLIC SMALL LETTER TSE
ENCODING 1094
SWIDTH 480 0
DWIDTH 12 0
BBX 12 24 0 -4
BITMAP
0000
0000
0000
0000
0000
0000
0000
0000
0000
0000
7070
7070
7070
7070
E070
E070
E0E0
E0E0
FFE0
FFF0
0070
0070
0000
0000
ENDCHAR
STARTCHAR CYRILLIC SMALL LETTER CHE
ENCODING 1095
SWIDTH 480 0
DWIDTH 12 0
BBX 12 24 0 -4
BITMAP
0000
0000
0000
0000
0000
0000
0000
0000
0000
0000
7070
7070
7070
7070
3FF0
1FE0
00E0
00E0
00E0
00E0
0000
0000
0000
0000
ENDCHAR
STARTCHAR CYRILLIC SMALL LETTER SHA
ENCODING 1096
SWIDTH 480 0
DWIDTH 12 0
BBX 12 24 0 -4
BITMAP
0000
0000
0000
0000
0000
0000
0000
0000
0000
0000
7770
7770
7770
7770
E770
EE70
EEE0
EEE0
7FE0
3BE0
0000
0000
0000
0000
ENDCHAR
STARTCHAR CYRILLIC SMALL LETTER SHCHA
ENCODING 1097
SWIDTH 480 0
DWIDTH 12 0
BBX 12 24 0 -4
BITMAP
0000
0000
0000
0000
0000
0000
0000
0000
0000
0000
7770
7770
7770
7770
E770
EE70
EEE0
EEE0
7FE0
3BF0
0070
0070
0000
0000
ENDCHAR
STARTCHAR CYRILLIC SMALL LETTER HARD SIGN
ENCODING 1098
SWIDTH 480 0
DWIDTH 12 0
BBX 12 24 0 -4
BITMAP
0000
0000
0000
0000
0000
0000
0000
0000
0000
0000
F800
F800
3800
3800
3FC0
7FE0
7070
7070
7FE0
7FC0
0000
0000
0000
0000
ENDCHAR
STARTCHAR CYRILLIC SMALL LETTER YERU
ENCODING 1099
SWIDTH 480 0
DWIDTH 12 0
BBX 12 24 0 -4
BITMAP
0000
0000
0000
0000
0000
0000
0000
0000
0000
0000
7070
7070
7070
7070
7E70
FF70
E3E0
E3E0
FFE0
FEE0
0000
0000
0000
0000
ENDCHAR
STARTCHAR CYRILLIC SMALL LETTER SOFT SIGN
ENCODING 1100
SWIDTH 480 0
DWIDTH 12 0
BBX 12 24 0 -4
BITMAP
0000
0000
0000
0000
0000
0000
0000
0000
0000
0000
7000
7000
7000
7000
7F80
FFC0
E0E0
E0E0
FFC0
FF80
0000
0000
0000
0000
ENDCHAR
STARTCHAR CYRILLIC SMALL LETTER E
ENCODING 1101
SWIDTH 480 0
DWIDTH 12 0
BBX 12 24 0 -4
BITMAP
0000
0000
0000
0000
0000
0000
0000
0000
0000
0000
7FC0
7FE0
0070
0070
07F0
07E0
00E0
00E0
FFC0
FF00
0000
0000
0000
0000
ENDCHAR
STARTCHAR CYRILLIC SMALL LETTER YU
ENCODING 1102
SWIDTH 480 0
DWIDTH 12 0
BBX 12 24 0 -4
BITMAP
0000
0000
0000
0000
0000
0000
0000
0000
0000
0000
73C0
77E0
7E70
7E70
7C70
FC70
FCE0
FCE0
EFC0
E780
0000
0000
0000
0000
ENDCHAR
STARTCHAR CYRILLIC SMALL LETTER YA
ENCODING 1103
SWIDTH 480 0
DWIDTH 12 0
BBX 12 24 0 -4
BITMAP
0000
0000
0000
0000
0000
0000
0000
0000
0000
0000
1FF0
3FF0
7070
7070
3FF0
1FE0
1CE0
38E0
70E0
E0E0
0000
0000
0000
0000
ENDCHAR
STARTCHAR CYRILLIC SMALL LETTER IO
ENCODING 1105
SWIDTH 480 0
DWIDTH 12 0
BBX 12 24 0 -4
BITMAP
0000
0000
0000
0000
0000
1CE0
1CE0
1CE0
0000
0000
1FC0
3FE0
7070
7070
FFE0
FFC0
E000
E000
7F80
3F80
0000
0000
0000
0000
ENDCHAR
STARTCHAR CYRILLIC SMALL LETTER DJE
ENCODING 1106
SWIDTH 480 0
DWIDTH 12 0
BBX 12 24 0 -4
BITMAP
0000
0000
0000
0000
3800
3800
FF00
FF00
7000
7000
7FC0
7FE0
7070
7070
E070
E070
E0E0
E0E0
E0E0
E0E0
01C0
01C0
0780
0700
ENDCHAR
STARTCHAR CYRILLIC SMALL LETTER GJE
ENCODING 1107
SWIDTH 480 0
DWIDTH 12 0
BBX 12 24 0 -4
BITMAP
0000
0000
0000
0000
0E00
0700
0380
01C0
0000
0000
1FC0
1FE0
0070
0070
3FE0
7FC0
E000
E000
7F80
3F80
0000
0000
0000
0000
ENDCHAR
STARTCHAR CYRILLIC SMALL LETTER UKRAINIAN IE
ENCODING 1108
SWIDTH 480 0
DWIDTH 12 0
BBX 12 24 0 -4
BITMAP
0000
0000
0000
0000
0000
0000
0000
0000
0000
0000
1FF0
3FF0
7000
7000
FF00
FF00
E000
E000
7FE0
3FE0
0000
0000
0000
0000
ENDCHAR
STARTCHAR CYRILLIC SMALL LETTER DZE
ENCODING 1109
SWIDTH 480 0
DWIDTH 12 0
BBX 12 24 0 -4
BITMAP
0000
0000
0000
0000
0000
0000
0000
0000
0000
0000
1FF0
3FF0
7000
7000
3F80
1FC0
00E0
00E0
FFC0
FF80
0000
0000
0000
0000
ENDCHAR
STARTCHAR CYRILLIC SMALL LETTER BYELORUSSIAN-UKRAINIAN I
ENCODING 1110
SWIDTH 480 0
DWIDTH 12 0
BBX 12 24 0 -4
BITMAP
0000
0000
0000
0000
0000
0380
0380
0380
0000
0000
0700
0700
0700
0700
0E00
0E00
0E00
0E00
0E00
0700
0000
0000
0000
0000
ENDCHAR
STARTCHAR CYRILLIC SMALL LETTER YI
ENCODING 1111
SWIDTH 480 0
DWIDTH 12 0
BBX 12 24 0 -4
BITMAP
0000
0000
0000
0000
0000
1CE0
1CE0
1CE0
0000
0000
0700
0700
0700
0700
0E00
0E00
0E00
0E00
0E00
0700
0000
0000
0000
0000
ENDCHAR
STARTCHAR CYRILLIC SMALL LETTER JE
ENCODING 1112
SWIDTH 480 0
DWIDTH 12 0
BBX 12 24 0 -4
BITMAP
0000
0000
0000
0000
0000
01C0
01C0
01C0
0000
0000
0380
0380
0380
0380
0380
0700
0700
0700
0700
0700
0E00
0E00
1C00
3800
ENDCHAR
STARTCHAR CYRILLIC SMALL LETTER LJE
ENCODING 1113
SWIDTH 480 0
DWIDTH 12 0
BBX 12 24 0 -4
BITMAP
0000
0000
0000
0000
0000
0000
0000
0000
0000
0000
0F80
1F80
3B80
3B80
73E0
73F0
7730
7730
E7F0
C3E0
0000
0000
0000
0000
ENDCHAR
STARTCHAR CYRILLIC SMALL LETTER NJE
ENCODING 1114
SWIDTH 480 0
DWIDTH 12 0
BBX 12 24 0 -4
BITMAP
0000
0000
0000
0000
0000
0000
0000
0000
0000
0000
7380
7380
7380
7380
7FE0
FFF0
E730
E730
E7F0
E3E0
0000
0000
0000
0000
ENDCHAR
STARTCHAR CYRILLIC SMALL LETTER TSHE
ENCODING 1115
SWIDTH 480 0
DWIDTH 12 0
BBX 12 24 0 -4
BITMAP
0000
0000
0000
0000
3800
3800
FF00
FF00
7000
7000
7FC0
7FE0
7070
7070
E070
E070
E0E0
E0E0
E0E0
E0E0
0000
0000
0000
0000
ENDCHAR
STARTCHAR CYRILLIC SMALL LETTER KJE
ENCODING 1116
SWIDTH 480 0
DWIDTH 12 0
BBX 12 24 0 -4
BITMAP
0000
0000
0000
0000
00E0
01C0
0380
0700
0000
0000
38E0
39C0
3B80
3F00
7E00
7C00
7E00
7700
7380
71C0
0000
0000
0000
0000
ENDCHAR
STARTCHAR CYRILLIC SMALL LETTER SHORT U
ENCODING 1118
SWIDTH 480 0
DWIDTH 12 0
BBX 12 24 0 -4
BITMAP
0000
0000
0000
0000
0000
1CE0
0FC0
0780
0000
0000
7070
7070
7070
7070
E070
E070
E0E0
E0E0
7FE0
3FE0
00E0
01C0
3FC0
3F00
ENDCHAR
STARTCHAR CYRILLIC SMALL LETTER DZHE
ENCODING 1119
SWIDTH 480 0
DWIDTH 12 0
BBX 12 24 0 -4
BITMAP
0000
0000
0000
0000
0000
0000
0000
0000
0000
0000
7070
7070
7070
7070
E070
E070
E0E0
E0E0
FFE0
FFE0
0E00
0E00
0E00
0E00
ENDCHAR
STARTCHAR CYRILLIC CAPITAL LETTER GHE WITH UPTURN
ENCODING 1168
SWIDTH 480 0
DWIDTH 12 0
BBX 12 24 0 -4
BITMAP
0000
0000
0000
0000
0070
0070
3FF0
3FF0
3800
3800
7000
7000
7000
7000
7000
E000
E000
E000
E000
E000
0000
0000
0000
0000
ENDCHAR
STARTCHAR CYRILLIC SMALL LETTER GHE WITH UPTURN
ENCODING 1169
SWIDTH 480 0
DWIDTH 12 0
BBX 12 24 0 -4
BITMAP
0000
0000
0000
0000
0000
0000
0000
0000
0070
0070
7FF0
7FF0
7000
7000
E000
E000
E000
E000
E000
E000
0000
0000
0000
0000
ENDCHAR
STARTCHAR HEBREW LETTER ALEF
ENCODING 1488
SWIDTH 480 0
DWIDTH 12 0
BBX 12 24 0 -4
BITMAP
0000
0000
0000
0000
0000
0000
0000
0000
0000
0000
7070
3870
1C70
0E70
7F70
E7E0
E380
E1C0
E0E0
E070
0000
0000
0000
0000
ENDCHAR
STARTCHAR HEBREW LETTER BET
ENCODING 1489
SWIDTH 480 0
DWIDTH 12 0
BBX 12 24 0 -4
BITMAP
0000
0000
0000
0000
0000
0000
0000
0000
0000
0000
7F00
7F80
01C0
01C0
01C0
01C0
0380
0380
FFE0
FFE0
0000
0000
0000
0000
ENDCHAR
STARTCHAR HEBREW LETTER GIMEL
ENCODING 1490
SWIDTH 480 0
DWIDTH 12 0
BBX 12 24 0 -4
BITMAP
0000
0000
0000
0000
0000
0000
0000
0000
0000
0000
7F00
7F80
01C0
01C0
01C0
01C0
0380
0380
FEE0
FEE0
0000
0000
0000
0000
ENDCHAR
STARTCHAR HEBREW LETTER DALET
ENCODING 1491
SWIDTH 480 0
DWIDTH 12 0
BBX 12 24 0 -4
BITMAP
0000
0000
0000
0000
0000
0000
0000
0000
0000
0000
7FF0
7FF0
01C0
01C0
01C0
01C0
0380
0380
0380
0380
0000
0000
0000
0000
ENDCHAR
STARTCHAR HEBREW LETTER HE
ENCODING 1492
SWIDTH 480 0
DWIDTH 12 0
BBX 12 24 0 -4
BITMAP
0000
0000
0000
0000
0000
0000
0000
0000
0000
0000
7FC0
7FE0
0070
0070
E070
E070
E0E0
E0E0
E0E0
E0E0
0000
0000
0000
0000
ENDCHAR
STARTCHAR HEBREW LETTER VAV
ENCODING 1493
SWIDTH 480 0
DWIDTH 12 0
BBX 12 24 0 -4
BITMAP
0000
0000
0000
0000
0000
0000
0000
0000
0000
0000
0700
0700
0700
0700
0700
0E00
0E00
0E00
0E00
0E00
0000
0000
0000
0000
ENDCHAR
STARTCHAR HEBREW LETTER ZAYIN
ENCODING 1494
SWIDTH 480 0
DWIDTH 12 0
BBX 12 24 0 -4
BITMAP
0000
0000
0000
0000
0000
0000
0000
0000
0000
0000
7FF0
7FF0
0070
00E0
01C0
0380
0700
0E00
0E00
0E00
0000
0000
0000
0000
ENDCHAR
STARTCHAR HEBREW LETTER HET
ENCODING 1495
SWIDTH 480 0
DWIDTH 12 0
BBX 12 24 0 -4
BITMAP
0000
0000
0000
0000
0000
0000
0000
0000
0000
0000
7FC0
7FE0
7070
7070
E070
E070
E0E0
E0E0
E0E0
E0E0
0000
0000
0000
0000
ENDCHAR
STARTCHAR HEBREW LETTER TET
ENCODING 1496
SWIDTH 480 0
DWIDTH 12 0
BBX 12 24 0 -4
BITMAP
0000
0000
0000
0000
0000
0000
0000
0000
0000
0000
77C0
77E0
7070
7070
E070
E070
E0E0
E0E0
7FC0
3F80
0000
0000
0000
0000
ENDCHAR
STARTCHAR HEBREW LETTER YOD
ENCODING 1497
SWIDTH 480 0
DWIDTH 12 0
BBX 12 24 0 -4
BITMAP
0000
0000
0000
0000
0000
0000
0000
0000
0000
0000
0700
0700
0700
0E00
0E00
0E00
0000
0000
0000
0000
0000
0000
0000
0000
ENDCHAR
STARTCHAR HEBREW LETTER FINAL KAF
ENCODING 1498
SWIDTH 480 0
DWIDTH 12 0
BBX 12 24 0 -4
BITMAP
0000
0000
0000
0000
0000
0000
0000
0000
0000
0000
7FC0
7FE0
0070
0070
0070
0070
00E0
00E0
00E0
00E0
00E0
00E0
01C0
01C0
ENDCHAR
STARTCHAR HEBREW LETTER KAF
ENCODING 1499
SWIDTH 480 0
DWIDTH 12 0
BBX 12 24 0 -4
BITMAP
0000
0000
0000
0000
0000
0000
0000
0000
0000
0000
7FC0
7FE0
0070
0070
0070
0070
00E0
00E0
FFC0
FF80
0000
0000
0000
0000
ENDCHAR
STARTCHAR HEBREW LETTER LAMED
ENCODING 1500
SWIDTH 480 0
DWIDTH 12 0
BBX 12 24 0 -4
BITMAP
0000
0000
0000
0000
0000
0000
0000
0000
0000
7000
7FF0
7FE0
01C0
0380
0700
0E00
1C00
3800
7000
E000
0000
0000
0000
0000
ENDCHAR
STARTCHAR HEBREW LETTER FINAL MEM
ENCODING 1501
SWIDTH 480 0
DWIDTH 12 0
BBX 12 24 0 -4
BITMAP
0000
0000
0000
0000
0000
0000
0000
0000
0000
0000
7FC0
7FE0
7070
7070
E070
E070
E0E0
E0E0
FFE0
FFE0
0000
0000
0000
0000
ENDCHAR
STARTCHAR HEBREW LETTER MEM
ENCODING 1502
SWIDTH 480 0
DWIDTH 12 0
BBX 12 24 0 -4
BITMAP
0000
0000
0000
0000
0000
0000
0000
0000
0000
0000
77C0
3FE0
1C70
1C70
3870
3870
70E0
70E0
EFE0
EFE0
0000
0000
0000
0000
ENDCHAR
STARTCHAR HEBREW LETTER FINAL NUN
ENCODING 1503
SWIDTH 480 0
DWIDTH 12 0
BBX 12 24 0 -4
BITMAP
0000
0000
0000
0000
0000
0000
0000
0000
0000
0000
0700
0700
0700
0700
0700
0E00
0E00
0E00
0E00
0E00
0E00
1C00
1C00
1C00
ENDCHAR
STARTCHAR HEBREW LETTER NUN
ENCODING 1504
SWIDTH 480 0
DWIDTH 12 0
BBX 12 24 0 -4
BITMAP
0000
0000
0000
0000
0000
0000
0000
0000
0000
0000
7FC0
7FE0
0070
0070
0070
0070
00E0
00E0
FFE0
FFE0
0000
0000
0000
0000
ENDCHAR
STARTCHAR HEBREW LETTER SAMEKH
ENCODING 1505
SWIDTH 480 0
DWIDTH 12 0
BBX 12 24 0 -4
BITMAP
0000
0000
0000
0000
0000
0000
0000
0000
0000
0000
7FC0
7FE0
7070
7070
E070
E070
E0E0
E0E0
7FC0
3F80
0000
0000
0000
0000
ENDCHAR
STARTCHAR HEBREW LETTER AYIN
ENCODING 1506
SWIDTH 480 0
DWIDTH 12 0
BBX 12 24 0 -4
BITMAP
0000
0000
0000
0000
0000
0000
0000
0000
0000
0000
7070
7070
7070
7070
7070
7070
38E0
38E0
FFC0
FF80
0000
0000
0000
0000
ENDCHAR
STARTCHAR HEBREW LETTER FINAL PE
ENCODING 1507
SWIDTH 480 0
DWIDTH 12 0
BBX 12 24 0 -4
BITMAP
0000
0000
0000
0000
0000
0000
0000
0000
0000
0000
7FC0
7FE0
7070
7070
3F70
1F70
00E0
00E0
00E0
00E0
00E0
00E0
01C0
01C0
ENDCHAR
STARTCHAR HEBREW LETTER PE
ENCODING 1508
SWIDTH 480 0
DWIDTH 12 0
BBX 12 24 0 -4
BITMAP
0000
0000
0000
0000
0000
0000
0000
0000
0000
0000
7FC0
7FE0
7070
7070
7E70
3E70
00E0
00E0
FFC0
FF80
0000
0000
0000
0000
ENDCHAR
STARTCHAR HEBREW LETTER FINAL TSADI
ENCODING 1509
SWIDTH 480 0
DWIDTH 12 0
BBX 12 24 0 -4
BITMAP
0000
0000
0000
0000
0000
0000
0000
0000
0000
0000
6070
7070
3870
1C70
0FE0
07C0
0E00
0E00
0E00
0E00
0E00
1C00
1C00
1C00
ENDCHAR
STARTCHAR HEBREW LETTER TSADI
ENCODING 1510
SWIDTH 480 0
DWIDTH 12 0
BBX 12 24 0 -4
BITMAP
0000
0000
0000
0000
0000
0000
0000
0000
0000
0000
6070
7070
38E0
1CE0
1DC0
0FC0
0780
0380
FFE0
FFE0
0000
0000
0000
0000
ENDCHAR
STARTCHAR HEBREW LETTER QOF
ENCODING 1511
SWIDTH 480 0
DWIDTH 12 0
BBX 12 24 0 -4
BITMAP
0000
0000
0000
0000
0000
0000
0000
0000
0000
0000
3FF0
3FF0
0070
0070
7070
7070
70E0
71C0
7380
7700
E000
E000
E000
E000
ENDCHAR
STARTCHAR HEBREW LETTER RESH
ENCODING 1512
SWIDTH 480 0
DWIDTH 12 0
BBX 12 24 0 -4
BITMAP
0000
0000
0000
0000
0000
0000
0000
0000
0000
0000
7FC0
7FE0
0070
0070
0070
0070
00E0
00E0
00E0
00E0
0000
0000
0000
0000
ENDCHAR
STARTCHAR HEBREW LETTER SHIN
ENCODING 1513
SWIDTH 480 0
DWIDTH 12 0
BBX 12 24 0 -4
BITMAP
0000
0000
0000
0000
0000
0000
0000
0000
0000
0000
7770
7770
7770
7770
E770
FE70
FCE0
E0E0
FFC0
FF80
0000
0000
0000
0000
ENDCHAR
STARTCHAR HEBREW LETTER TAV
ENCODING 1514
SWIDTH 480 0
DWIDTH 12 0
BBX 12 24 0 -4
BITMAP
0000
0000
0000
0000
0000
0000
0000
0000
0000
0000
7FC0
7FE0
1C70
1C70
3870
3870
38E0
38E0
F0E0
E0E0
0000
0000
0000
0000
ENDCHAR
STARTCHAR LATIN CAPITAL LETTER B WITH DOT ABOVE
ENCODING 7682
SWIDTH 480 0
DWIDTH 12 0
BBX 12 24 0 -4
BITMAP
0000
0380
0380
0380
0000
0000
3FC0
3FE0
3870
3870
70E0
70E0
7FC0
7FC0
70E0
E0E0
E1C0
E1C0
FF80
FF00
0000
0000
0000
0000
ENDCHAR
STARTCHAR LATIN SMALL LETTER B WITH DOT ABOVE
ENCODING 7683
SWIDTH 480 0
DWIDTH 12 0
BBX 12 24 0 -4
BITMAP
1C00
1C00
1C00
0000
3800
3800
3800
3800
7000
7000
7FC0
7FE0
7070
7070
E070
E070
E0E0
E0E0
FFC0
FF80
0000
0000
0000
0000
ENDCHAR
STARTCHAR LATIN CAPITAL LETTER D WITH DOT ABOVE
ENCODING 7690
SWIDTH 480 0
DWIDTH 12 0
BBX 12 24 0 -4
BITMAP
0000
0380
0380
0380
0000
0000
3FC0
3FE0
3870
3870
7070
70E0
70E0
70E0
70E0
E0E0
E1C0
E1C0
FF80
FF00
0000
0000
0000
0000
ENDCHAR
STARTCHAR LATIN SMALL LETTER D WITH DOT ABOVE
ENCODING 7691
SWIDTH 480 0
DWIDTH 12 0
BBX 12 24 0 -4
BITMAP
0070
0070
0070
0000
0070
0070
0070
0070
0070
0070
1FF0
3FE0
70E0
70E0
E0E0
E0E0
E1C0
E1C0
7FC0
3FC0
0000
0000
0000
0000
ENDCHAR
STARTCHAR LATIN CAPITAL LETTER F WITH DOT ABOVE
ENCODING 7710
SWIDTH 480 0
DWIDTH 12 0
BBX 12 24 0 -4
BITMAP
0000
0380
0380
0380
0000
0000
3FF0
3FF0
3800
3800
7000
7000
7F00
7F00
7000
E000
E000
E000
E000
E000
0000
0000
0000
0000
ENDCHAR
STARTCHAR LATIN SMALL LETTER F WITH DOT ABOVE
ENCODING 7711
SWIDTH 480 0
DWIDTH 12 0
BBX 12 24 0 -4
BITMAP
0070
0070
0070
0000
00F0
01F0
0380
0380
0700
0700
0700
3FE0
3FE0
0700
0E00
0E00
0E00
0E00
0E00
0E00
1C00
1C00
F800
F000
ENDCHAR
STARTCHAR LATIN CAPITAL LETTER M WITH DOT ABOVE
ENCODING 7744
SWIDTH 480 0
DWIDTH 12 0
BBX 12 24 0 -4
BITMAP
0000
0380
0380
0380
0000
0000
3030
3870
3CF0
3FF0
77F0
73E0
70E0
70E0
70E0
E0E0
E1C0
E1C0
E1C0
E1C0
0000
0000
0000
0000
ENDCHAR
STARTCHAR LATIN SMALL LETTER M WITH DOT ABOVE
ENCODING 7745
SWIDTH 480 0
DWIDTH 12 0
BBX 12 24 0 -4
BITMAP
0000
0000
0000
0000
0000
0380
0380
0380
0000
0000
7DC0
7FE0
7770
7770
E770
EE70
EEE0
EEE0
E0E0
E0E0
0000
0000
0000
0000
ENDCHAR
STARTCHAR LATIN CAPITAL LETTER P WITH DOT ABOVE
ENCODING 7766
SWIDTH 480 0
DWIDTH 12 0
BBX 12 24 0 -4
BITMAP
0000
0380
0380
0380
0000
0000
3FC0
3FE0
3870
3870
7070
70E0
70E0
70E0
7FC0
FF80
E000
E000
E000
E000
0000
0000
0000
0000
ENDCHAR
STARTCHAR LATIN SMALL LETTER P WITH DOT ABOVE
ENCODING 7767
SWIDTH 480 0
DWIDTH 12 0
BBX 12 24 0 -4
BITMAP
0000
0000
0000
0000
0000
0380
0380
0380
0000
0000
3FC0
3FE0
3870
3870
7070
70E0
70E0
70E0
7FC0
FF80
E000
E000
E000
E000
ENDCHAR
STARTCHAR LATIN CAPITAL LETTER S WITH DOT ABOVE
ENCODING 7776
SWIDTH 480 0
DWIDTH 12 0
BBX 12 24 0 -4
BITMAP
0000
0380
0380
0380
0000
0000
0FF0
1FF0
3800
3800
7000
7000
3FC0
1FE0
0070
0070
00E0
00E0
FFC0
FF80
0000
0000
0000
0000
ENDCHAR
STARTCHAR LATIN SMALL LETTER S WITH DOT ABOVE
ENCODING 7777
SWIDTH 480 0
DWIDTH 12 0
BBX 12 24 0 -4
BITMAP
0000
0000
0000
0000
0000
0380
0380
0380
0000
0000
1FF0
3FF0
7000
7000
3F80
1FC0
00E0
00E0
FFC0
FF80
0000
0000
0000
0000
ENDCHAR
STARTCHAR LATIN CAPITAL LETTER T WITH DOT ABOVE
ENCODING 7786
SWIDTH 480 0
DWIDTH 12 0
BBX 12 24 0 -4
BITMAP
0000
0380
0380
0380
0000
0000
7FF0
7FF0
0700
0700
0700
0E00
0E00
0E00
0E00
1C00
1C00
1C00
1C00
1C00
0000
0000
0000
0000
ENDCHAR
STARTCHAR LATIN SMALL LETTER T WITH DOT ABOVE
ENCODING 7787
SWIDTH 480 0
DWIDTH 12 0
BBX 12 24 0 -4
BITMAP
0700
0700
0700
0000
0700
0700
0700
0700
0E00
0E00
3F80
3F80
0E00
0E00
1C00
1C00
1C00
1C00
0FC0
07C0
0000
0000
0000
0000
ENDCHAR
STARTCHAR LATIN CAPITAL LETTER W WITH GRAVE
ENCODING 7808
SWIDTH 480 0
DWIDTH 12 0
BBX 12 24 0 -4
BITMAP
1C00
0E00
0700
0380
0000
0000
3870
3870
3870
3870
7070
70E0
70E0
70E0
7CE0
FEE0
FFC0
F3C0
E1C0
C0C0
0000
0000
0000
0000
ENDCHAR
STARTCHAR LATIN SMALL LETTER W WITH GRAVE
ENCODING 7809
SWIDTH 480 0
DWIDTH 12 0
BBX 12 24 0 -4
BITMAP
0000
0000
0000
0000
1C00
0E00
0700
0380
0000
0000
7070
7070
7070
7470
EE70
FF70
FBE0
F1E0
E0E0
C060
0000
0000
0000
0000
ENDCHAR
STARTCHAR LATIN CAPITAL LETTER W WITH ACUTE
ENCODING 7810
SWIDTH 480 0
DWIDTH 12 0
BBX 12 24 0 -4
BITMAP
0070
00E0
01C0
0380
0000
0000
3870
3870
3870
3870
7070
70E0
70E0
70E0
7CE0
FEE0
FFC0
F3C0
E1C0
C0C0
0000
0000
0000
0000
ENDCHAR
STARTCHAR LATIN SMALL LETTER W WITH ACUTE
ENCODING 7811
SWIDTH 480 0
DWIDTH 12 0
BBX 12 24 0 -4
BITMAP
0000
0000
0000
0000
0070
00E0
01C0
0380
0000
0000
7070
7070
7070
7470
EE70
FF70
FBE0
F1E0
E0E0
C060
0000
0000
0000
0000
ENDCHAR
STARTCHAR LATIN CAPITAL LETTER W WITH DIAERESIS
ENCODING 7812
SWIDTH 480 0
DWIDTH 12 0
BBX 12 24 0 -4
BITMAP
0000
0E70
0E70
0E70
0000
0000
3870
3870
3870
3870
7070
70E0
70E0
70E0
7CE0
FEE0
FFC0
F3C0
E1C0
C0C0
0000
0000
0000
0000
ENDCHAR
STARTCHAR LATIN SMALL LETTER W WITH DIAERESIS
ENCODING 7813
SWIDTH 480 0
DWIDTH 12 0
BBX 12 24 0 -4
BITMAP
0000
0000
0000
0000
0000
1CE0
1CE0
1CE0
0000
0000
7070
7070
7070
7470
EE70
FF70
FBE0
F1E0
E0E0
C060
0000
0000
0000
0000
ENDCHAR
STARTCHAR LATIN CAPITAL LETTER Y WITH GRAVE
ENCODING 7922
SWIDTH 480 0
DWIDTH 12 0
BBX 12 24 0 -4
BITMAP
1C00
0E00
0700
0380
0000
0000
E070
E070
E070
E0E0
71C0
3B80
1F00
1E00
1C00
1C00
1C00
3800
3800
3800
0000
0000
0000
0000
ENDCHAR
STARTCHAR LATIN SMALL LETTER Y WITH GRAVE
ENCODING 7923
SWIDTH 480 0
DWIDTH 12 0
BBX 12 24 0 -4
BITMAP
0000
0000
0000
0000
1C00
0E00
0700
0380
0000
0000
7070
7070
7070
7070
E070
E070
E0E0
E0E0
7FE0
3FE0
00E0
01C0
3FC0
3F00
ENDCHAR
STARTCHAR HORIZONTAL BAR
ENCODING 8213
SWIDTH 480 0
DWIDTH 12 0
BBX 12 24 0 -4
BITMAP
0000
0000
0000
0000
0000
0000
0000
0000
0000
0000
0000
3FF0
7FE0
FFC0
0000
0000
0000
0000
0000
0000
0000
0000
0000
0000
ENDCHAR
STARTCHAR DOUBLE LOW LINE
ENCODING 8215
SWIDTH 480 0
DWIDTH 12 0
BBX 12 24 0 -4
BITMAP
0000
0000
0000
0000
0000
0000
0000
0000
0000
0000
0000
0000
0000
0000
0000
0000
0000
7FF0
7FF0
7FF0
0000
FFE0
FFE0
FFE0
ENDCHAR
STARTCHAR LEFT SINGLE QUOTATION MARK
ENCODING 8216
SWIDTH 480 0
DWIDTH 12 0
BBX 12 24 0 -4
BITMAP
0000
0000
0000
0380
0700
0E00
0E00
0E00
0000
0000
0000
0000
0000
0000
0000
0000
0000
0000
0000
0000
0000
0000
0000
0000
ENDCHAR
STARTCHAR RIGHT SINGLE QUOTATION MARK
ENCODING 8217
SWIDTH 480 0
DWIDTH 12 0
BBX 12 24 0 -4
BITMAP
0000
0000
0000
0E00
0E00
0E00
1C00
3800
0000
0000
0000
0000
0000
0000
0000
0000
0000
0000
0000
0000
0000
0000
0000
0000
ENDCHAR
STARTCHAR SINGLE HIGH-REVERSED-9 QUOTATION MARK
ENCODING 8219
SWIDTH 480 0
DWIDTH 12 0
BBX 12 24 0 -4
BITMAP
0000
0000
0000
0E00
0E00
0E00
0700
0380
0000
0000
0000
0000
0000
0000
0000
0000
0000
0000
0000
0000
0000
0000
0000
0000
ENDCHAR
STARTCHAR LEFT DOUBLE QUOTATION MARK
ENCODING 8220
SWIDTH 480 0
DWIDTH 12 0
BBX 12 24 0 -4
BITMAP
0000
0000
0000
0EE0
1DC0
3B80
3B80
3B80
0000
0000
0000
0000
0000
0000
0000
0000
0000
0000
0000
0000
0000
0000
0000
0000
ENDCHAR
STARTCHAR RIGHT DOUBLE QUOTATION MARK
ENCODING 8221
SWIDTH 480 0
DWIDTH 12 0
BBX 12 24 0 -4
BITMAP
0000
0000
0000
3B80
3B80
3B80
7700
EE00
0000
0000
0000
0000
0000
0000
0000
0000
0000
0000
0000
0000
0000
0000
0000
0000
ENDCHAR
STARTCHAR DOUBLE LOW-9 QUOTATION MARK
ENCODING 8222
SWIDTH 480 0
DWIDTH 12 0
BBX 12 24 0 -4
BITMAP
0000
0000
0000
0000
0000
0000
0000
0000
0000
0000
0000
0000
0000
0000
0000
0000
0000
0000
3B80
3B80
3B80
7700
EE00
0000
ENDCHAR
STARTCHAR DOUBLE HIGH-REVERSED-9 QUOTATION MARK
ENCODING 8223
SWIDTH 480 0
DWIDTH 12 0
BBX 12 24 0 -4
BITMAP
0000
0000
0000
3B80
3B80
3B80
1DC0
0EE0
0000
0000
0000
0000
0000
0000
0000
0000
0000
0000
0000
0000
0000
0000
0000
0000
ENDCHAR
STARTCHAR EURO SIGN
ENCODING 8364
SWIDTH 480 0
DWIDTH 12 0
BBX 12 24 0 -4
BITMAP
0000
0000
0000
0000
0000
0000
07F0
0FF0
1C00
1C00
7FC0
7F80
3800
3800
FF00
FE00
7000
7000
3FE0
1FE0
0000
0000
0000
0000
ENDCHAR
STARTCHAR DRACHMA SIGN
ENCODING 8367
SWIDTH 480 0
DWIDTH 12 0
BBX 12 24 0 -4
BITMAP
0000
0000
0000
0000
0000
0000
3E00
3F00
3B80
3B80
73E0
73F0
73B0
73B0
7730
E730
E770
E770
FFE0
FFC0
0E00
0E00
0E00
0E00
ENDCHAR
STARTCHAR HRYVNIA SIGN
ENCODING 8372
SWIDTH 480 0
DWIDTH 12 0
BBX 12 24 0 -4
BITMAP
0000
0000
0000
0000
0000
0000
3FC0
3FE0
0070
0070
3FF0
3FF0
0FC0
1F80
FFE0
FFE0
7000
7000
3FE0
1FE0
0000
0000
0000
0000
ENDCHAR
STARTCHAR RUBLE SIGN
ENCODING 8381
SWIDTH 480 0
DWIDTH 12 0
BBX 12 24 0 -4
BITMAP
0000
0000
0000
0000
0000
0000
3FC0
3FE0
3870
3870
7070
70E0
70E0
70E0
7FC0
FF80
E000
FF80
FF80
E000
0000
0000
0000
0000
ENDCHAR
STARTCHAR NUMERO SIGN
ENCODING 8470
SWIDTH 480 0
DWIDTH 12 0
BBX 12 24 0 -4
BITMAP
0000
0000
0000
0000
0000
0000
3B80
3B80
3B80
3B80
73E0
77F0
7FF0
7FB0
7FF0
E7E0
EEC0
EE00
EFF0
EFF0
0000
0000
0000
0000
ENDCHAR
STARTCHAR <Private Use, First>
ENCODING 57344
SWIDTH 480 0
DWIDTH 12 0
BBX 12 24 0 -4
BITMAP
0000
0000
0000
0000
3800
3800
3800
3800
3800
7000
7030
7070
70E0
70E0
71F0
E1F0
E1C0
E1C0
7EF0
3E70
0000
0000
0000
0000
ENDCHAR
STARTCHAR char57345
ENCODING 57345
SWIDTH 480 0
DWIDTH 12 0
BBX 12 24 0 -4
BITMAP
0000
0000
0000
0000
0000
0000
0000
0000
0000
0000
F830
FC70
0EE0
0EE0
FDC0
F9C0
01C0
01C0
F0F0
F070
0000
0000
0030
0030
ENDCHAR
STARTCHAR char57346
ENCODING 57346
SWIDTH 480 0
DWIDTH 12 0
BBX 12 24 0 -4
BITMAP
0000
0000
0000
0000
0000
0000
0000
0000
0000
0000
FC30
FE70
0EE0
0EE0
0FC0
0FC0
1DC0
1DC0
FCF0
FC70
1C00
3800
F830
E030
ENDCHAR
STARTCHAR char57347
ENCODING 57347
SWIDTH 480 0
DWIDTH 12 0
BBX 12 24 0 -4
BITMAP
0000
0000
0000
0000
0000
0030
0030
0030
0000
0000
FC70
FE70
0E70
0E70
0EE0
0EE0
1CE0
1CE0
FCE0
FC70
1C00
3800
F800
E000
ENDCHAR
STARTCHAR char57348
ENCODING 57348
SWIDTH 480 0
DWIDTH 12 0
BBX 12 24 0 -4
BITMAP
0000
0000
0000
0000
0000
8000
8000
8000
0000
0000
1FC0
3FE0
7070
7070
FFE0
FFC0
E000
E000
7F80
3F80
0000
0000
0000
0000
ENDCHAR
STARTCHAR char57349
ENCODING 57349
SWIDTH 480 0
DWIDTH 12 0
BBX 12 24 0 -4
BITMAP
0000
0000
0000
0000
0000
0000
7FF0
7DF0
7DF0
38E0
0000
0700
0700
0700
0000
0000
E0E0
E0E0
7FC0
3F80
0000
0000
0000
0000
ENDCHAR
STARTCHAR REPLACEMENT CHARACTER
ENCODING 65533
SWIDTH 480 0
DWIDTH 12 0
BBX 12 24 0 -4
BITMAP
0000
0600
0F00
1F80
3FC0
7FE0
F070
F030
FF10
FF10
FF30
FE70
FCF0
F9F0
F3F0
F3F0
FFF0
E3F0
E3F0
63E0
3FC0
1F80
0F00
0600
ENDCHAR
STARTCHAR UNIMPLEMENTED GLYPH
ENCODING 65535
SWIDTH 480 0
DWIDTH 12 0
BBX 12 24 0 -4
BITMAP
0000
0000
3FF0
3FF0
3FF0
3FF0
3FF0
3FF0
7FF0
7FF0
7FF0
7FF0
7FF0
7FF0
FFF0
FFF0
FFE0
FFE0
FFE0
FFE0
FFE0
FFE0
0000
0000
ENDCHAR
ENDFONT
